G04 Layer_Color=8388736*
%FSLAX25Y25*%
%MOIN*%
G70*
G01*
G75*
%ADD14C,0.05905*%
%ADD40R,0.06312X0.05721*%
%ADD41R,0.03556X0.04343*%
%ADD42R,0.04737X0.09265*%
%ADD43R,0.13595X0.09265*%
%ADD44R,0.05721X0.06312*%
%ADD45R,0.03359X0.04343*%
%ADD46R,0.02572X0.04343*%
%ADD47O,0.08280X0.03162*%
%ADD48R,0.08280X0.03162*%
%ADD49R,0.22847X0.09068*%
%ADD50R,0.04343X0.03556*%
%ADD51R,0.04343X0.03359*%
%ADD52R,0.04343X0.02572*%
%ADD53C,0.08674*%
%ADD54C,0.07099*%
%ADD55R,0.07099X0.07099*%
%ADD56O,0.15761X0.11824*%
%ADD57C,0.06706*%
%ADD58R,0.06706X0.06706*%
D14*
X565623Y424540D02*
G03*
X608392Y469154I-922J43691D01*
G01*
Y480167D02*
G03*
X563607Y523922I-44270J-515D01*
G01*
X339547Y424347D02*
X483500D01*
X483693Y424540D02*
X500500D01*
X608392Y469154D02*
Y480167D01*
X339547Y514500D02*
Y523922D01*
Y488500D02*
Y501000D01*
Y514500D01*
Y424347D02*
Y448500D01*
Y488500D01*
X500500Y424540D02*
X565623D01*
X339547Y523922D02*
X563607D01*
D40*
X395000Y445252D02*
D03*
Y451748D02*
D03*
X461000Y434252D02*
D03*
Y440748D02*
D03*
X380000Y508752D02*
D03*
Y515248D02*
D03*
X390500Y508752D02*
D03*
Y515248D02*
D03*
X369500Y508752D02*
D03*
Y515248D02*
D03*
D41*
X509256Y444500D02*
D03*
X503744D02*
D03*
X525744Y517000D02*
D03*
X531256D02*
D03*
X511244D02*
D03*
X516756D02*
D03*
D42*
X390555Y489516D02*
D03*
X381500D02*
D03*
X372445D02*
D03*
D43*
X381500Y466484D02*
D03*
D44*
X347752Y514500D02*
D03*
X354248D02*
D03*
X354748Y432500D02*
D03*
X348252D02*
D03*
D45*
X386216Y453346D02*
D03*
X375980D02*
D03*
X386216Y446654D02*
D03*
X375980D02*
D03*
D46*
X382673Y453346D02*
D03*
X379524D02*
D03*
X382673Y446654D02*
D03*
X379524D02*
D03*
D47*
X446701Y448000D02*
D03*
Y453000D02*
D03*
Y458000D02*
D03*
Y463000D02*
D03*
Y468000D02*
D03*
Y473000D02*
D03*
Y478000D02*
D03*
Y483000D02*
D03*
Y488000D02*
D03*
Y493000D02*
D03*
Y498000D02*
D03*
Y503000D02*
D03*
Y508000D02*
D03*
Y513000D02*
D03*
X409299Y448000D02*
D03*
Y453000D02*
D03*
Y458000D02*
D03*
Y463000D02*
D03*
Y468000D02*
D03*
Y473000D02*
D03*
Y478000D02*
D03*
Y483000D02*
D03*
Y488000D02*
D03*
Y493000D02*
D03*
Y498000D02*
D03*
Y503000D02*
D03*
Y508000D02*
D03*
D48*
Y513000D02*
D03*
D49*
X443701Y433000D02*
D03*
X406299D02*
D03*
D50*
X400000Y514756D02*
D03*
Y509244D02*
D03*
D51*
X467154Y514217D02*
D03*
Y503980D02*
D03*
X473846Y514217D02*
D03*
Y503980D02*
D03*
X472154Y442717D02*
D03*
Y432480D02*
D03*
X478847Y442717D02*
D03*
Y432480D02*
D03*
D52*
X467154Y510673D02*
D03*
Y507524D02*
D03*
X473846Y510673D02*
D03*
Y507524D02*
D03*
X472154Y439173D02*
D03*
Y436024D02*
D03*
X478847Y439173D02*
D03*
Y436024D02*
D03*
D53*
X491000Y458075D02*
D03*
Y488075D02*
D03*
X501000Y458075D02*
D03*
Y488075D02*
D03*
X511000Y458075D02*
D03*
Y488075D02*
D03*
X521000Y458075D02*
D03*
Y488075D02*
D03*
X531000Y458075D02*
D03*
Y488075D02*
D03*
X541000Y458075D02*
D03*
Y488075D02*
D03*
X551000Y458075D02*
D03*
Y488075D02*
D03*
X561000D02*
D03*
Y458075D02*
D03*
D54*
X359500Y470198D02*
D03*
Y460355D02*
D03*
Y478072D02*
D03*
D55*
Y487914D02*
D03*
D56*
X348831Y448269D02*
D03*
Y500001D02*
D03*
D57*
X550500Y436000D02*
D03*
X540500D02*
D03*
X530500D02*
D03*
X520500D02*
D03*
X500500D02*
D03*
X510500D02*
D03*
X551000Y508000D02*
D03*
X541000D02*
D03*
X531000D02*
D03*
X521000D02*
D03*
X501000D02*
D03*
X511000D02*
D03*
D58*
X490500Y436000D02*
D03*
X491000Y508000D02*
D03*
M02*
