G04 Layer_Color=32896*
%FSLAX25Y25*%
%MOIN*%
G70*
G01*
G75*
%ADD12C,0.00787*%
%ADD13C,0.01000*%
%ADD15C,0.01575*%
%ADD39C,0.00598*%
%ADD59C,0.00600*%
G04:AMPARAMS|DCode=60|XSize=67.64mil|YSize=67.63mil|CornerRadius=0mil|HoleSize=0mil|Usage=FLASHONLY|Rotation=135.000|XOffset=0mil|YOffset=0mil|HoleType=Round|Shape=Rectangle|*
%AMROTATEDRECTD60*
4,1,4,0.04783,-0.00000,0.00000,-0.04783,-0.04783,0.00000,-0.00000,0.04783,0.04783,-0.00000,0.0*
%
%ADD60ROTATEDRECTD60*%

D12*
X446000Y471300D02*
G03*
X454000Y463300I8000J0D01*
G01*
X473000Y482300D02*
G03*
X465000Y490300I-8000J0D01*
G01*
X454717Y483583D02*
X459500Y478800D01*
X446000Y471300D02*
Y490300D01*
X465000D01*
X473000Y463300D02*
Y482300D01*
X454000Y463300D02*
X473000D01*
X461218Y477082D02*
X466000Y472300D01*
X461218Y477082D02*
X466000Y481865D01*
Y472300D02*
X470782Y477082D01*
X466000Y481865D02*
X470782Y477082D01*
X454718Y470583D02*
X459500Y475365D01*
X464282Y470583D01*
X459500Y465800D02*
X464282Y470583D01*
X454718D02*
X459500Y465800D01*
Y478800D02*
X464282Y483582D01*
X459500Y488365D02*
X464282Y483582D01*
X454718D02*
X459500Y488365D01*
X442200Y486449D02*
Y483300D01*
Y484874D01*
X441413Y485661D01*
X440626Y486449D01*
X439839D01*
X437477Y483300D02*
Y484087D01*
X436690D01*
Y483300D01*
X437477D01*
X432754Y486449D02*
X431180D01*
X430393Y485661D01*
Y483300D01*
X432754D01*
X433541Y484087D01*
X432754Y484874D01*
X430393D01*
X428819Y483300D02*
Y484087D01*
X428031D01*
Y483300D01*
X428819D01*
X424883D02*
Y486449D01*
X424096D01*
X423309Y485661D01*
Y483300D01*
Y485661D01*
X422521Y486449D01*
X421734Y485661D01*
Y483300D01*
X420160D02*
Y484087D01*
X419373D01*
Y483300D01*
X420160D01*
X408353Y488023D02*
X411501D01*
Y485661D01*
X409927D01*
X411501D01*
Y483300D01*
X405991Y486449D02*
X404417D01*
X403630Y485661D01*
Y483300D01*
X405991D01*
X406778Y484087D01*
X405991Y484874D01*
X403630D01*
X398907Y486449D02*
X401268D01*
X402056Y485661D01*
Y484087D01*
X401268Y483300D01*
X398907D01*
X396546Y487236D02*
Y486449D01*
X397333D01*
X395758D01*
X396546D01*
Y484087D01*
X395758Y483300D01*
X392610D02*
X391035D01*
X390248Y484087D01*
Y485661D01*
X391035Y486449D01*
X392610D01*
X393397Y485661D01*
Y484087D01*
X392610Y483300D01*
X388674Y486449D02*
Y483300D01*
Y484874D01*
X387887Y485661D01*
X387100Y486449D01*
X386313D01*
X383951D02*
Y484087D01*
X383164Y483300D01*
X380802D01*
Y482513D01*
X381590Y481726D01*
X382377D01*
X380802Y483300D02*
Y486449D01*
D13*
X577500Y444500D02*
X583498D01*
Y447499D01*
X582498Y448499D01*
X580499D01*
X579499Y447499D01*
Y444500D01*
X577500Y450498D02*
X583498D01*
Y453497D01*
X582498Y454497D01*
X580499D01*
X579499Y453497D01*
Y450498D01*
Y452497D02*
X577500Y454497D01*
X583498Y459495D02*
Y457496D01*
X582498Y456496D01*
X578500D01*
X577500Y457496D01*
Y459495D01*
X578500Y460495D01*
X582498D01*
X583498Y459495D01*
X582498Y466493D02*
X583498Y465493D01*
Y463494D01*
X582498Y462494D01*
X578500D01*
X577500Y463494D01*
Y465493D01*
X578500Y466493D01*
X580499D01*
Y464494D01*
X577500Y468492D02*
X583498D01*
Y471491D01*
X582498Y472491D01*
X580499D01*
X579499Y471491D01*
Y468492D01*
Y470492D02*
X577500Y472491D01*
Y474490D02*
X581499D01*
X583498Y476490D01*
X581499Y478489D01*
X577500D01*
X580499D01*
Y474490D01*
X577500Y480488D02*
X583498D01*
X581499Y482488D01*
X583498Y484487D01*
X577500D01*
Y486486D02*
X583498D01*
X581499Y488486D01*
X583498Y490485D01*
X577500D01*
X583498Y496483D02*
Y492485D01*
X577500D01*
Y496483D01*
X580499Y492485D02*
Y494484D01*
X577500Y498483D02*
X583498D01*
Y501482D01*
X582498Y502481D01*
X580499D01*
X579499Y501482D01*
Y498483D01*
Y500482D02*
X577500Y502481D01*
X592998Y460999D02*
X593998Y459999D01*
Y458000D01*
X592998Y457000D01*
X589000D01*
X588000Y458000D01*
Y459999D01*
X589000Y460999D01*
X593998Y462998D02*
X588000D01*
X590999D01*
Y466997D01*
X593998D01*
X588000D01*
X592998Y468996D02*
X593998Y469996D01*
Y471995D01*
X592998Y472995D01*
X591999D01*
X590999Y471995D01*
Y470996D01*
Y471995D01*
X589999Y472995D01*
X589000D01*
X588000Y471995D01*
Y469996D01*
X589000Y468996D01*
X588000Y477993D02*
X593998D01*
X590999Y474994D01*
Y478993D01*
X588000Y480992D02*
Y482992D01*
Y481992D01*
X593998D01*
X592998Y480992D01*
X588000Y485991D02*
X591999D01*
X593998Y487990D01*
X591999Y489989D01*
X588000D01*
X590999D01*
Y485991D01*
D15*
X434019Y478048D02*
X435987Y480016D01*
X439923D01*
X441891Y478048D01*
Y476081D01*
X439923Y474113D01*
X435987D01*
X434019Y472145D01*
Y470177D01*
X435987Y468209D01*
X439923D01*
X441891Y470177D01*
X430084Y480016D02*
X422212D01*
X426148D01*
Y468209D01*
X412373Y480016D02*
X416309D01*
X418277Y478048D01*
Y470177D01*
X416309Y468209D01*
X412373D01*
X410405Y470177D01*
Y478048D01*
X412373Y480016D01*
X406469Y468209D02*
Y480016D01*
X400566D01*
X398598Y478048D01*
Y474113D01*
X400566Y472145D01*
X406469D01*
X402534D02*
X398598Y468209D01*
X386791Y480016D02*
X394662D01*
Y468209D01*
X386791D01*
X394662Y474113D02*
X390726D01*
D39*
X509000Y444500D02*
X512200D01*
X509000Y446633D01*
X512200D01*
X511666Y449833D02*
X512200Y449300D01*
Y448233D01*
X511666Y447700D01*
X509533D01*
X509000Y448233D01*
Y449300D01*
X509533Y449833D01*
X501666Y444633D02*
X502200Y444100D01*
Y443033D01*
X501666Y442500D01*
X499533D01*
X499000Y443033D01*
Y444100D01*
X499533Y444633D01*
X500600D01*
Y443567D01*
X499000Y445700D02*
X502200D01*
X499000Y447833D01*
X502200D01*
Y448900D02*
X499000D01*
Y450499D01*
X499533Y451033D01*
X501666D01*
X502200Y450499D01*
Y448900D01*
X489000Y442500D02*
X491133D01*
X492200Y443567D01*
X491133Y444633D01*
X489000D01*
X490600D01*
Y442500D01*
X491667Y447833D02*
X492200Y447300D01*
Y446233D01*
X491667Y445700D01*
X489533D01*
X489000Y446233D01*
Y447300D01*
X489533Y447833D01*
X492200Y448900D02*
Y451033D01*
Y449966D01*
X489000D01*
X552200Y444633D02*
Y442500D01*
X550600D01*
X551133Y443567D01*
Y444100D01*
X550600Y444633D01*
X549533D01*
X549000Y444100D01*
Y443033D01*
X549533Y442500D01*
X551133Y445700D02*
X549000Y446766D01*
X551133Y447833D01*
X541667Y443133D02*
X542200Y442600D01*
Y441533D01*
X541667Y441000D01*
X539533D01*
X539000Y441533D01*
Y442600D01*
X539533Y443133D01*
X540600D01*
Y442067D01*
X539000Y444200D02*
X542200D01*
X539000Y446333D01*
X542200D01*
Y447400D02*
X539000D01*
Y448999D01*
X539533Y449533D01*
X541667D01*
X542200Y448999D01*
Y447400D01*
X529000Y441000D02*
X532200D01*
Y442600D01*
X531667Y443133D01*
X530600D01*
X530067Y442600D01*
Y441000D01*
Y442067D02*
X529000Y443133D01*
X531133Y444200D02*
X529000Y446333D01*
X530067Y445266D01*
X531133Y446333D01*
X529000Y444200D01*
X532200Y447400D02*
X529000D01*
Y448999D01*
X529533Y449533D01*
X531667D01*
X532200Y448999D01*
Y447400D01*
X522200Y441000D02*
Y443133D01*
Y442067D01*
X519000D01*
X521133Y444200D02*
X519000Y446333D01*
X520067Y445266D01*
X521133Y446333D01*
X519000Y444200D01*
X522200Y447400D02*
X519000D01*
Y448999D01*
X519533Y449533D01*
X521666D01*
X522200Y448999D01*
Y447400D01*
X489833Y500367D02*
X489300Y500900D01*
Y501967D01*
X489833Y502500D01*
X491967D01*
X492500Y501967D01*
Y500900D01*
X491967Y500367D01*
X489300Y499300D02*
X492500D01*
Y497167D01*
X489300Y496101D02*
X492500D01*
X491433D01*
X489300Y493967D01*
X490900Y495567D01*
X492500Y493967D01*
X502500Y503000D02*
X500367D01*
Y501400D01*
X500900Y500867D01*
X502500D01*
X499833Y497667D02*
X499300Y498200D01*
Y499267D01*
X499833Y499800D01*
X501967D01*
X502500Y499267D01*
Y498200D01*
X501967Y497667D01*
X499833Y494467D02*
X499300Y495001D01*
Y496067D01*
X499833Y496600D01*
X500367D01*
X500900Y496067D01*
Y495001D01*
X501433Y494467D01*
X501967D01*
X502500Y495001D01*
Y496067D01*
X501967Y496600D01*
X512500Y503000D02*
X509300D01*
X510367Y501933D01*
X509300Y500867D01*
X512500D01*
X509300Y498200D02*
Y499267D01*
X509833Y499800D01*
X511967D01*
X512500Y499267D01*
Y498200D01*
X511967Y497667D01*
X509833D01*
X509300Y498200D01*
X509833Y494467D02*
X509300Y495001D01*
Y496067D01*
X509833Y496600D01*
X510367D01*
X510900Y496067D01*
Y495001D01*
X511433Y494467D01*
X511967D01*
X512500Y495001D01*
Y496067D01*
X511967Y496600D01*
X509300Y493401D02*
Y492334D01*
Y492867D01*
X512500D01*
Y493401D01*
Y492334D01*
X522500Y503500D02*
X519300D01*
X520367Y502433D01*
X519300Y501367D01*
X522500D01*
X519300Y500300D02*
Y499234D01*
Y499767D01*
X522500D01*
Y500300D01*
Y499234D01*
X519834Y495501D02*
X519300Y496034D01*
Y497100D01*
X519834Y497634D01*
X520367D01*
X520900Y497100D01*
Y496034D01*
X521433Y495501D01*
X521967D01*
X522500Y496034D01*
Y497100D01*
X521967Y497634D01*
X519300Y492834D02*
Y493901D01*
X519834Y494434D01*
X521967D01*
X522500Y493901D01*
Y492834D01*
X521967Y492301D01*
X519834D01*
X519300Y492834D01*
X529834Y500367D02*
X529300Y500900D01*
Y501967D01*
X529834Y502500D01*
X531967D01*
X532500Y501967D01*
Y500900D01*
X531967Y500367D01*
X530900D01*
Y501433D01*
X532500Y499300D02*
X529300D01*
X532500Y497167D01*
X529300D01*
Y496101D02*
X532500D01*
Y494501D01*
X531967Y493967D01*
X529834D01*
X529300Y494501D01*
Y496101D01*
X539833Y503000D02*
X539300Y502467D01*
Y501400D01*
X539833Y500867D01*
X540367D01*
X540900Y501400D01*
Y501933D01*
Y501400D01*
X541433Y500867D01*
X541967D01*
X542500Y501400D01*
Y502467D01*
X541967Y503000D01*
X540367Y499800D02*
X542500Y498734D01*
X540367Y497667D01*
X539833Y496600D02*
X539300Y496067D01*
Y495001D01*
X539833Y494467D01*
X540367D01*
X540900Y495001D01*
Y495534D01*
Y495001D01*
X541433Y494467D01*
X541967D01*
X542500Y495001D01*
Y496067D01*
X541967Y496600D01*
X549300Y499367D02*
Y501500D01*
X550900D01*
X550367Y500433D01*
Y499900D01*
X550900Y499367D01*
X551967D01*
X552500Y499900D01*
Y500967D01*
X551967Y501500D01*
X550367Y498300D02*
X552500Y497234D01*
X550367Y496167D01*
D59*
X443500Y464999D02*
Y461800D01*
Y463400D01*
X442967Y463933D01*
X441900D01*
X441367Y463400D01*
Y461800D01*
X439768Y464466D02*
Y463933D01*
X440301D01*
X439235D01*
X439768D01*
Y462333D01*
X439235Y461800D01*
X437102Y464466D02*
Y463933D01*
X437635D01*
X436569D01*
X437102D01*
Y462333D01*
X436569Y461800D01*
X434969Y460734D02*
Y463933D01*
X433370D01*
X432837Y463400D01*
Y462333D01*
X433370Y461800D01*
X434969D01*
X431771D02*
X430171D01*
X429638Y462333D01*
X430171Y462866D01*
X431237D01*
X431771Y463400D01*
X431237Y463933D01*
X429638D01*
X428572D02*
X428038D01*
Y463400D01*
X428572D01*
Y463933D01*
Y462333D02*
X428038D01*
Y461800D01*
X428572D01*
Y462333D01*
X425906Y461800D02*
X423773Y463933D01*
X422707Y461800D02*
X420574Y463933D01*
X419508D02*
Y461800D01*
Y462866D01*
X418975Y463400D01*
X418441Y463933D01*
X417908D01*
X415776D02*
X414709D01*
X414176Y463400D01*
Y461800D01*
X415776D01*
X416309Y462333D01*
X415776Y462866D01*
X414176D01*
X413110Y461800D02*
Y463933D01*
X412577D01*
X412044Y463400D01*
Y461800D01*
Y463400D01*
X411510Y463933D01*
X410977Y463400D01*
Y461800D01*
X409378D02*
Y464466D01*
Y463400D01*
X409911D01*
X408845D01*
X409378D01*
Y464466D01*
X408845Y464999D01*
X406712Y463933D02*
X405646D01*
X405112Y463400D01*
Y461800D01*
X406712D01*
X407245Y462333D01*
X406712Y462866D01*
X405112D01*
X401913Y463933D02*
X403513D01*
X404046Y463400D01*
Y462333D01*
X403513Y461800D01*
X401913D01*
X400314Y464466D02*
Y463933D01*
X400847D01*
X399781D01*
X400314D01*
Y462333D01*
X399781Y461800D01*
X397648D02*
X396582D01*
X396049Y462333D01*
Y463400D01*
X396582Y463933D01*
X397648D01*
X398181Y463400D01*
Y462333D01*
X397648Y461800D01*
X394982Y463933D02*
Y461800D01*
Y462866D01*
X394449Y463400D01*
X393916Y463933D01*
X393383D01*
X391783D02*
Y462333D01*
X391250Y461800D01*
X389651D01*
Y461267D01*
X390184Y460734D01*
X390717D01*
X389651Y461800D02*
Y463933D01*
X388584Y461800D02*
Y462333D01*
X388051D01*
Y461800D01*
X388584D01*
X383786Y463933D02*
X385385D01*
X385919Y463400D01*
Y462333D01*
X385385Y461800D01*
X383786D01*
X382187D02*
X381120D01*
X380587Y462333D01*
Y463400D01*
X381120Y463933D01*
X382187D01*
X382720Y463400D01*
Y462333D01*
X382187Y461800D01*
X379521D02*
Y463933D01*
X378988D01*
X378454Y463400D01*
Y461800D01*
Y463400D01*
X377921Y463933D01*
X377388Y463400D01*
Y461800D01*
D60*
X459500Y470582D02*
D03*
M02*
