M48
;Layer_Color=9474304
;FILE_FORMAT=2:5
INCH,LZ
;TYPE=PLATED
T1F00S00C0.00984
T2F00S00C0.01575
T3F00S00C0.03543
T4F00S00C0.03622
T5F00S00C0.05118
%
T01
X0372Y0459
X0376264Y0458
X0379524Y0457717
X0382673
X03865Y0458
X039Y04585
X0436Y0458
X04405Y0461
X04325Y0464
X0478847Y0448846
X048Y0495
X04825Y0498
X0477Y0504
X04765Y05075
X0506Y05165
X04165Y04705
X0399Y0478437
X0368Y0493
X036Y05145
T02
X0339547Y0424347
X0346
X0352453
X0358906
X0365358
X0371811
X0378264
X0384717
X0391169
X0397622
X0404075
X0410528
X041698
X0423433
X0429886
X0436339
X0442791
X0449244
X0455697
X0462149
X0468602
X045424Y044124
X04365Y0468
X042Y04515
X0379Y04355
X0348252Y0438972
X0339547Y0437253
Y04308
Y0443706
Y0450158
Y0456611
Y0463064
X0475055Y0424347
X0481508
X048796
X0494413
X0500866
X0507319
X0513771
X0520224
X0526677
X053313
X0539582
X0546035
X0552488
X0558941
X0565393
X05745Y04255
X0582Y0428
X05885Y04315
X0594Y0436
X0599Y04415
X06035Y0448
X06065Y0455
X0608Y04625
X0608392Y0469154
Y0475
Y0480167
X0608Y04865
X06065Y04935
X0603Y05005
X05985Y05075
X05935Y0513
X0587Y05175
X05805Y05205
X0573Y0523
X0565393Y0523922
X0558941
X0552488
X0546035
X0539582
X053313
X0526677
X0520224
X0513771
X0507319
X0500866
X0494413
X048796
X0481508
X0475055
X04945Y04805
X04365Y04885
X0436339Y0523922
X0442791
X0449244
X0455697
X0462149
X0468602
X0429886
X0423433
X041698
X0410528
X0404075
X0397622
X0391169
X0384717
X0378264
X0371811
X0365358
X0358906
X0352453
X0346
X0339547
Y0514686
Y0508233
Y050178
Y0495328
Y0488875
Y0482422
Y0475969
Y0469517
X03815Y04835
X03725Y05025
X03945
X04Y05035
T03
X04905Y0436
X05005
X05105
X05205
X05305
X05405
X05505
X0551Y0508
X0541
X0531
X0521
X0511
X0501
X0491
T04
X03595Y0460355
Y0470198
Y0478072
Y0487914
T05
X0491Y0458075
X0501
X0511
X0521
X0531
X0541
X0551
X0561
Y0488075
X0551
X0541
X0531
X0521
X0511
X0501
X0491
M30
