G04 Layer_Physical_Order=2*
G04 Layer_Color=16711680*
%FSLAX25Y25*%
%MOIN*%
G70*
G01*
G75*
%ADD10C,0.03937*%
%ADD12C,0.00787*%
%ADD13C,0.01000*%
%ADD14C,0.05905*%
%ADD29C,0.07874*%
%ADD30C,0.06299*%
%ADD31R,0.06299X0.06299*%
%ADD32O,0.14961X0.11024*%
%ADD33C,0.05905*%
%ADD34R,0.05905X0.05905*%
%ADD35C,0.03150*%
%ADD36C,0.01968*%
G36*
X565591Y526739D02*
X565591Y526739D01*
X566374Y526728D01*
X569575Y526588D01*
X573522Y526069D01*
X577408Y525207D01*
X581205Y524010D01*
X584883Y522486D01*
X588415Y520648D01*
X591772Y518509D01*
X594931Y516085D01*
X597866Y513396D01*
X600555Y510461D01*
X602979Y507302D01*
X605118Y503945D01*
X606956Y500413D01*
X608480Y496735D01*
X609677Y492939D01*
X610539Y489052D01*
X611058Y485105D01*
X611231Y481156D01*
X611209Y481134D01*
X611209D01*
X611317Y480589D01*
Y467920D01*
X611261Y467430D01*
X611209Y467170D01*
X611209Y467169D01*
X611199Y466386D01*
X611058Y463165D01*
X610539Y459218D01*
X609677Y455331D01*
X608480Y451534D01*
X606956Y447856D01*
X605118Y444325D01*
X602979Y440967D01*
X600555Y437809D01*
X597866Y434873D01*
X594931Y432184D01*
X591772Y429760D01*
X588415Y427621D01*
X584883Y425783D01*
X581205Y424260D01*
X577409Y423062D01*
X573522Y422201D01*
X569575Y421681D01*
X566406Y421543D01*
X565624Y421530D01*
D01*
X564882Y421422D01*
X336622D01*
Y526848D01*
X565046D01*
X565591Y526739D01*
D02*
G37*
%LPC*%
G36*
X348252Y441967D02*
X347477Y441864D01*
X346755Y441565D01*
X346135Y441090D01*
X345659Y440470D01*
X345360Y439747D01*
X345258Y438972D01*
X345252D01*
X345377Y437710D01*
X345745Y436496D01*
X346343Y435377D01*
X347148Y434396D01*
X348129Y433591D01*
X349248Y432993D01*
X350462Y432625D01*
X351724Y432500D01*
Y432506D01*
X379000D01*
X379775Y432608D01*
X380497Y432907D01*
X381117Y433383D01*
X381593Y434003D01*
X381892Y434725D01*
X381994Y435500D01*
X381892Y436275D01*
X381593Y436997D01*
X381117Y437617D01*
X380497Y438093D01*
X379775Y438392D01*
X379000Y438494D01*
X351835D01*
X351465Y438795D01*
X351234Y439062D01*
X351144Y439747D01*
X350845Y440470D01*
X350369Y441090D01*
X349749Y441565D01*
X349027Y441864D01*
X348252Y441967D01*
D02*
G37*
G36*
X541000Y511987D02*
X539968Y511851D01*
X539007Y511453D01*
X538181Y510819D01*
X537547Y509993D01*
X537149Y509032D01*
X537013Y508000D01*
X537149Y506968D01*
X537547Y506007D01*
X538181Y505181D01*
X539007Y504547D01*
X539968Y504149D01*
X541000Y504013D01*
X542032Y504149D01*
X542993Y504547D01*
X543819Y505181D01*
X544453Y506007D01*
X544851Y506968D01*
X544987Y508000D01*
X544851Y509032D01*
X544453Y509993D01*
X543819Y510819D01*
X542993Y511453D01*
X542032Y511851D01*
X541000Y511987D01*
D02*
G37*
G36*
X550500Y439987D02*
X549468Y439851D01*
X548507Y439453D01*
X547681Y438819D01*
X547047Y437993D01*
X546649Y437032D01*
X546513Y436000D01*
X546649Y434968D01*
X547047Y434007D01*
X547681Y433181D01*
X548507Y432547D01*
X549468Y432149D01*
X550500Y432013D01*
X551532Y432149D01*
X552493Y432547D01*
X553319Y433181D01*
X553953Y434007D01*
X554351Y434968D01*
X554487Y436000D01*
X554351Y437032D01*
X553953Y437993D01*
X553319Y438819D01*
X552493Y439453D01*
X551532Y439851D01*
X550500Y439987D01*
D02*
G37*
G36*
X506000Y518523D02*
X505226Y518369D01*
X504569Y517931D01*
X504563Y517921D01*
X486000D01*
Y517926D01*
X484369Y517798D01*
X482778Y517416D01*
X481267Y516789D01*
X479872Y515935D01*
X478628Y514872D01*
X477565Y513628D01*
X476711Y512233D01*
X476084Y510722D01*
X475761Y509376D01*
X475726Y509369D01*
X475069Y508931D01*
X474631Y508274D01*
X474477Y507500D01*
X474631Y506726D01*
X475069Y506069D01*
X475105Y506045D01*
X475569Y505431D01*
X475131Y504774D01*
X474977Y504000D01*
X475113Y503317D01*
X475062Y503126D01*
X474649Y502529D01*
X403236D01*
X403149Y502565D01*
X402573Y503317D01*
X402597Y503500D01*
X402508Y504172D01*
X402249Y504799D01*
X401836Y505336D01*
X401299Y505749D01*
X400672Y506008D01*
X400000Y506097D01*
X399328Y506008D01*
X398702Y505749D01*
X398164Y505336D01*
X397751Y504799D01*
X397653Y504561D01*
X396764Y504426D01*
X396617Y504617D01*
X395997Y505093D01*
X395275Y505392D01*
X394500Y505494D01*
X372500D01*
Y505497D01*
X371625Y505382D01*
X370809Y505044D01*
X370208Y504584D01*
X369813Y504678D01*
X369421Y504904D01*
Y506500D01*
X369439D01*
X369258Y508342D01*
X368721Y510112D01*
X367848Y511744D01*
X366674Y513174D01*
X365244Y514348D01*
X363612Y515221D01*
X361842Y515758D01*
X361600Y515782D01*
X361599Y515782D01*
X361566Y515792D01*
X361542Y515802D01*
X361524Y515810D01*
X361514Y515816D01*
X361510Y515818D01*
X361495Y515834D01*
X361431Y515931D01*
X360774Y516369D01*
X360000Y516523D01*
X359226Y516369D01*
X358569Y515931D01*
X358131Y515274D01*
X357977Y514500D01*
X358131Y513726D01*
X358569Y513069D01*
X359226Y512631D01*
X360000Y512477D01*
X360774Y512631D01*
X361267Y512960D01*
X361271Y512962D01*
X361294Y512959D01*
X362521Y512586D01*
X363660Y511978D01*
X364658Y511158D01*
X365478Y510160D01*
X366087Y509021D01*
X366461Y507785D01*
X366585Y506530D01*
X366579Y506500D01*
Y494437D01*
X366569Y494431D01*
X366131Y493774D01*
X365977Y493000D01*
X366131Y492226D01*
X366485Y491696D01*
X366472Y491565D01*
X366368Y491270D01*
X366130Y490917D01*
X365224Y490947D01*
X364698Y491000D01*
X364256Y491070D01*
X363917Y491152D01*
X363690Y491235D01*
X363650Y491257D01*
Y492064D01*
X362676D01*
X362638Y492071D01*
X362599Y492064D01*
X355350D01*
Y483765D01*
X362599D01*
X362638Y483757D01*
X362676Y483765D01*
X363650D01*
Y484571D01*
X363690Y484593D01*
X363917Y484676D01*
X364256Y484758D01*
X364685Y484827D01*
X365872Y484915D01*
X366198Y484920D01*
X367777D01*
Y484910D01*
X369209Y485051D01*
X370586Y485469D01*
X371856Y486148D01*
X372969Y487061D01*
X373882Y488173D01*
X374560Y489443D01*
X374978Y490820D01*
X375119Y492253D01*
X375109D01*
Y499506D01*
X394500D01*
X395275Y499608D01*
X395997Y499907D01*
X396617Y500383D01*
X397093Y501003D01*
X397298Y501498D01*
X397966Y501679D01*
X398164Y501664D01*
X398702Y501251D01*
X399328Y500991D01*
X399389Y500983D01*
X399647Y500647D01*
X400483Y500006D01*
X401456Y499603D01*
X402500Y499466D01*
Y499471D01*
X472862D01*
X473018Y498683D01*
X471811Y498183D01*
X470282Y497246D01*
X468919Y496081D01*
X467754Y494718D01*
X466817Y493189D01*
X466130Y491532D01*
X465712Y489788D01*
X465571Y488000D01*
X465571D01*
X465569Y487213D01*
X465433Y485823D01*
X464943Y484210D01*
X464149Y482723D01*
X463080Y481421D01*
X461777Y480351D01*
X460290Y479557D01*
X458677Y479068D01*
X457063Y478908D01*
X457000Y478921D01*
X437500D01*
Y478942D01*
X435561Y478751D01*
X433696Y478185D01*
X431977Y477266D01*
X430470Y476030D01*
X429234Y474523D01*
X428315Y472804D01*
X427749Y470939D01*
X427558Y469000D01*
X427056Y468421D01*
X427038Y468413D01*
X427000Y468421D01*
X418372D01*
X418182Y468700D01*
X418023Y469208D01*
X418369Y469726D01*
X418523Y470500D01*
X418369Y471274D01*
X417931Y471931D01*
X417921Y471937D01*
Y474000D01*
X417927D01*
X417793Y475709D01*
X417393Y477377D01*
X416736Y478961D01*
X415840Y480423D01*
X414727Y481727D01*
X413423Y482840D01*
X411961Y483736D01*
X410377Y484393D01*
X409019Y484719D01*
X409112Y485506D01*
X436500D01*
X437275Y485608D01*
X437997Y485907D01*
X438617Y486383D01*
X439093Y487003D01*
X439392Y487725D01*
X439494Y488500D01*
X439392Y489275D01*
X439093Y489997D01*
X438617Y490617D01*
X437997Y491093D01*
X437275Y491392D01*
X436500Y491494D01*
X386500D01*
Y491507D01*
X384938Y491353D01*
X383436Y490898D01*
X382051Y490158D01*
X380838Y489162D01*
X379842Y487949D01*
X379102Y486564D01*
X378647Y485062D01*
X378493Y483500D01*
X378506D01*
X378608Y482725D01*
X378907Y482003D01*
X379383Y481383D01*
X380003Y480907D01*
X380725Y480608D01*
X381500Y480506D01*
X382275Y480608D01*
X382997Y480907D01*
X383617Y481383D01*
X384093Y482003D01*
X384392Y482725D01*
X384494Y483500D01*
X384494D01*
X384483Y483514D01*
X384633Y484273D01*
X385071Y484929D01*
X385727Y485366D01*
X386456Y485512D01*
X386500Y485506D01*
X394460D01*
X394589Y484750D01*
X392717Y484182D01*
X390992Y483260D01*
X389480Y482020D01*
X389480Y482020D01*
X388909Y481499D01*
X388206Y480923D01*
X386720Y480128D01*
X385107Y479639D01*
X383493Y479480D01*
X383430Y479493D01*
X364474D01*
X364391Y479513D01*
X364261Y479563D01*
X364090Y479648D01*
X363886Y479772D01*
X363670Y479923D01*
X362789Y480682D01*
X362534Y480934D01*
X362459Y481031D01*
X361593Y481696D01*
X360583Y482115D01*
X359500Y482257D01*
X358417Y482115D01*
X357407Y481696D01*
X356540Y481031D01*
X355875Y480164D01*
X355457Y479155D01*
X355315Y478072D01*
X355457Y476988D01*
X355875Y475979D01*
X356540Y475112D01*
X357215Y474595D01*
X357283Y474320D01*
Y473949D01*
X357215Y473674D01*
X356540Y473157D01*
X355875Y472290D01*
X355457Y471281D01*
X355315Y470198D01*
X355457Y469114D01*
X355875Y468105D01*
X356540Y467238D01*
X357407Y466573D01*
X358417Y466155D01*
X359500Y466012D01*
X360583Y466155D01*
X361593Y466573D01*
X362459Y467238D01*
X362534Y467335D01*
X362796Y467595D01*
X363399Y468135D01*
X363651Y468333D01*
X363886Y468497D01*
X364090Y468621D01*
X364261Y468707D01*
X364391Y468756D01*
X364474Y468777D01*
X379291D01*
X379408Y467989D01*
X379113Y467900D01*
X377915Y467260D01*
X376866Y466398D01*
X376004Y465348D01*
X375364Y464151D01*
X374970Y462851D01*
X374837Y461500D01*
X374843D01*
Y460110D01*
X374634Y459939D01*
X374522Y459915D01*
X373629Y460133D01*
X373431Y460431D01*
X372774Y460869D01*
X372000Y461023D01*
X371226Y460869D01*
X370569Y460431D01*
X370131Y459774D01*
X369977Y459000D01*
X370131Y458226D01*
X370569Y457569D01*
X370579Y457563D01*
Y456750D01*
X370574D01*
X370702Y455448D01*
X371082Y454195D01*
X371699Y453041D01*
X372530Y452030D01*
X373541Y451199D01*
X374695Y450582D01*
X375948Y450202D01*
X377250Y450074D01*
Y450079D01*
X378500D01*
Y450058D01*
X379953Y450250D01*
X381308Y450810D01*
X382470Y451703D01*
X383363Y452866D01*
X383924Y454220D01*
X384115Y455673D01*
X384115Y455673D01*
X384126Y455777D01*
X384406Y455919D01*
X385079Y455516D01*
Y446000D01*
X385071D01*
X385212Y444212D01*
X385630Y442468D01*
X386317Y440811D01*
X387254Y439282D01*
X388419Y437919D01*
X389782Y436754D01*
X391311Y435817D01*
X392968Y435130D01*
X394712Y434712D01*
X396500Y434571D01*
Y434579D01*
X486547D01*
Y432047D01*
X494453D01*
Y439953D01*
X486547D01*
Y437421D01*
X396500D01*
X396437Y437408D01*
X394823Y437568D01*
X393210Y438057D01*
X391723Y438851D01*
X390421Y439921D01*
X389351Y441223D01*
X388557Y442710D01*
X388068Y444323D01*
X387909Y445937D01*
X387921Y446000D01*
Y456563D01*
X387931Y456569D01*
X387955Y456605D01*
X388569Y457069D01*
X389226Y456631D01*
X390000Y456477D01*
X390774Y456631D01*
X391431Y457069D01*
X391437Y457079D01*
X427000D01*
Y457073D01*
X428351Y457206D01*
X429651Y457600D01*
X430849Y458240D01*
X431898Y459102D01*
X432760Y460151D01*
X433400Y461349D01*
X433634Y462119D01*
X433671Y462188D01*
X433720Y462345D01*
X433731Y462373D01*
X433745Y462404D01*
X433757Y462426D01*
X433766Y462442D01*
X433773Y462451D01*
X433775Y462453D01*
X433801Y462476D01*
X433811Y462489D01*
X433931Y462569D01*
X434369Y463226D01*
X434523Y464000D01*
X434369Y464774D01*
X434195Y465034D01*
X434778Y465580D01*
X435003Y465407D01*
X435725Y465108D01*
X436500Y465006D01*
X462358D01*
Y464991D01*
X464393Y465152D01*
X466378Y465628D01*
X468264Y466409D01*
X470004Y467476D01*
X471556Y468801D01*
X471546Y468812D01*
X478188Y475454D01*
X478213Y475487D01*
X479245Y476333D01*
X480457Y476981D01*
X481774Y477381D01*
X483101Y477511D01*
X483142Y477506D01*
X494500D01*
X495275Y477608D01*
X495997Y477907D01*
X496617Y478383D01*
X497093Y479003D01*
X497392Y479725D01*
X497494Y480500D01*
X497392Y481275D01*
X497093Y481997D01*
X496617Y482617D01*
X495997Y483093D01*
X495275Y483392D01*
X494500Y483494D01*
X483142D01*
Y483509D01*
X481107Y483348D01*
X479122Y482872D01*
X477236Y482091D01*
X475496Y481024D01*
X473944Y479699D01*
X473954Y479688D01*
X473954Y479688D01*
X467312Y473046D01*
X467287Y473013D01*
X466255Y472167D01*
X465042Y471519D01*
X463727Y471119D01*
X462399Y470989D01*
X462358Y470994D01*
X436500D01*
X435725Y470892D01*
X435003Y470593D01*
X434641Y470315D01*
X433870Y470591D01*
X433823Y470634D01*
X433805Y470839D01*
X434394Y471606D01*
X435450Y472417D01*
X436680Y472926D01*
X437937Y473092D01*
X438000Y473079D01*
X460500D01*
Y473071D01*
X462288Y473212D01*
X464032Y473630D01*
X465689Y474317D01*
X467218Y475254D01*
X468581Y476418D01*
X469746Y477782D01*
X470683Y479311D01*
X471370Y480968D01*
X471788Y482712D01*
X471929Y484500D01*
X471921D01*
Y489500D01*
X471914Y489537D01*
X472048Y490559D01*
X472457Y491546D01*
X473107Y492393D01*
X473954Y493043D01*
X474941Y493452D01*
X475963Y493586D01*
X476000Y493579D01*
X478563D01*
X478569Y493569D01*
X479226Y493131D01*
X480000Y492977D01*
X480774Y493131D01*
X481431Y493569D01*
X481437Y493579D01*
X499329D01*
X499486Y492792D01*
X498510Y492387D01*
X497479Y491596D01*
X496688Y490565D01*
X496190Y489364D01*
X496020Y488075D01*
X496190Y486786D01*
X496688Y485585D01*
X497479Y484554D01*
X497618Y484447D01*
X497960Y484104D01*
X498332Y483706D01*
X498952Y482969D01*
X499172Y482666D01*
X499346Y482391D01*
X499469Y482159D01*
X499544Y481977D01*
X499576Y481855D01*
X499579Y481825D01*
Y473500D01*
X499584Y473476D01*
X499465Y472572D01*
X499106Y471706D01*
X498536Y470964D01*
X497793Y470394D01*
X496928Y470035D01*
X496024Y469916D01*
X496000Y469921D01*
X488846D01*
Y469929D01*
X487059Y469788D01*
X485315Y469370D01*
X483658Y468683D01*
X482129Y467746D01*
X480765Y466581D01*
X479600Y465218D01*
X478663Y463689D01*
X477977Y462032D01*
X477558Y460288D01*
X477418Y458500D01*
X477425D01*
Y450283D01*
X477416Y450277D01*
X476977Y449621D01*
X476823Y448846D01*
X476886Y448531D01*
X476672Y448094D01*
X476310Y447783D01*
X476294Y447777D01*
X475893Y447856D01*
X475378Y448200D01*
X475034Y448715D01*
X474917Y449303D01*
X474921Y449322D01*
Y451000D01*
X474929D01*
X474788Y452788D01*
X474370Y454532D01*
X473683Y456189D01*
X472746Y457718D01*
X471582Y459082D01*
X470218Y460246D01*
X468689Y461183D01*
X467032Y461870D01*
X465288Y462288D01*
X463500Y462429D01*
Y462421D01*
X441937D01*
X441931Y462431D01*
X441274Y462869D01*
X440500Y463023D01*
X439726Y462869D01*
X439069Y462431D01*
X438631Y461774D01*
X438477Y461000D01*
X438631Y460226D01*
X438643Y460208D01*
X438222Y459421D01*
X437437D01*
X437431Y459431D01*
X436774Y459869D01*
X436000Y460023D01*
X435226Y459869D01*
X434569Y459431D01*
X434131Y458774D01*
X433977Y458000D01*
X434131Y457226D01*
X434569Y456569D01*
X435226Y456131D01*
X436000Y455977D01*
X436774Y456131D01*
X437431Y456569D01*
X437437Y456579D01*
X463000D01*
X463022Y456583D01*
X464187Y456469D01*
X465329Y456122D01*
X466381Y455560D01*
X467303Y454803D01*
X468060Y453881D01*
X468622Y452829D01*
X468969Y451687D01*
X469010Y451263D01*
X469070Y450500D01*
X469070D01*
X469213Y449051D01*
X469636Y447657D01*
X470323Y446372D01*
X471247Y445247D01*
X472372Y444323D01*
X473657Y443636D01*
X475051Y443213D01*
X476500Y443071D01*
Y443079D01*
X512000D01*
X512039Y443087D01*
X513383Y442954D01*
X514713Y442551D01*
X515939Y441895D01*
X517014Y441014D01*
X517896Y439939D01*
X517956Y439825D01*
X517959Y439815D01*
X517964Y439768D01*
X517958Y439678D01*
X517931Y439544D01*
X517873Y439367D01*
X517780Y439151D01*
X517649Y438900D01*
X517478Y438619D01*
X517255Y438291D01*
X517230Y438232D01*
X517047Y437993D01*
X516649Y437032D01*
X516513Y436000D01*
X516649Y434968D01*
X517047Y434007D01*
X517681Y433181D01*
X518507Y432547D01*
X519468Y432149D01*
X520500Y432013D01*
X521532Y432149D01*
X522493Y432547D01*
X523319Y433181D01*
X523953Y434007D01*
X524351Y434968D01*
X524487Y436000D01*
X524351Y437032D01*
X523953Y437993D01*
X523319Y438819D01*
X522825Y439198D01*
X522763Y439265D01*
X521655Y440058D01*
X521123Y440479D01*
X520738Y440825D01*
X520622Y440944D01*
X520547Y441034D01*
X520480Y441130D01*
X520472Y441139D01*
X520266Y441523D01*
X519030Y443030D01*
X517709Y444114D01*
X517935Y444901D01*
X520500D01*
X520563Y444914D01*
X522177Y444755D01*
X523790Y444266D01*
X525277Y443471D01*
X526580Y442402D01*
X527649Y441099D01*
X528229Y440013D01*
X528229Y439970D01*
X528212Y439868D01*
X528170Y439722D01*
X528094Y439538D01*
X527988Y439332D01*
X527628Y438780D01*
X527392Y438473D01*
X527349Y438386D01*
X527047Y437993D01*
X526649Y437032D01*
X526513Y436000D01*
X526649Y434968D01*
X527047Y434007D01*
X527681Y433181D01*
X528507Y432547D01*
X529468Y432149D01*
X530500Y432013D01*
X531532Y432149D01*
X532493Y432547D01*
X533319Y433181D01*
X533953Y434007D01*
X534351Y434968D01*
X534487Y436000D01*
X534351Y437032D01*
X533953Y437993D01*
X533319Y438819D01*
X533000Y439064D01*
X532941Y439134D01*
X532221Y439709D01*
X531656Y440198D01*
X531233Y440611D01*
X531090Y440769D01*
X530983Y440902D01*
X530919Y440996D01*
X530861Y441103D01*
X530853Y441113D01*
X530849Y441125D01*
X530837Y441139D01*
X530683Y441511D01*
X529746Y443040D01*
X528581Y444404D01*
X527218Y445569D01*
X525689Y446506D01*
X524032Y447192D01*
X522288Y447611D01*
X520500Y447751D01*
Y447743D01*
X481371D01*
X480807Y448531D01*
X480870Y448846D01*
X480716Y449621D01*
X480277Y450277D01*
X480267Y450283D01*
Y458500D01*
X480255Y458563D01*
X480414Y460177D01*
X480903Y461790D01*
X481698Y463277D01*
X482767Y464579D01*
X484070Y465649D01*
X485556Y466443D01*
X487169Y466932D01*
X488784Y467092D01*
X488846Y467079D01*
X496000D01*
Y467075D01*
X497253Y467199D01*
X498459Y467564D01*
X499569Y468158D01*
X500543Y468957D01*
X501342Y469931D01*
X501936Y471041D01*
X502301Y472247D01*
X502425Y473500D01*
X502421D01*
Y481825D01*
X502424Y481855D01*
X502457Y481977D01*
X502531Y482159D01*
X502654Y482391D01*
X502828Y482666D01*
X503042Y482961D01*
X504053Y484116D01*
X504382Y484447D01*
X504521Y484554D01*
X505312Y485585D01*
X505574Y486216D01*
X506426D01*
X506687Y485585D01*
X507479Y484554D01*
X508510Y483763D01*
X509711Y483265D01*
X511000Y483095D01*
X512289Y483265D01*
X513490Y483763D01*
X514521Y484554D01*
X515312Y485585D01*
X515574Y486216D01*
X516426D01*
X516687Y485585D01*
X517479Y484554D01*
X517578Y484478D01*
X517588Y484467D01*
X517652Y484373D01*
X517719Y484244D01*
X517786Y484078D01*
X517849Y483874D01*
X517904Y483632D01*
X517948Y483364D01*
X518005Y482675D01*
X518006Y482618D01*
Y463710D01*
X517982Y463102D01*
X517950Y462798D01*
X517904Y462518D01*
X517849Y462276D01*
X517786Y462072D01*
X517719Y461906D01*
X517652Y461777D01*
X517588Y461683D01*
X517578Y461672D01*
X517479Y461596D01*
X516687Y460565D01*
X516426Y459934D01*
X515574D01*
X515312Y460565D01*
X514521Y461596D01*
X513490Y462388D01*
X512289Y462885D01*
X511000Y463055D01*
X509711Y462885D01*
X508510Y462388D01*
X507479Y461596D01*
X506687Y460565D01*
X506426Y459934D01*
X505574D01*
X505312Y460565D01*
X504521Y461596D01*
X503490Y462388D01*
X502289Y462885D01*
X501000Y463055D01*
X499711Y462885D01*
X498510Y462388D01*
X497479Y461596D01*
X496688Y460565D01*
X496426Y459934D01*
X495574D01*
X495312Y460565D01*
X494521Y461596D01*
X493490Y462388D01*
X492289Y462885D01*
X491000Y463055D01*
X489711Y462885D01*
X488510Y462388D01*
X487479Y461596D01*
X486688Y460565D01*
X486190Y459364D01*
X486020Y458075D01*
X486190Y456786D01*
X486688Y455585D01*
X487479Y454554D01*
X488510Y453762D01*
X489711Y453265D01*
X491000Y453095D01*
X492289Y453265D01*
X493490Y453762D01*
X494521Y454554D01*
X495312Y455585D01*
X495574Y456216D01*
X496426D01*
X496688Y455585D01*
X497479Y454554D01*
X498510Y453762D01*
X499711Y453265D01*
X501000Y453095D01*
X502289Y453265D01*
X503490Y453762D01*
X504521Y454554D01*
X505312Y455585D01*
X505574Y456216D01*
X506426D01*
X506687Y455585D01*
X507479Y454554D01*
X508510Y453762D01*
X509711Y453265D01*
X511000Y453095D01*
X512289Y453265D01*
X513490Y453762D01*
X514521Y454554D01*
X515312Y455585D01*
X515574Y456216D01*
X516426D01*
X516687Y455585D01*
X517479Y454554D01*
X518510Y453762D01*
X519129Y453506D01*
X519684Y452468D01*
X520939Y450939D01*
X522468Y449684D01*
X524213Y448751D01*
X526106Y448177D01*
X528075Y447983D01*
Y448006D01*
X553925D01*
Y447983D01*
X555894Y448177D01*
X557787Y448751D01*
X559532Y449684D01*
X561061Y450939D01*
X562316Y452468D01*
X562871Y453506D01*
X563490Y453762D01*
X564521Y454554D01*
X565312Y455585D01*
X565810Y456786D01*
X565980Y458075D01*
X565810Y459364D01*
X565312Y460565D01*
X564521Y461596D01*
X563490Y462388D01*
X562289Y462885D01*
X561000Y463055D01*
X559711Y462885D01*
X558510Y462388D01*
X557479Y461596D01*
X556687Y460565D01*
X556190Y459364D01*
X556020Y458075D01*
X556190Y456786D01*
X556687Y455585D01*
X556908Y455298D01*
X556818Y455182D01*
X555971Y454532D01*
X554984Y454123D01*
X553965Y453989D01*
X553925Y453994D01*
X545007D01*
X544696Y454781D01*
X545312Y455585D01*
X545810Y456786D01*
X545980Y458075D01*
X545810Y459364D01*
X545312Y460565D01*
X544521Y461596D01*
X544382Y461702D01*
X544040Y462046D01*
X543668Y462444D01*
X543048Y463181D01*
X542828Y463484D01*
X542654Y463759D01*
X542531Y463991D01*
X542456Y464173D01*
X542424Y464295D01*
X542421Y464325D01*
Y468858D01*
X542429D01*
X542288Y470646D01*
X541870Y472390D01*
X541183Y474047D01*
X540246Y475576D01*
X539081Y476939D01*
X539081Y476939D01*
X538579Y477519D01*
X538150Y478042D01*
X537469Y479316D01*
X537050Y480698D01*
X536912Y482093D01*
X536921Y482136D01*
Y491500D01*
X536932D01*
X536779Y493047D01*
X536328Y494535D01*
X535595Y495907D01*
X534609Y497109D01*
X533407Y498095D01*
X532306Y498683D01*
X532504Y499471D01*
X546000D01*
Y499469D01*
X547274Y499594D01*
X548499Y499966D01*
X549163Y500320D01*
X549206Y500329D01*
X549314Y500401D01*
X549629Y500569D01*
X550618Y501382D01*
X551431Y502371D01*
X551885Y503220D01*
X551916Y503262D01*
X552010Y503452D01*
X552099Y503608D01*
X552196Y503758D01*
X552302Y503902D01*
X552417Y504040D01*
X552541Y504173D01*
X552676Y504301D01*
X552821Y504424D01*
X552973Y504539D01*
X552993Y504547D01*
X553061Y504599D01*
X553168Y504671D01*
X553206Y504710D01*
X553257Y504749D01*
X553293Y504772D01*
X553302Y504784D01*
X553819Y505181D01*
X554453Y506007D01*
X554851Y506968D01*
X554987Y508000D01*
X554851Y509032D01*
X554453Y509993D01*
X553819Y510819D01*
X552993Y511453D01*
X552032Y511851D01*
X551000Y511987D01*
X549968Y511851D01*
X549007Y511453D01*
X548181Y510819D01*
X547547Y509993D01*
X547149Y509032D01*
X547013Y508000D01*
X547149Y506968D01*
X547547Y506007D01*
X548181Y505181D01*
X548503Y504934D01*
X548511Y504920D01*
X548572Y504877D01*
X548620Y504820D01*
X548808Y504671D01*
X548924Y504561D01*
X548999Y504472D01*
X549040Y504409D01*
X549055Y504375D01*
X549057Y504366D01*
X549057Y504366D01*
X549017Y504268D01*
X549012Y504258D01*
X548461Y503539D01*
X547818Y503047D01*
X547740Y502986D01*
X546901Y502639D01*
X546028Y502524D01*
X546000Y502529D01*
X480628D01*
X480431Y503317D01*
X481069Y503658D01*
X482043Y504457D01*
X482842Y505431D01*
X483436Y506541D01*
X483801Y507747D01*
X483925Y509000D01*
X483925D01*
X484016Y509750D01*
X484022Y509798D01*
X484330Y510541D01*
X484820Y511180D01*
X485459Y511670D01*
X486202Y511978D01*
X486274Y511987D01*
X487047Y511295D01*
Y504047D01*
X494953D01*
Y511292D01*
X494953Y511953D01*
X495688Y512079D01*
X498533D01*
X498797Y511292D01*
X498181Y510819D01*
X497547Y509993D01*
X497149Y509032D01*
X497013Y508000D01*
X497149Y506968D01*
X497547Y506007D01*
X498181Y505181D01*
X499007Y504547D01*
X499968Y504149D01*
X501000Y504013D01*
X502032Y504149D01*
X502993Y504547D01*
X503819Y505181D01*
X504453Y506007D01*
X504851Y506968D01*
X504987Y508000D01*
X504851Y509032D01*
X504453Y509993D01*
X503819Y510819D01*
X503203Y511292D01*
X503467Y512079D01*
X505500D01*
X505537Y512086D01*
X506559Y511952D01*
X507546Y511543D01*
X508015Y511183D01*
X508015Y511123D01*
X507994Y510989D01*
X507943Y510802D01*
X507855Y510569D01*
X507727Y510296D01*
X507602Y510065D01*
X507547Y509993D01*
X507149Y509032D01*
X507013Y508000D01*
X507149Y506968D01*
X507547Y506007D01*
X508181Y505181D01*
X509007Y504547D01*
X509968Y504149D01*
X511000Y504013D01*
X512032Y504149D01*
X512993Y504547D01*
X513819Y505181D01*
X514453Y506007D01*
X514851Y506968D01*
X514987Y508000D01*
X514851Y509032D01*
X514453Y509993D01*
X513819Y510819D01*
X512993Y511453D01*
X512877Y511501D01*
X512420Y511748D01*
X510706Y512725D01*
X510345Y512958D01*
X510255Y513024D01*
X510182Y513085D01*
X510149Y513103D01*
X509348Y513760D01*
X508353Y514292D01*
X508551Y515079D01*
X512500D01*
X512538Y515087D01*
X513883Y514954D01*
X515213Y514551D01*
X516439Y513896D01*
X517514Y513014D01*
X518396Y511939D01*
X518456Y511825D01*
X518460Y511815D01*
X518464Y511767D01*
X518458Y511679D01*
X518431Y511544D01*
X518373Y511367D01*
X518280Y511151D01*
X518149Y510900D01*
X517978Y510619D01*
X517755Y510291D01*
X517730Y510232D01*
X517547Y509993D01*
X517149Y509032D01*
X517013Y508000D01*
X517149Y506968D01*
X517547Y506007D01*
X518181Y505181D01*
X519007Y504547D01*
X519968Y504149D01*
X521000Y504013D01*
X522032Y504149D01*
X522993Y504547D01*
X523819Y505181D01*
X524453Y506007D01*
X524851Y506968D01*
X524987Y508000D01*
X524851Y509032D01*
X524453Y509993D01*
X523819Y510819D01*
X523325Y511198D01*
X523263Y511265D01*
X522155Y512058D01*
X521623Y512479D01*
X521238Y512825D01*
X521122Y512944D01*
X521047Y513033D01*
X520980Y513130D01*
X520972Y513139D01*
X520766Y513523D01*
X519530Y515030D01*
X518023Y516266D01*
X516304Y517185D01*
X514439Y517751D01*
X512500Y517942D01*
Y517921D01*
X507437D01*
X507431Y517931D01*
X506774Y518369D01*
X506000Y518523D01*
D02*
G37*
G36*
X510500Y439987D02*
X509468Y439851D01*
X508507Y439453D01*
X507681Y438819D01*
X507047Y437993D01*
X506649Y437032D01*
X506513Y436000D01*
X506649Y434968D01*
X507047Y434007D01*
X507681Y433181D01*
X508507Y432547D01*
X509468Y432149D01*
X510500Y432013D01*
X511532Y432149D01*
X512493Y432547D01*
X513319Y433181D01*
X513953Y434007D01*
X514351Y434968D01*
X514487Y436000D01*
X514351Y437032D01*
X513953Y437993D01*
X513319Y438819D01*
X512493Y439453D01*
X511532Y439851D01*
X510500Y439987D01*
D02*
G37*
%LPD*%
G36*
X376660Y459395D02*
X376669Y459301D01*
X376684Y459211D01*
X376705Y459126D01*
X376731Y459045D01*
X376764Y458968D01*
X376802Y458895D01*
X376847Y458827D01*
X376897Y458763D01*
X376953Y458703D01*
X375575D01*
X375631Y458763D01*
X375681Y458827D01*
X375725Y458895D01*
X375764Y458968D01*
X375796Y459045D01*
X375823Y459126D01*
X375844Y459211D01*
X375858Y459301D01*
X375867Y459395D01*
X375870Y459493D01*
X376658D01*
X376660Y459395D01*
D02*
G37*
G36*
X530320Y496426D02*
X531550Y495917D01*
X532606Y495106D01*
X533417Y494050D01*
X533926Y492820D01*
X534092Y491563D01*
X534079Y491500D01*
Y482136D01*
X534057D01*
X534254Y480142D01*
X534835Y478225D01*
X535780Y476458D01*
X537051Y474909D01*
X537051Y474909D01*
X537572Y474337D01*
X538149Y473634D01*
X538943Y472148D01*
X539432Y470535D01*
X539592Y468921D01*
X539579Y468858D01*
Y464325D01*
X539576Y464295D01*
X539543Y464173D01*
X539469Y463991D01*
X539346Y463759D01*
X539172Y463484D01*
X538958Y463189D01*
X537947Y462034D01*
X537618Y461702D01*
X537479Y461596D01*
X536688Y460565D01*
X536426Y459934D01*
X535574D01*
X535313Y460565D01*
X534521Y461596D01*
X534382Y461702D01*
X534040Y462046D01*
X533668Y462444D01*
X533048Y463181D01*
X532828Y463484D01*
X532654Y463759D01*
X532531Y463991D01*
X532456Y464173D01*
X532424Y464295D01*
X532421Y464325D01*
Y467672D01*
X532434D01*
X532275Y469283D01*
X531805Y470833D01*
X531041Y472262D01*
X530014Y473514D01*
X530014Y473514D01*
X529492Y474085D01*
X528851Y474865D01*
X528057Y476352D01*
X527567Y477965D01*
X527409Y479579D01*
X527421Y479642D01*
Y488500D01*
X527432D01*
X527280Y490047D01*
X526828Y491535D01*
X526095Y492907D01*
X525109Y494109D01*
X523907Y495095D01*
X522604Y495792D01*
X522577Y495870D01*
X522945Y496579D01*
X529000D01*
X529063Y496592D01*
X530320Y496426D01*
D02*
G37*
G36*
X390763Y459133D02*
X390827Y459083D01*
X390896Y459038D01*
X390968Y459000D01*
X391045Y458967D01*
X391126Y458941D01*
X391211Y458920D01*
X391301Y458906D01*
X391395Y458897D01*
X391493Y458894D01*
Y458106D01*
X391395Y458103D01*
X391301Y458095D01*
X391211Y458080D01*
X391126Y458059D01*
X391045Y458033D01*
X390968Y458000D01*
X390896Y457962D01*
X390827Y457917D01*
X390763Y457867D01*
X390703Y457811D01*
Y459189D01*
X390763Y459133D01*
D02*
G37*
G36*
X379920Y459111D02*
X379929Y459018D01*
X379944Y458928D01*
X379965Y458843D01*
X379991Y458762D01*
X380024Y458685D01*
X380062Y458612D01*
X380106Y458544D01*
X380156Y458479D01*
X380213Y458419D01*
X378835D01*
X378891Y458479D01*
X378941Y458544D01*
X378985Y458612D01*
X379024Y458685D01*
X379056Y458762D01*
X379083Y458843D01*
X379103Y458928D01*
X379118Y459018D01*
X379127Y459111D01*
X379130Y459209D01*
X379917D01*
X379920Y459111D01*
D02*
G37*
G36*
X531417Y464112D02*
X531488Y463847D01*
X531606Y463558D01*
X531772Y463246D01*
X531984Y462911D01*
X532244Y462553D01*
X532905Y461766D01*
X533307Y461338D01*
X533756Y460887D01*
X528244D01*
X528693Y461338D01*
X529756Y462553D01*
X530016Y462911D01*
X530228Y463246D01*
X530394Y463558D01*
X530512Y463847D01*
X530583Y464112D01*
X530606Y464355D01*
X531394D01*
X531417Y464112D01*
D02*
G37*
G36*
X541417D02*
X541488Y463847D01*
X541606Y463558D01*
X541772Y463246D01*
X541984Y462911D01*
X542244Y462553D01*
X542906Y461766D01*
X543307Y461338D01*
X543756Y460887D01*
X538244D01*
X538693Y461338D01*
X539756Y462553D01*
X540016Y462911D01*
X540228Y463246D01*
X540394Y463558D01*
X540512Y463847D01*
X540583Y464112D01*
X540606Y464355D01*
X541394D01*
X541417Y464112D01*
D02*
G37*
G36*
X441263Y461633D02*
X441327Y461583D01*
X441396Y461538D01*
X441468Y461500D01*
X441545Y461468D01*
X441626Y461441D01*
X441711Y461420D01*
X441801Y461406D01*
X441895Y461397D01*
X441993Y461394D01*
Y460606D01*
X441895Y460603D01*
X441801Y460595D01*
X441711Y460580D01*
X441626Y460559D01*
X441545Y460533D01*
X441468Y460500D01*
X441396Y460462D01*
X441327Y460417D01*
X441263Y460367D01*
X441203Y460311D01*
Y461689D01*
X441263Y461633D01*
D02*
G37*
G36*
X522976Y463423D02*
X523039Y462661D01*
X523095Y462323D01*
X523165Y462012D01*
X523252Y461731D01*
X523354Y461477D01*
X523472Y461252D01*
X523606Y461055D01*
X523756Y460887D01*
X518244D01*
X518394Y461055D01*
X518528Y461252D01*
X518646Y461477D01*
X518748Y461731D01*
X518835Y462012D01*
X518905Y462323D01*
X518961Y462661D01*
X519000Y463028D01*
X519031Y463847D01*
X522968D01*
X522976Y463423D01*
D02*
G37*
G36*
X530047Y440465D02*
X530163Y440295D01*
X530314Y440107D01*
X530498Y439904D01*
X530966Y439447D01*
X531568Y438925D01*
X532305Y438337D01*
X528200Y437851D01*
X528460Y438190D01*
X528870Y438819D01*
X529020Y439110D01*
X529133Y439384D01*
X529209Y439642D01*
X529248Y439885D01*
X529250Y440111D01*
X529215Y440322D01*
X529143Y440516D01*
X529964Y440620D01*
X530047Y440465D01*
D02*
G37*
G36*
X479243Y450241D02*
X479252Y450147D01*
X479267Y450058D01*
X479287Y449973D01*
X479314Y449892D01*
X479347Y449815D01*
X479385Y449742D01*
X479429Y449674D01*
X479479Y449609D01*
X479535Y449549D01*
X478158D01*
X478214Y449609D01*
X478264Y449674D01*
X478308Y449742D01*
X478346Y449815D01*
X478379Y449892D01*
X478406Y449973D01*
X478426Y450058D01*
X478441Y450147D01*
X478450Y450241D01*
X478453Y450339D01*
X479240D01*
X479243Y450241D01*
D02*
G37*
G36*
X487571Y435213D02*
X487563Y435287D01*
X487539Y435354D01*
X487499Y435413D01*
X487443Y435465D01*
X487371Y435508D01*
X487284Y435543D01*
X487180Y435571D01*
X487060Y435591D01*
X486924Y435602D01*
X486772Y435606D01*
Y436394D01*
X486924Y436398D01*
X487060Y436410D01*
X487180Y436429D01*
X487284Y436457D01*
X487371Y436492D01*
X487443Y436535D01*
X487499Y436587D01*
X487539Y436646D01*
X487563Y436713D01*
X487571Y436787D01*
Y435213D01*
D02*
G37*
G36*
X519735Y440415D02*
X519865Y440260D01*
X520030Y440090D01*
X520466Y439699D01*
X521042Y439243D01*
X522169Y438436D01*
X518098Y437718D01*
X518336Y438067D01*
X518537Y438399D01*
X518701Y438712D01*
X518828Y439007D01*
X518918Y439284D01*
X518971Y439542D01*
X518987Y439783D01*
X518965Y440005D01*
X518907Y440209D01*
X518812Y440394D01*
X519640Y440553D01*
X519735Y440415D01*
D02*
G37*
G36*
X436763Y458633D02*
X436827Y458583D01*
X436896Y458538D01*
X436968Y458500D01*
X437045Y458467D01*
X437126Y458441D01*
X437211Y458420D01*
X437301Y458405D01*
X437395Y458397D01*
X437493Y458394D01*
Y457606D01*
X437395Y457603D01*
X437301Y457594D01*
X437211Y457580D01*
X437126Y457559D01*
X437045Y457533D01*
X436968Y457500D01*
X436896Y457462D01*
X436827Y457417D01*
X436763Y457367D01*
X436703Y457311D01*
Y458689D01*
X436763Y458633D01*
D02*
G37*
G36*
X372633Y458237D02*
X372583Y458173D01*
X372538Y458105D01*
X372500Y458032D01*
X372467Y457955D01*
X372441Y457874D01*
X372420Y457789D01*
X372406Y457699D01*
X372397Y457605D01*
X372394Y457507D01*
X371606D01*
X371603Y457605D01*
X371595Y457699D01*
X371580Y457789D01*
X371559Y457874D01*
X371533Y457955D01*
X371500Y458032D01*
X371462Y458105D01*
X371417Y458173D01*
X371367Y458237D01*
X371311Y458297D01*
X372689D01*
X372633Y458237D01*
D02*
G37*
G36*
X383306Y456954D02*
X383256Y456889D01*
X383212Y456821D01*
X383173Y456748D01*
X383141Y456671D01*
X383114Y456590D01*
X383094Y456505D01*
X383079Y456416D01*
X383070Y456322D01*
X383067Y456224D01*
X382279D01*
X382277Y456322D01*
X382268Y456416D01*
X382253Y456505D01*
X382232Y456590D01*
X382206Y456671D01*
X382173Y456748D01*
X382135Y456821D01*
X382090Y456889D01*
X382040Y456954D01*
X381984Y457014D01*
X383362D01*
X383306Y456954D01*
D02*
G37*
G36*
X387133Y457237D02*
X387083Y457173D01*
X387038Y457104D01*
X387000Y457032D01*
X386967Y456955D01*
X386941Y456874D01*
X386920Y456789D01*
X386906Y456699D01*
X386897Y456605D01*
X386894Y456507D01*
X386106D01*
X386103Y456605D01*
X386094Y456699D01*
X386080Y456789D01*
X386059Y456874D01*
X386033Y456955D01*
X386000Y457032D01*
X385962Y457104D01*
X385917Y457173D01*
X385867Y457237D01*
X385811Y457297D01*
X387189D01*
X387133Y457237D01*
D02*
G37*
G36*
X433123Y463238D02*
X433067Y463188D01*
X433013Y463132D01*
X432963Y463071D01*
X432915Y463004D01*
X432871Y462932D01*
X432830Y462855D01*
X432792Y462772D01*
X432758Y462684D01*
X432697Y462492D01*
X431899Y462559D01*
X431922Y462651D01*
X431937Y462741D01*
X431943Y462828D01*
X431941Y462912D01*
X431931Y462993D01*
X431912Y463072D01*
X431884Y463149D01*
X431848Y463222D01*
X431804Y463293D01*
X431751Y463362D01*
X433123Y463238D01*
D02*
G37*
G36*
X552595Y505515D02*
X552383Y505371D01*
X552183Y505219D01*
X551995Y505059D01*
X551818Y504891D01*
X551652Y504715D01*
X551499Y504531D01*
X551357Y504338D01*
X551227Y504138D01*
X551109Y503929D01*
X551002Y503713D01*
X549909Y503771D01*
X550002Y503963D01*
X550059Y504154D01*
X550081Y504343D01*
X550068Y504530D01*
X550020Y504715D01*
X549937Y504899D01*
X549819Y505081D01*
X549666Y505262D01*
X549478Y505441D01*
X549254Y505618D01*
X552595Y505515D01*
D02*
G37*
G36*
X477450Y508481D02*
X477440Y508386D01*
X477424Y508049D01*
X477425Y507976D01*
X477436Y507844D01*
X477446Y507785D01*
X477457Y507730D01*
X476307Y508465D01*
X476373Y508483D01*
X476433Y508511D01*
X476489Y508547D01*
X476540Y508593D01*
X476585Y508647D01*
X476625Y508711D01*
X476661Y508784D01*
X476691Y508866D01*
X476716Y508957D01*
X476736Y509057D01*
X477450Y508481D01*
D02*
G37*
G36*
X477751Y504648D02*
X477820Y504598D01*
X477891Y504557D01*
X477966Y504524D01*
X478043Y504499D01*
X478124Y504482D01*
X478208Y504474D01*
X478295Y504474D01*
X478385Y504482D01*
X478478Y504499D01*
X478494Y503699D01*
X478393Y503677D01*
X478206Y503624D01*
X478121Y503593D01*
X478041Y503557D01*
X477966Y503518D01*
X477896Y503476D01*
X477832Y503430D01*
X477773Y503381D01*
X477719Y503328D01*
X477686Y504705D01*
X477751Y504648D01*
D02*
G37*
G36*
X481797Y497311D02*
X481737Y497367D01*
X481673Y497417D01*
X481604Y497462D01*
X481532Y497500D01*
X481455Y497533D01*
X481374Y497559D01*
X481289Y497580D01*
X481199Y497594D01*
X481105Y497603D01*
X481007Y497606D01*
Y498394D01*
X481105Y498397D01*
X481199Y498406D01*
X481289Y498420D01*
X481374Y498441D01*
X481455Y498467D01*
X481532Y498500D01*
X481604Y498538D01*
X481673Y498583D01*
X481737Y498633D01*
X481797Y498689D01*
Y497311D01*
D02*
G37*
G36*
X483263Y498633D02*
X483327Y498583D01*
X483395Y498538D01*
X483468Y498500D01*
X483545Y498467D01*
X483626Y498441D01*
X483711Y498420D01*
X483801Y498406D01*
X483895Y498397D01*
X483993Y498394D01*
Y497606D01*
X483895Y497603D01*
X483801Y497594D01*
X483711Y497580D01*
X483626Y497559D01*
X483545Y497533D01*
X483468Y497500D01*
X483395Y497462D01*
X483327Y497417D01*
X483263Y497367D01*
X483203Y497311D01*
Y498689D01*
X483263Y498633D01*
D02*
G37*
G36*
X505297Y515811D02*
X505237Y515867D01*
X505173Y515917D01*
X505104Y515962D01*
X505032Y516000D01*
X504955Y516033D01*
X504874Y516059D01*
X504789Y516080D01*
X504699Y516094D01*
X504605Y516103D01*
X504507Y516106D01*
Y516894D01*
X504605Y516897D01*
X504699Y516905D01*
X504789Y516920D01*
X504874Y516941D01*
X504955Y516967D01*
X505032Y517000D01*
X505104Y517038D01*
X505173Y517083D01*
X505237Y517133D01*
X505297Y517189D01*
Y515811D01*
D02*
G37*
G36*
X506763Y517133D02*
X506827Y517083D01*
X506895Y517038D01*
X506968Y517000D01*
X507045Y516967D01*
X507126Y516941D01*
X507211Y516920D01*
X507301Y516905D01*
X507395Y516897D01*
X507493Y516894D01*
Y516106D01*
X507395Y516103D01*
X507301Y516094D01*
X507211Y516080D01*
X507126Y516059D01*
X507045Y516033D01*
X506968Y516000D01*
X506895Y515962D01*
X506827Y515917D01*
X506763Y515867D01*
X506703Y515811D01*
Y517189D01*
X506763Y517133D01*
D02*
G37*
G36*
X360798Y515088D02*
X360856Y515035D01*
X360920Y514986D01*
X360988Y514941D01*
X361062Y514900D01*
X361141Y514864D01*
X361225Y514831D01*
X361314Y514803D01*
X361408Y514778D01*
X361507Y514757D01*
X361461Y513965D01*
X361367Y513980D01*
X361276Y513987D01*
X361187Y513986D01*
X361102Y513978D01*
X361020Y513963D01*
X360942Y513939D01*
X360866Y513908D01*
X360794Y513870D01*
X360725Y513823D01*
X360659Y513769D01*
X360744Y515144D01*
X360798Y515088D01*
D02*
G37*
G36*
X509627Y512219D02*
X509768Y512117D01*
X510176Y511853D01*
X511925Y510857D01*
X512400Y510600D01*
X508443Y509477D01*
X508638Y509837D01*
X508795Y510173D01*
X508913Y510486D01*
X508993Y510775D01*
X509034Y511041D01*
X509036Y511282D01*
X508999Y511501D01*
X508924Y511695D01*
X508810Y511866D01*
X508658Y512013D01*
X509528Y512303D01*
X509627Y512219D01*
D02*
G37*
G36*
X520235Y512415D02*
X520365Y512260D01*
X520530Y512090D01*
X520966Y511699D01*
X521542Y511243D01*
X522669Y510436D01*
X518598Y509718D01*
X518836Y510067D01*
X519037Y510399D01*
X519201Y510712D01*
X519328Y511007D01*
X519418Y511284D01*
X519471Y511543D01*
X519487Y511783D01*
X519465Y512005D01*
X519407Y512209D01*
X519312Y512395D01*
X520140Y512553D01*
X520235Y512415D01*
D02*
G37*
G36*
X399646Y477694D02*
X399589Y477640D01*
X399536Y477582D01*
X399487Y477518D01*
X399443Y477449D01*
X399402Y477375D01*
X399366Y477296D01*
X399334Y477212D01*
X399305Y477123D01*
X399281Y477029D01*
X399261Y476930D01*
X398469Y476974D01*
X398483Y477069D01*
X398490Y477161D01*
X398489Y477249D01*
X398481Y477334D01*
X398465Y477416D01*
X398441Y477494D01*
X398410Y477570D01*
X398371Y477642D01*
X398324Y477711D01*
X398270Y477776D01*
X399646Y477694D01*
D02*
G37*
G36*
X503307Y484812D02*
X502244Y483597D01*
X501984Y483239D01*
X501772Y482904D01*
X501606Y482592D01*
X501488Y482303D01*
X501417Y482038D01*
X501394Y481796D01*
X500606D01*
X500583Y482038D01*
X500512Y482303D01*
X500394Y482592D01*
X500228Y482904D01*
X500016Y483239D01*
X499756Y483597D01*
X499094Y484384D01*
X498693Y484812D01*
X498244Y485263D01*
X503756D01*
X503307Y484812D01*
D02*
G37*
G36*
X362097Y479932D02*
X363044Y479117D01*
X363328Y478918D01*
X363597Y478755D01*
X363850Y478628D01*
X364087Y478538D01*
X364309Y478483D01*
X364515Y478465D01*
Y477678D01*
X364309Y477660D01*
X364087Y477605D01*
X363850Y477515D01*
X363597Y477388D01*
X363328Y477225D01*
X363044Y477026D01*
X362744Y476791D01*
X362097Y476211D01*
X361749Y475867D01*
Y480276D01*
X362097Y479932D01*
D02*
G37*
G36*
Y472058D02*
X363044Y471243D01*
X363328Y471044D01*
X363597Y470881D01*
X363850Y470754D01*
X364087Y470664D01*
X364309Y470609D01*
X364515Y470591D01*
Y469804D01*
X364309Y469786D01*
X364087Y469732D01*
X363850Y469641D01*
X363597Y469514D01*
X363328Y469351D01*
X363044Y469152D01*
X362744Y468917D01*
X362097Y468337D01*
X361749Y467993D01*
Y472402D01*
X362097Y472058D01*
D02*
G37*
G36*
X416897Y471895D02*
X416905Y471801D01*
X416920Y471711D01*
X416941Y471626D01*
X416967Y471545D01*
X417000Y471468D01*
X417038Y471395D01*
X417083Y471327D01*
X417133Y471263D01*
X417189Y471203D01*
X415811D01*
X415867Y471263D01*
X415917Y471327D01*
X415962Y471395D01*
X416000Y471468D01*
X416033Y471545D01*
X416059Y471626D01*
X416080Y471711D01*
X416094Y471801D01*
X416103Y471895D01*
X416106Y471993D01*
X416894D01*
X416897Y471895D01*
D02*
G37*
G36*
X479297Y494311D02*
X479237Y494367D01*
X479173Y494417D01*
X479105Y494462D01*
X479032Y494500D01*
X478955Y494532D01*
X478874Y494559D01*
X478789Y494580D01*
X478699Y494594D01*
X478605Y494603D01*
X478507Y494606D01*
Y495394D01*
X478605Y495397D01*
X478699Y495405D01*
X478789Y495420D01*
X478874Y495441D01*
X478955Y495468D01*
X479032Y495500D01*
X479105Y495538D01*
X479173Y495583D01*
X479237Y495633D01*
X479297Y495689D01*
Y494311D01*
D02*
G37*
G36*
X480763Y495633D02*
X480827Y495583D01*
X480896Y495538D01*
X480968Y495500D01*
X481045Y495468D01*
X481126Y495441D01*
X481211Y495420D01*
X481301Y495405D01*
X481395Y495397D01*
X481493Y495394D01*
Y494606D01*
X481395Y494603D01*
X481301Y494594D01*
X481211Y494580D01*
X481126Y494559D01*
X481045Y494532D01*
X480968Y494500D01*
X480896Y494462D01*
X480827Y494417D01*
X480763Y494367D01*
X480703Y494311D01*
Y495689D01*
X480763Y495633D01*
D02*
G37*
G36*
X368397Y494395D02*
X368406Y494301D01*
X368420Y494211D01*
X368441Y494126D01*
X368467Y494045D01*
X368500Y493968D01*
X368538Y493895D01*
X368583Y493827D01*
X368633Y493763D01*
X368689Y493703D01*
X367311D01*
X367367Y493763D01*
X367417Y493827D01*
X367462Y493895D01*
X367500Y493968D01*
X367532Y494045D01*
X367559Y494126D01*
X367580Y494211D01*
X367595Y494301D01*
X367603Y494395D01*
X367606Y494493D01*
X368394D01*
X368397Y494395D01*
D02*
G37*
G36*
X523606Y485095D02*
X523472Y484898D01*
X523354Y484673D01*
X523252Y484419D01*
X523165Y484137D01*
X523095Y483827D01*
X523039Y483489D01*
X523000Y483122D01*
X522968Y482303D01*
X519031D01*
X519024Y482727D01*
X518961Y483489D01*
X518905Y483827D01*
X518835Y484137D01*
X518748Y484419D01*
X518646Y484673D01*
X518528Y484898D01*
X518394Y485095D01*
X518244Y485263D01*
X523756D01*
X523606Y485095D01*
D02*
G37*
G36*
X362677Y490830D02*
X362795Y490631D01*
X362992Y490455D01*
X363267Y490304D01*
X363622Y490175D01*
X364055Y490070D01*
X364567Y489988D01*
X365157Y489929D01*
X366575Y489883D01*
Y485946D01*
X365827Y485934D01*
X364567Y485840D01*
X364055Y485759D01*
X363622Y485653D01*
X363267Y485525D01*
X362992Y485373D01*
X362795Y485197D01*
X362677Y484999D01*
X362638Y484777D01*
Y491052D01*
X362677Y490830D01*
D02*
G37*
D10*
X367777Y487914D02*
G03*
X372115Y492253I0J4339D01*
G01*
X348252Y438972D02*
G03*
X351724Y435500I3472J0D01*
G01*
X372500Y502500D02*
G03*
X372115Y502115I0J-385D01*
G01*
X462358Y468000D02*
G03*
X469429Y470929I0J10000D01*
G01*
X483142Y480500D02*
G03*
X476071Y477571I0J-10000D01*
G01*
X386500Y488500D02*
G03*
X381500Y483500I0J-5000D01*
G01*
X521000Y458075D02*
G03*
X528075Y451000I7075J0D01*
G01*
X553925D02*
G03*
X561000Y458075I0J7075D01*
G01*
X420000Y451240D02*
G03*
X430000Y441240I10000J0D01*
G01*
X372115Y492253D02*
Y502115D01*
X359500Y487914D02*
X367777D01*
X351724Y435500D02*
X379000D01*
X372500Y502500D02*
X394500D01*
X436500Y468000D02*
X462358D01*
X469429Y470929D02*
X476071Y477571D01*
X483142Y480500D02*
X494500D01*
X386500Y488500D02*
X436500D01*
X521000Y458075D02*
Y488075D01*
X528075Y451000D02*
X553925D01*
X420000Y451240D02*
Y451500D01*
X430000Y441240D02*
X454240D01*
D12*
X387498Y478936D02*
G03*
X390500Y481000I-4067J9133D01*
G01*
X383430Y478072D02*
G03*
X387498Y478936I0J9998D01*
G01*
X396535Y483500D02*
G03*
X390500Y481000I0J-8535D01*
G01*
X416500Y474000D02*
G03*
X407000Y483500I-9500J0D01*
G01*
X390761Y470198D02*
G03*
X399000Y478437I0J8239D01*
G01*
X460500Y474500D02*
G03*
X470500Y484500I0J10000D01*
G01*
X476000Y495000D02*
G03*
X470500Y489500I0J-5500D01*
G01*
X427000Y458500D02*
G03*
X432500Y464000I0J5500D01*
G01*
X488846Y468500D02*
G03*
X478847Y458500I0J-10000D01*
G01*
X496000Y468500D02*
G03*
X501000Y473500I0J5000D01*
G01*
X530500Y436322D02*
G03*
X520500Y446322I-10000J0D01*
G01*
X473500Y451000D02*
G03*
X463500Y461000I-10000J0D01*
G01*
X473500Y449322D02*
G03*
X476500Y446322I3000J0D01*
G01*
X520500Y436000D02*
G03*
X512000Y444500I-8500J0D01*
G01*
X470500Y450500D02*
G03*
X476500Y444500I6000J0D01*
G01*
X470500Y450500D02*
G03*
X463000Y458000I-7500J0D01*
G01*
X521000Y508000D02*
G03*
X512500Y516500I-8500J0D01*
G01*
X511000Y508000D02*
G03*
X505500Y513500I-5500J0D01*
G01*
X487000D02*
G03*
X482500Y509000I0J-4500D01*
G01*
X477500Y504000D02*
G03*
X482500Y509000I0J5000D01*
G01*
X486000Y516500D02*
G03*
X477000Y507500I0J-9000D01*
G01*
X372000Y456750D02*
G03*
X377250Y451500I5250J0D01*
G01*
X381764Y467000D02*
G03*
X376264Y461500I0J-5500D01*
G01*
X427000Y467000D02*
G03*
X429000Y469000I0J2000D01*
G01*
X437500Y477500D02*
G03*
X429000Y469000I0J-8500D01*
G01*
X383024Y464000D02*
G03*
X379524Y460500I0J-3500D01*
G01*
X427500Y464000D02*
G03*
X431500Y468000I0J4000D01*
G01*
X438000Y474500D02*
G03*
X431500Y468000I0J-6500D01*
G01*
X477000Y498000D02*
G03*
X467000Y488000I0J-10000D01*
G01*
X457000Y477500D02*
G03*
X467000Y487500I0J10000D01*
G01*
X368000Y506500D02*
G03*
X360000Y514500I-8000J0D01*
G01*
X378500Y451500D02*
G03*
X382673Y455673I0J4173D01*
G01*
X535500Y491500D02*
G03*
X529000Y498000I-6500J0D01*
G01*
X535500Y482136D02*
G03*
X538071Y475929I8778J0D01*
G01*
X541000Y468858D02*
G03*
X538071Y475929I-10000J0D01*
G01*
X526000Y488500D02*
G03*
X519500Y495000I-6500J0D01*
G01*
X526000Y479642D02*
G03*
X528929Y472571I10000J0D01*
G01*
X531000Y467672D02*
G03*
X529000Y472500I-6828J0D01*
G01*
X386500Y446000D02*
G03*
X396500Y436000I10000J0D01*
G01*
X359500Y478072D02*
X383430D01*
X396535Y483500D02*
X407000D01*
X416500Y470500D02*
Y474000D01*
X359500Y470198D02*
X390761D01*
X368000Y493000D02*
Y506500D01*
X476500Y507500D02*
X477000D01*
X480000Y495000D02*
X519500D01*
X476000D02*
X480000D01*
X438000Y474500D02*
X460500D01*
X470500Y484500D02*
Y489500D01*
X436000Y458000D02*
X463000D01*
X390000Y458500D02*
X427000D01*
X478847Y448846D02*
Y458500D01*
X488846Y468500D02*
X496000D01*
X501000Y473500D02*
Y488075D01*
X476500Y446322D02*
X520500D01*
X530500Y436000D02*
Y436322D01*
X473500Y449322D02*
Y451000D01*
X440500Y461000D02*
X463500D01*
X476500Y444500D02*
X512000D01*
X506000Y516500D02*
X512500D01*
X486000D02*
X506000D01*
X487000Y513500D02*
X505500D01*
X477000Y504000D02*
X477500D01*
X482500Y498000D02*
X529000D01*
X477000D02*
X482500D01*
X377250Y451500D02*
X378500D01*
X372000Y456750D02*
Y459000D01*
X376264Y458000D02*
Y461500D01*
X381764Y467000D02*
X427000D01*
X437500Y477500D02*
X457000D01*
X379524Y457717D02*
Y460500D01*
X383024Y464000D02*
X427500D01*
X467000Y487500D02*
Y488000D01*
X382673Y455673D02*
Y457717D01*
X535500Y482136D02*
Y491500D01*
X541000Y458075D02*
Y468858D01*
X526000Y479642D02*
Y488500D01*
X528929Y472571D02*
X529000Y472500D01*
X531000Y458075D02*
Y467672D01*
X386500Y446000D02*
Y458000D01*
X396500Y436000D02*
X490500D01*
D13*
X400000Y503500D02*
G03*
X402500Y501000I2500J0D01*
G01*
X548621Y501742D02*
G03*
X551000Y506000I-2621J4258D01*
G01*
X546000Y501000D02*
G03*
X548621Y501742I0J5000D01*
G01*
X402500Y501000D02*
X546000D01*
X551000Y506000D02*
Y508000D01*
D14*
X533130Y523922D02*
G03*
X531000Y521792I0J-2130D01*
G01*
X565623Y424540D02*
G03*
X608392Y469154I-922J43691D01*
G01*
Y480167D02*
G03*
X563607Y523922I-44270J-515D01*
G01*
X339547Y523922D02*
X563607D01*
X531000Y508000D02*
Y521792D01*
X339547Y424347D02*
X483500D01*
X483693Y424540D02*
X500500D01*
X608392Y469154D02*
Y480167D01*
X339547Y514500D02*
Y523922D01*
Y488500D02*
Y501000D01*
Y514500D01*
Y424347D02*
Y448500D01*
Y488500D01*
X500500Y424540D02*
X565623D01*
D29*
X491000Y458075D02*
D03*
Y488075D02*
D03*
X501000Y458075D02*
D03*
Y488075D02*
D03*
X511000Y458075D02*
D03*
Y488075D02*
D03*
X521000Y458075D02*
D03*
Y488075D02*
D03*
X531000Y458075D02*
D03*
Y488075D02*
D03*
X541000Y458075D02*
D03*
Y488075D02*
D03*
X551000Y458075D02*
D03*
Y488075D02*
D03*
X561000D02*
D03*
Y458075D02*
D03*
D30*
X359500Y470198D02*
D03*
Y460355D02*
D03*
Y478072D02*
D03*
D31*
Y487914D02*
D03*
D32*
X348831Y448269D02*
D03*
Y500001D02*
D03*
D33*
X550500Y436000D02*
D03*
X540500D02*
D03*
X530500D02*
D03*
X520500D02*
D03*
X500500D02*
D03*
X510500D02*
D03*
X551000Y508000D02*
D03*
X541000D02*
D03*
X531000D02*
D03*
X521000D02*
D03*
X501000D02*
D03*
X511000D02*
D03*
D34*
X490500Y436000D02*
D03*
X491000Y508000D02*
D03*
D35*
X348252Y438972D02*
D03*
X379000Y435500D02*
D03*
X494500Y480500D02*
D03*
X436500Y488500D02*
D03*
Y468000D02*
D03*
X381500Y483500D02*
D03*
X574500Y425500D02*
D03*
X582000Y428000D02*
D03*
X588500Y431500D02*
D03*
X594000Y436000D02*
D03*
X599000Y441500D02*
D03*
X603500Y448000D02*
D03*
X606500Y455000D02*
D03*
X608000Y462500D02*
D03*
X608392Y469154D02*
D03*
Y475000D02*
D03*
Y480167D02*
D03*
X608000Y486500D02*
D03*
X606500Y493500D02*
D03*
X603000Y500500D02*
D03*
X598500Y507500D02*
D03*
X593500Y513000D02*
D03*
X587000Y517500D02*
D03*
X580500Y520500D02*
D03*
X573000Y523000D02*
D03*
X346000Y424347D02*
D03*
X352453D02*
D03*
X358906D02*
D03*
X371811D02*
D03*
X365358D02*
D03*
X391169D02*
D03*
X397622D02*
D03*
X384717D02*
D03*
X378264D02*
D03*
X429886D02*
D03*
X436339D02*
D03*
X449244D02*
D03*
X442791D02*
D03*
X416980D02*
D03*
X423433D02*
D03*
X410528D02*
D03*
X404075D02*
D03*
X481508D02*
D03*
X487960D02*
D03*
X500866D02*
D03*
X494413D02*
D03*
X468602D02*
D03*
X475055D02*
D03*
X462149D02*
D03*
X455697D02*
D03*
X533130D02*
D03*
X539582D02*
D03*
X552488D02*
D03*
X546035D02*
D03*
X520224D02*
D03*
X526677D02*
D03*
X513771D02*
D03*
X507319D02*
D03*
X565393D02*
D03*
X558941D02*
D03*
X339547D02*
D03*
Y430800D02*
D03*
Y437253D02*
D03*
Y450158D02*
D03*
Y443706D02*
D03*
Y469517D02*
D03*
Y475969D02*
D03*
Y463064D02*
D03*
Y456611D02*
D03*
Y508233D02*
D03*
Y514686D02*
D03*
Y495328D02*
D03*
Y501780D02*
D03*
Y488875D02*
D03*
Y482422D02*
D03*
X552488Y523922D02*
D03*
X558941D02*
D03*
X565393D02*
D03*
X500866D02*
D03*
X507319D02*
D03*
X520224D02*
D03*
X513771D02*
D03*
X539582D02*
D03*
X546035D02*
D03*
X533130D02*
D03*
X526677D02*
D03*
X449244D02*
D03*
X455697D02*
D03*
X468602D02*
D03*
X462149D02*
D03*
X487960D02*
D03*
X494413D02*
D03*
X481508D02*
D03*
X475055D02*
D03*
X397622D02*
D03*
X404075D02*
D03*
X416980D02*
D03*
X410528D02*
D03*
X436339D02*
D03*
X442791D02*
D03*
X429886D02*
D03*
X423433D02*
D03*
X371811D02*
D03*
X378264D02*
D03*
X391169D02*
D03*
X384717D02*
D03*
X358906D02*
D03*
X365358D02*
D03*
X352453D02*
D03*
X346000D02*
D03*
X339547D02*
D03*
X420000Y451500D02*
D03*
X454240Y441240D02*
D03*
X372500Y502500D02*
D03*
X394500D02*
D03*
X400000Y503500D02*
D03*
D36*
X368000Y493000D02*
D03*
X476500Y507500D02*
D03*
X480000Y495000D02*
D03*
X432500Y464000D02*
D03*
X440500Y461000D02*
D03*
X436000Y458000D02*
D03*
X506000Y516500D02*
D03*
X477000Y504000D02*
D03*
X482500Y498000D02*
D03*
X372000Y459000D02*
D03*
X399000Y478437D02*
D03*
X416500Y470500D02*
D03*
X390000Y458500D02*
D03*
X360000Y514500D02*
D03*
X376264Y458000D02*
D03*
X379524Y457717D02*
D03*
X382673D02*
D03*
X386500Y458000D02*
D03*
X478847Y448846D02*
D03*
M02*
