G04 Layer_Physical_Order=1*
G04 Layer_Color=255*
%FSLAX25Y25*%
%MOIN*%
G70*
G01*
G75*
%ADD10C,0.03937*%
%ADD11C,0.01772*%
%ADD12C,0.00787*%
%ADD13C,0.01000*%
%ADD14C,0.05905*%
%ADD15C,0.01575*%
%ADD16R,0.05512X0.04921*%
%ADD17R,0.02756X0.03543*%
%ADD18R,0.03937X0.08465*%
%ADD19R,0.12795X0.08465*%
%ADD20R,0.04921X0.05512*%
%ADD21R,0.02559X0.03543*%
%ADD22R,0.01772X0.03543*%
%ADD23O,0.07480X0.02362*%
%ADD24R,0.07480X0.02362*%
%ADD25R,0.22047X0.08268*%
%ADD26R,0.03543X0.02756*%
%ADD27R,0.03543X0.02559*%
%ADD28R,0.03543X0.01772*%
%ADD29C,0.07874*%
%ADD30C,0.06299*%
%ADD31R,0.06299X0.06299*%
%ADD32O,0.14961X0.11024*%
%ADD33C,0.05905*%
%ADD34R,0.05905X0.05905*%
%ADD35C,0.03150*%
%ADD36C,0.01968*%
G36*
X565591Y526739D02*
X565591Y526739D01*
X566374Y526728D01*
X569575Y526588D01*
X573522Y526069D01*
X577408Y525207D01*
X581205Y524010D01*
X584883Y522486D01*
X588415Y520648D01*
X591772Y518509D01*
X594931Y516085D01*
X597866Y513396D01*
X600555Y510461D01*
X602979Y507302D01*
X605118Y503945D01*
X606956Y500413D01*
X608480Y496735D01*
X609677Y492939D01*
X610539Y489052D01*
X611058Y485105D01*
X611231Y481156D01*
X611209Y481134D01*
X611209D01*
X611317Y480589D01*
Y467920D01*
X611261Y467430D01*
X611209Y467170D01*
X611209Y467169D01*
X611199Y466386D01*
X611058Y463165D01*
X610539Y459218D01*
X609677Y455331D01*
X608480Y451534D01*
X606956Y447856D01*
X605118Y444325D01*
X602979Y440967D01*
X600555Y437809D01*
X597866Y434873D01*
X594931Y432184D01*
X591772Y429760D01*
X588415Y427621D01*
X584883Y425783D01*
X581205Y424260D01*
X577409Y423062D01*
X573522Y422201D01*
X569575Y421681D01*
X566406Y421543D01*
X565624Y421530D01*
D01*
X564882Y421422D01*
X336622D01*
Y526848D01*
X565046D01*
X565591Y526739D01*
D02*
G37*
%LPC*%
G36*
X561000Y463055D02*
X559711Y462885D01*
X558510Y462388D01*
X557479Y461596D01*
X556687Y460565D01*
X556190Y459364D01*
X556020Y458075D01*
X556190Y456786D01*
X556687Y455585D01*
X557479Y454554D01*
X558510Y453762D01*
X559711Y453265D01*
X561000Y453095D01*
X562289Y453265D01*
X563490Y453762D01*
X564521Y454554D01*
X565312Y455585D01*
X565810Y456786D01*
X565980Y458075D01*
X565810Y459364D01*
X565312Y460565D01*
X564521Y461596D01*
X563490Y462388D01*
X562289Y462885D01*
X561000Y463055D01*
D02*
G37*
G36*
X383756Y512213D02*
X376244D01*
Y505291D01*
X377736D01*
X378506Y505131D01*
Y489516D01*
Y483500D01*
Y474425D01*
X378493Y473949D01*
X378440Y473348D01*
X378357Y472844D01*
X378248Y472440D01*
X378126Y472141D01*
X378005Y471942D01*
X377900Y471829D01*
X377811Y471769D01*
X377710Y471733D01*
X377551Y471716D01*
X374102D01*
Y461252D01*
X388898D01*
Y471716D01*
X385449D01*
X385290Y471733D01*
X385189Y471769D01*
X385100Y471829D01*
X384995Y471942D01*
X384874Y472141D01*
X384752Y472440D01*
X384643Y472844D01*
X384559Y473348D01*
X384507Y473949D01*
X384494Y474425D01*
Y483500D01*
Y489516D01*
Y505131D01*
X384508D01*
X384351Y506716D01*
X383889Y508242D01*
X383756Y508490D01*
Y512213D01*
D02*
G37*
G36*
X476618Y516496D02*
X471075D01*
Y511937D01*
Y508787D01*
Y505638D01*
Y501701D01*
X472426D01*
Y468075D01*
X472417D01*
X472558Y466287D01*
X472977Y464543D01*
X473663Y462886D01*
X474600Y461357D01*
X475765Y459994D01*
X477129Y458829D01*
X478658Y457892D01*
X480315Y457205D01*
X482059Y456787D01*
X483847Y456646D01*
Y456654D01*
X484750D01*
X484780Y456651D01*
X484902Y456618D01*
X485084Y456544D01*
X485316Y456421D01*
X485591Y456247D01*
X485886Y456033D01*
X487041Y455022D01*
X487372Y454693D01*
X487479Y454554D01*
X488510Y453762D01*
X489711Y453265D01*
X491000Y453095D01*
X492289Y453265D01*
X493490Y453762D01*
X494521Y454554D01*
X495312Y455585D01*
X495574Y456216D01*
X496426D01*
X496688Y455585D01*
X497479Y454554D01*
X498510Y453762D01*
X499711Y453265D01*
X500724Y453132D01*
X500747Y453125D01*
X500809Y453121D01*
X501000Y453095D01*
X501243Y453022D01*
X501732Y452837D01*
Y447272D01*
X501366D01*
Y447045D01*
X501289Y446824D01*
X501026Y446354D01*
X500711Y446265D01*
X500663Y446240D01*
X500610Y446229D01*
X500488Y446148D01*
X500359Y446080D01*
X500324Y446038D01*
X500279Y446008D01*
X500221Y445921D01*
X492035D01*
Y445942D01*
X490089Y445750D01*
X488217Y445182D01*
X486492Y444260D01*
X484980Y443019D01*
X484980Y443019D01*
X484408Y442501D01*
X483757Y441967D01*
X482406Y441245D01*
X481998Y441367D01*
X481618Y441649D01*
Y444996D01*
X480267D01*
Y447409D01*
X480277Y447416D01*
X480716Y448072D01*
X480870Y448846D01*
X480716Y449621D01*
X480277Y450277D01*
X479621Y450716D01*
X478847Y450870D01*
X478072Y450716D01*
X477416Y450277D01*
X476977Y449621D01*
X476823Y448846D01*
X476977Y448072D01*
X477416Y447416D01*
X477425Y447409D01*
Y444996D01*
X476075D01*
Y440437D01*
Y437287D01*
Y434138D01*
Y430201D01*
X481618D01*
Y434138D01*
Y438037D01*
X481683Y438065D01*
X481773Y438084D01*
X481786Y438093D01*
X482599Y438288D01*
X484205Y438953D01*
X485688Y439861D01*
X485760Y439923D01*
X486547Y439560D01*
X486547Y439379D01*
X486547Y439379D01*
X486547Y439356D01*
Y432047D01*
X494453D01*
Y439953D01*
X487568D01*
X487003Y440600D01*
X486970Y440725D01*
X487010Y440990D01*
X487590Y441490D01*
X488076Y441890D01*
X489309Y442548D01*
X490645Y442954D01*
X491996Y443087D01*
X492035Y443079D01*
X500221D01*
X500279Y442992D01*
X500324Y442962D01*
X500359Y442920D01*
X500488Y442852D01*
X500610Y442771D01*
X500663Y442760D01*
X500711Y442735D01*
X500857Y442722D01*
X501000Y442693D01*
X501289Y442176D01*
X501366Y441955D01*
Y441728D01*
X506090D01*
X506122Y441728D01*
X506878D01*
X506910Y441728D01*
X508781D01*
X509071Y441608D01*
X509846Y441506D01*
X510621Y441608D01*
X510912Y441728D01*
X511634D01*
Y441729D01*
X511969Y442377D01*
X512832Y443429D01*
X513474Y444629D01*
X513869Y445931D01*
X514002Y447285D01*
X513994D01*
Y452440D01*
X514017Y453048D01*
X514050Y453352D01*
X514096Y453632D01*
X514151Y453874D01*
X514214Y454078D01*
X514281Y454244D01*
X514348Y454373D01*
X514412Y454467D01*
X514422Y454478D01*
X514521Y454554D01*
X514597Y454653D01*
X514608Y454663D01*
X514702Y454727D01*
X514831Y454794D01*
X514997Y454861D01*
X515201Y454924D01*
X515443Y454979D01*
X515710Y455023D01*
X516041Y455050D01*
X516277Y455025D01*
X516557Y454979D01*
X516799Y454924D01*
X517003Y454861D01*
X517169Y454794D01*
X517298Y454727D01*
X517392Y454663D01*
X517403Y454653D01*
X517479Y454554D01*
X518510Y453762D01*
X519711Y453265D01*
X521000Y453095D01*
X522289Y453265D01*
X523490Y453762D01*
X524521Y454554D01*
X525313Y455585D01*
X525574Y456216D01*
X526426D01*
X526687Y455585D01*
X527479Y454554D01*
X528510Y453762D01*
X529711Y453265D01*
X531000Y453095D01*
X532289Y453265D01*
X533490Y453762D01*
X534521Y454554D01*
X535313Y455585D01*
X535574Y456216D01*
X536426D01*
X536688Y455585D01*
X537479Y454554D01*
X538510Y453762D01*
X539711Y453265D01*
X541000Y453095D01*
X542289Y453265D01*
X543490Y453762D01*
X544521Y454554D01*
X545312Y455585D01*
X545810Y456786D01*
X545980Y458075D01*
X545810Y459364D01*
X545312Y460565D01*
X544521Y461596D01*
X543490Y462388D01*
X542289Y462885D01*
X541000Y463055D01*
X539711Y462885D01*
X538510Y462388D01*
X537479Y461596D01*
X536688Y460565D01*
X536426Y459934D01*
X535574D01*
X535313Y460565D01*
X534521Y461596D01*
X533490Y462388D01*
X532289Y462885D01*
X531000Y463055D01*
X529711Y462885D01*
X528510Y462388D01*
X527479Y461596D01*
X526687Y460565D01*
X526426Y459934D01*
X525574D01*
X525313Y460565D01*
X524521Y461596D01*
X523490Y462388D01*
X522289Y462885D01*
X521000Y463055D01*
X519711Y462885D01*
X518510Y462388D01*
X517479Y461596D01*
X517403Y461497D01*
X517392Y461487D01*
X517298Y461423D01*
X517169Y461356D01*
X517003Y461289D01*
X516799Y461226D01*
X516557Y461171D01*
X516290Y461127D01*
X515959Y461100D01*
X515723Y461125D01*
X515443Y461171D01*
X515201Y461226D01*
X514997Y461289D01*
X514831Y461356D01*
X514702Y461423D01*
X514608Y461487D01*
X514597Y461497D01*
X514521Y461596D01*
X513490Y462388D01*
X512289Y462885D01*
X511000Y463055D01*
X509711Y462885D01*
X508510Y462388D01*
X507479Y461596D01*
X506687Y460565D01*
X506426Y459934D01*
X505574D01*
X505312Y460565D01*
X504521Y461596D01*
X503490Y462388D01*
X503368Y462438D01*
X500499Y464213D01*
X500030Y464538D01*
X499928Y464618D01*
X499864Y464677D01*
X499854Y464683D01*
X499551Y465052D01*
X498056Y466278D01*
X496351Y467190D01*
X494500Y467752D01*
X492575Y467941D01*
Y467941D01*
X491804Y467980D01*
X490981Y468061D01*
X489448Y468526D01*
X488036Y469281D01*
X486798Y470297D01*
X485781Y471536D01*
X485026Y472948D01*
X484561Y474481D01*
X484410Y476019D01*
X484421Y476075D01*
Y490500D01*
X484414Y490537D01*
X484548Y491559D01*
X484957Y492546D01*
X485607Y493393D01*
X486454Y494043D01*
X487441Y494452D01*
X487746Y494492D01*
X488500Y494573D01*
Y494573D01*
X489516Y494706D01*
X490464Y495099D01*
X491277Y495723D01*
X491901Y496536D01*
X492294Y497483D01*
X492427Y498500D01*
X492421D01*
Y504047D01*
X494953D01*
Y511953D01*
X487047D01*
Y504047D01*
X489579D01*
Y498500D01*
X489577D01*
X489495Y498088D01*
X489261Y497739D01*
X489181Y497684D01*
X488500Y497427D01*
X488500Y497427D01*
X487149Y497294D01*
X485849Y496900D01*
X484652Y496260D01*
X484104Y496829D01*
X484369Y497226D01*
X484523Y498000D01*
X484369Y498774D01*
X483931Y499431D01*
X483921Y499437D01*
Y511500D01*
X483927D01*
X483793Y512516D01*
X483401Y513464D01*
X482777Y514277D01*
X481964Y514901D01*
X481016Y515294D01*
X480000Y515427D01*
Y515421D01*
X476618D01*
Y516496D01*
D02*
G37*
G36*
X551000Y511987D02*
X549968Y511851D01*
X549007Y511453D01*
X548181Y510819D01*
X547547Y509993D01*
X547149Y509032D01*
X547013Y508000D01*
X547149Y506968D01*
X547547Y506007D01*
X548181Y505181D01*
X549007Y504547D01*
X549968Y504149D01*
X551000Y504013D01*
X552032Y504149D01*
X552993Y504547D01*
X553819Y505181D01*
X553885Y505266D01*
X554105Y505483D01*
X554627Y505939D01*
X554844Y506101D01*
X555049Y506236D01*
X555232Y506338D01*
X555389Y506409D01*
X555516Y506452D01*
X555604Y506471D01*
X565000D01*
X565068Y506484D01*
X566656Y506328D01*
X568249Y505845D01*
X569717Y505060D01*
X571004Y504004D01*
X572060Y502717D01*
X572845Y501249D01*
X573328Y499656D01*
X573484Y498068D01*
X573471Y498000D01*
Y446000D01*
X573484Y445932D01*
X573328Y444344D01*
X572845Y442751D01*
X572060Y441283D01*
X571004Y439996D01*
X569717Y438940D01*
X568249Y438155D01*
X566656Y437672D01*
X565068Y437516D01*
X565000Y437529D01*
X555104D01*
X555016Y437548D01*
X554889Y437591D01*
X554732Y437662D01*
X554549Y437764D01*
X554343Y437899D01*
X554127Y438061D01*
X553605Y438517D01*
X553385Y438734D01*
X553319Y438819D01*
X552493Y439453D01*
X551532Y439851D01*
X550500Y439987D01*
X549468Y439851D01*
X548507Y439453D01*
X547681Y438819D01*
X547047Y437993D01*
X546649Y437032D01*
X546513Y436000D01*
X546649Y434968D01*
X547047Y434007D01*
X547681Y433181D01*
X548507Y432547D01*
X549468Y432149D01*
X550500Y432013D01*
X551532Y432149D01*
X552493Y432547D01*
X553319Y433181D01*
X553385Y433266D01*
X553605Y433483D01*
X554127Y433939D01*
X554344Y434101D01*
X554549Y434236D01*
X554732Y434338D01*
X554889Y434409D01*
X555016Y434452D01*
X555104Y434471D01*
X565000D01*
Y434464D01*
X566805Y434607D01*
X568565Y435029D01*
X570237Y435722D01*
X571780Y436667D01*
X573157Y437843D01*
X574333Y439220D01*
X575278Y440763D01*
X575971Y442435D01*
X576394Y444195D01*
X576536Y446000D01*
X576529D01*
Y498000D01*
X576536D01*
X576394Y499805D01*
X575971Y501565D01*
X575278Y503237D01*
X574333Y504780D01*
X573157Y506157D01*
X571780Y507333D01*
X570237Y508278D01*
X568565Y508971D01*
X566805Y509394D01*
X565000Y509536D01*
Y509529D01*
X555604D01*
X555516Y509548D01*
X555389Y509591D01*
X555232Y509662D01*
X555049Y509764D01*
X554843Y509899D01*
X554627Y510061D01*
X554105Y510517D01*
X553885Y510734D01*
X553819Y510819D01*
X552993Y511453D01*
X552032Y511851D01*
X551000Y511987D01*
D02*
G37*
G36*
X372257Y512220D02*
X372217Y512213D01*
X372120D01*
X372120Y512213D01*
X372120Y512213D01*
X365744D01*
Y505291D01*
X368253D01*
X368304Y505222D01*
X368557Y504764D01*
X369144Y503307D01*
X369369Y502592D01*
X369456Y501706D01*
X369451Y501665D01*
Y495364D01*
X368964Y495008D01*
X368663Y494891D01*
X368000Y495023D01*
X367226Y494869D01*
X366569Y494431D01*
X366131Y493774D01*
X365977Y493000D01*
X366131Y492226D01*
X366569Y491569D01*
X366579Y491563D01*
Y463000D01*
X366560D01*
X366745Y461592D01*
X367289Y460280D01*
X368153Y459153D01*
X369280Y458289D01*
X369974Y458001D01*
X369995Y457983D01*
X370064Y457961D01*
X370126Y457922D01*
X370206Y457891D01*
X370250Y457872D01*
X370354Y457819D01*
X370372Y457807D01*
X370393Y457793D01*
X370406Y457783D01*
X370411Y457778D01*
X370433Y457752D01*
X370465Y457726D01*
X370569Y457569D01*
X371226Y457131D01*
X372000Y456977D01*
X372774Y457131D01*
X373431Y457569D01*
X373502Y457677D01*
X374224Y457533D01*
X374560Y456813D01*
X374199Y456118D01*
X373701D01*
Y450575D01*
X387448D01*
X387950Y449830D01*
X387755Y449425D01*
X373701D01*
Y443882D01*
X374559D01*
Y442500D01*
X374572Y442437D01*
X374413Y440823D01*
X373924Y439210D01*
X373129Y437723D01*
X372060Y436420D01*
X370757Y435351D01*
X369270Y434557D01*
X367658Y434067D01*
X366043Y433909D01*
X365980Y433921D01*
X358209D01*
Y436006D01*
X359000D01*
Y436003D01*
X360170Y436118D01*
X361295Y436459D01*
X362332Y437013D01*
X363241Y437759D01*
X363987Y438668D01*
X364541Y439705D01*
X364882Y440830D01*
X364997Y442000D01*
X364994D01*
Y449061D01*
X365005D01*
X364860Y450527D01*
X364433Y451936D01*
X363738Y453236D01*
X362804Y454375D01*
X361665Y455309D01*
X360366Y456004D01*
X358956Y456431D01*
X358854Y456441D01*
X356546Y458749D01*
X356513Y458774D01*
X355667Y459805D01*
X355019Y461018D01*
X354620Y462334D01*
X354489Y463662D01*
X354494Y463703D01*
Y482000D01*
X354494Y482002D01*
X354562Y482522D01*
X354688Y482593D01*
X354693Y482597D01*
X354699Y482599D01*
X356685Y483750D01*
X356701Y483765D01*
X363650D01*
Y492064D01*
X356401D01*
X356362Y492071D01*
X356324Y492064D01*
X355350D01*
Y491290D01*
X355313Y491248D01*
X355157Y491107D01*
X353253Y489848D01*
X352455Y489421D01*
X352205Y489216D01*
X352204Y489216D01*
X352199Y489211D01*
X351103Y488311D01*
X349993Y486959D01*
X349168Y485416D01*
X348660Y483741D01*
X348488Y482000D01*
X348506D01*
Y463703D01*
X348491D01*
X348652Y461668D01*
X348992Y460251D01*
X349008Y460128D01*
X349040Y460051D01*
X349128Y459683D01*
X349909Y457797D01*
X350976Y456057D01*
X352302Y454504D01*
X352312Y454515D01*
X355373Y451454D01*
X355993Y450978D01*
X356715Y450679D01*
X357490Y450577D01*
X357505Y450579D01*
X358072Y450466D01*
X358565Y450136D01*
X358895Y449643D01*
X359008Y449075D01*
X359006Y449061D01*
Y442805D01*
X359000Y442020D01*
X358986Y442014D01*
X358980Y442000D01*
X358195Y441994D01*
X352500D01*
Y442003D01*
X351085Y441864D01*
X349849Y441489D01*
X349749Y441565D01*
X349027Y441864D01*
X348252Y441967D01*
X347477Y441864D01*
X346755Y441565D01*
X346135Y441090D01*
X345659Y440470D01*
X345360Y439747D01*
X345258Y438972D01*
Y438242D01*
X345222Y437131D01*
X345167Y436494D01*
X345066Y436312D01*
X345056Y436280D01*
X345038Y436256D01*
X344791D01*
Y435599D01*
X344759Y435495D01*
X344747Y435388D01*
X344756Y435292D01*
X344745Y435195D01*
X344774Y435096D01*
X344783Y434992D01*
X344791Y434976D01*
Y428744D01*
X358209D01*
Y431079D01*
X365980D01*
Y431071D01*
X367768Y431212D01*
X369512Y431630D01*
X371169Y432317D01*
X372698Y433254D01*
X374062Y434418D01*
X375226Y435782D01*
X375754Y436643D01*
X376002Y437047D01*
X376705Y436688D01*
X376491Y436172D01*
X376403Y435500D01*
X376491Y434828D01*
X376751Y434201D01*
X377164Y433664D01*
X377701Y433251D01*
X378328Y432992D01*
X379000Y432903D01*
X379672Y432992D01*
X380298Y433251D01*
X380836Y433664D01*
X381094Y434000D01*
X381117Y434011D01*
X381145Y434024D01*
X381215Y434072D01*
X381294Y434104D01*
X381299Y434108D01*
X381803Y434317D01*
X382965Y435209D01*
X383856Y436370D01*
X384416Y437722D01*
X384607Y439173D01*
X384596D01*
Y443882D01*
X388496D01*
Y445764D01*
X388553Y445797D01*
X388599Y445820D01*
X388827Y445915D01*
X389909Y446745D01*
X390457Y447459D01*
X391244Y447191D01*
Y441791D01*
X398756D01*
Y442295D01*
X399388Y442764D01*
X399589Y442703D01*
X401076Y441909D01*
X402379Y440839D01*
X403448Y439537D01*
X403837Y438809D01*
X403432Y438134D01*
X394276D01*
Y427866D01*
X418323D01*
Y438134D01*
X407207D01*
X407169Y438292D01*
X406483Y439949D01*
X405545Y441478D01*
X404381Y442841D01*
X403017Y444006D01*
X401869Y444709D01*
X401727Y445373D01*
X401735Y445591D01*
X401769Y445679D01*
X402638Y446738D01*
X403347Y448065D01*
X403783Y449504D01*
X403931Y451000D01*
X404346Y451472D01*
X405160Y451438D01*
X405168Y451428D01*
X405889Y450945D01*
X406110Y450901D01*
Y450099D01*
X405889Y450055D01*
X405168Y449573D01*
X404686Y448851D01*
X404516Y448000D01*
X404686Y447149D01*
X405168Y446427D01*
X405889Y445945D01*
X406740Y445776D01*
X411858D01*
X412709Y445945D01*
X413431Y446427D01*
X413530Y446576D01*
X413559Y446579D01*
X433701D01*
X433764Y446592D01*
X435378Y446432D01*
X436991Y445943D01*
X438477Y445149D01*
X439780Y444079D01*
X440849Y442777D01*
X441644Y441290D01*
X442133Y439677D01*
X442228Y438717D01*
X441699Y438134D01*
X431677D01*
Y427866D01*
X455724D01*
Y432339D01*
X457244D01*
Y430791D01*
X464756D01*
Y437713D01*
X457244D01*
Y435181D01*
X455724D01*
Y438134D01*
X445119D01*
X444989Y439788D01*
X444570Y441532D01*
X443884Y443189D01*
X442947Y444718D01*
X441782Y446081D01*
X440418Y447246D01*
X438889Y448183D01*
X437232Y448870D01*
X435489Y449288D01*
X433701Y449429D01*
Y449421D01*
X413532D01*
X413431Y449573D01*
X412709Y450055D01*
X412488Y450099D01*
Y450901D01*
X412709Y450945D01*
X413431Y451428D01*
X413913Y452149D01*
X414082Y453000D01*
X413913Y453851D01*
X413431Y454572D01*
X412709Y455055D01*
X411858Y455224D01*
X406740D01*
X405889Y455055D01*
X405213Y454603D01*
X404500Y454423D01*
Y454423D01*
X403614Y454306D01*
X402788Y453964D01*
X402080Y453420D01*
X401536Y452711D01*
X401194Y451886D01*
X401077Y451000D01*
X401077D01*
X400998Y450245D01*
X400933Y449748D01*
X400450Y448581D01*
X399681Y447579D01*
X399462Y447411D01*
X398756Y447760D01*
Y448713D01*
X391958D01*
X391839Y448776D01*
X391315Y449500D01*
X391438Y450437D01*
X391421D01*
Y457063D01*
X391431Y457069D01*
X391869Y457726D01*
X392023Y458500D01*
X391869Y459274D01*
X391431Y459931D01*
X390774Y460369D01*
X390000Y460523D01*
X389226Y460369D01*
X388569Y459931D01*
X388545Y459895D01*
X387930Y459431D01*
X387274Y459869D01*
X386500Y460023D01*
X385726Y459869D01*
X385069Y459431D01*
X384965Y459275D01*
X384104Y459147D01*
X383447Y459586D01*
X382673Y459740D01*
X381899Y459586D01*
X381698Y459451D01*
X381098Y459206D01*
X380499Y459451D01*
X380298Y459586D01*
X379524Y459740D01*
X378749Y459586D01*
X378093Y459147D01*
X377702Y459418D01*
X377694Y459431D01*
X377038Y459869D01*
X376264Y460023D01*
X375490Y459869D01*
X374833Y459431D01*
X374762Y459323D01*
X373926Y459490D01*
X373869Y459774D01*
X373431Y460431D01*
X372774Y460869D01*
X372000Y461023D01*
X371226Y460869D01*
X370934Y460674D01*
X370711Y460767D01*
X370177Y461177D01*
X369767Y461711D01*
X369510Y462333D01*
X369422Y463000D01*
X369421D01*
Y483519D01*
X369476Y484283D01*
X375413D01*
Y489321D01*
X375439Y489516D01*
Y501665D01*
X375453D01*
X375293Y503700D01*
X374939Y505175D01*
X374939Y505197D01*
X374926Y505230D01*
X374921Y505250D01*
X374918Y505285D01*
X374885Y505399D01*
X374817Y505685D01*
X374772Y505794D01*
X373837Y509037D01*
X373304Y511051D01*
X373268Y511228D01*
X373256Y511325D01*
X373256Y511325D01*
Y512213D01*
X372293D01*
X372257Y512220D01*
D02*
G37*
G36*
X357709Y518256D02*
X350787D01*
Y510744D01*
X357709D01*
Y513079D01*
X358563D01*
X358569Y513069D01*
X359226Y512631D01*
X360000Y512477D01*
X360774Y512631D01*
X361431Y513069D01*
X361869Y513726D01*
X362023Y514500D01*
X361869Y515274D01*
X361431Y515931D01*
X360774Y516369D01*
X360000Y516523D01*
X359226Y516369D01*
X358569Y515931D01*
X358563Y515921D01*
X357709D01*
Y518256D01*
D02*
G37*
G36*
X359500Y482257D02*
X358417Y482115D01*
X357407Y481696D01*
X356540Y481031D01*
X355875Y480164D01*
X355457Y479155D01*
X355315Y478072D01*
X355457Y476988D01*
X355875Y475979D01*
X356540Y475112D01*
X357215Y474595D01*
X357283Y474320D01*
Y473949D01*
X357215Y473674D01*
X356540Y473157D01*
X355875Y472290D01*
X355457Y471281D01*
X355315Y470198D01*
X355457Y469114D01*
X355875Y468105D01*
X356540Y467238D01*
X357407Y466573D01*
X358417Y466155D01*
X359500Y466012D01*
X360583Y466155D01*
X361593Y466573D01*
X362459Y467238D01*
X363125Y468105D01*
X363543Y469114D01*
X363685Y470198D01*
X363543Y471281D01*
X363125Y472290D01*
X362459Y473157D01*
X361785Y473674D01*
X361717Y473949D01*
Y474320D01*
X361785Y474595D01*
X362459Y475112D01*
X363125Y475979D01*
X363543Y476988D01*
X363685Y478072D01*
X363543Y479155D01*
X363125Y480164D01*
X362459Y481031D01*
X361593Y481696D01*
X360583Y482115D01*
X359500Y482257D01*
D02*
G37*
G36*
X403244Y519930D02*
X401905Y519754D01*
X400657Y519237D01*
X399585Y518415D01*
X399421Y518200D01*
X399270Y518029D01*
X398844Y517594D01*
X398673Y517442D01*
X398516Y517318D01*
X398385Y517229D01*
X398286Y517173D01*
X398226Y517147D01*
X398211Y517143D01*
X398142Y517137D01*
X398133Y517134D01*
X397228D01*
Y516673D01*
X397110Y516650D01*
X396436Y516561D01*
X395672Y516244D01*
X395015Y515741D01*
X394512Y515084D01*
X394195Y514320D01*
X394106Y513646D01*
X394077Y513500D01*
Y512213D01*
X386744D01*
Y505291D01*
X389079D01*
Y504500D01*
X389068D01*
X389220Y502953D01*
X389672Y501465D01*
X390405Y500093D01*
X391391Y498891D01*
X392593Y497905D01*
X393965Y497172D01*
X395453Y496721D01*
X397000Y496568D01*
Y496568D01*
X397752Y496484D01*
X397798Y496478D01*
X398541Y496170D01*
X399180Y495680D01*
X399670Y495041D01*
X399978Y494298D01*
X400081Y493511D01*
X400079Y493500D01*
Y480977D01*
X399292Y480402D01*
X399000Y480460D01*
X398226Y480306D01*
X397569Y479868D01*
X397131Y479211D01*
X396977Y478437D01*
X397131Y477663D01*
X397569Y477006D01*
X397579Y477000D01*
Y471000D01*
X397568D01*
X397719Y469853D01*
X398162Y468784D01*
X398866Y467866D01*
X399784Y467162D01*
X400853Y466719D01*
X402000Y466568D01*
Y466579D01*
X405066D01*
X405168Y466428D01*
X405889Y465945D01*
X406110Y465901D01*
Y465099D01*
X405889Y465055D01*
X405168Y464572D01*
X404686Y463851D01*
X404516Y463000D01*
X404686Y462149D01*
X405168Y461427D01*
X405889Y460945D01*
X406740Y460776D01*
X411858D01*
X412709Y460945D01*
X413431Y461427D01*
X413530Y461576D01*
X413559Y461579D01*
X415000D01*
X415035Y461586D01*
X415755Y461681D01*
X416459Y461972D01*
X417064Y462436D01*
X417528Y463041D01*
X417819Y463745D01*
X417914Y464465D01*
X417921Y464500D01*
Y469063D01*
X417931Y469069D01*
X418369Y469726D01*
X418523Y470500D01*
X418369Y471274D01*
X417931Y471931D01*
X417274Y472369D01*
X416500Y472523D01*
X415726Y472369D01*
X415069Y471931D01*
X414631Y471274D01*
X414477Y470500D01*
X414631Y469726D01*
X415069Y469069D01*
X415079Y469063D01*
Y464500D01*
X415061D01*
X415043Y464457D01*
X415000Y464439D01*
Y464421D01*
X413532D01*
X413431Y464572D01*
X412709Y465055D01*
X412488Y465099D01*
Y465901D01*
X412709Y465945D01*
X413431Y466428D01*
X413913Y467149D01*
X414082Y468000D01*
X413913Y468851D01*
X413431Y469572D01*
X412709Y470055D01*
X412488Y470099D01*
Y470901D01*
X412709Y470945D01*
X413431Y471427D01*
X413913Y472149D01*
X414082Y473000D01*
X413913Y473851D01*
X413431Y474573D01*
X412709Y475055D01*
X412488Y475099D01*
Y475901D01*
X412709Y475945D01*
X413431Y476428D01*
X413913Y477149D01*
X414082Y478000D01*
X413913Y478851D01*
X413431Y479572D01*
X412709Y480055D01*
X412488Y480099D01*
Y480901D01*
X412709Y480945D01*
X413431Y481427D01*
X413913Y482149D01*
X414082Y483000D01*
X413913Y483851D01*
X413431Y484573D01*
X412709Y485055D01*
X412488Y485099D01*
Y485901D01*
X412709Y485945D01*
X413431Y486427D01*
X413530Y486576D01*
X413559Y486579D01*
X417000D01*
X417063Y486591D01*
X418677Y486433D01*
X420290Y485943D01*
X421777Y485149D01*
X423079Y484080D01*
X424149Y482777D01*
X424943Y481290D01*
X425432Y479677D01*
X425592Y478063D01*
X425579Y478000D01*
Y462500D01*
X425573D01*
X425707Y460791D01*
X426107Y459123D01*
X426764Y457539D01*
X427660Y456077D01*
X428773Y454773D01*
X430077Y453660D01*
X431539Y452764D01*
X433123Y452107D01*
X434791Y451707D01*
X436500Y451573D01*
Y451560D01*
X437908Y451745D01*
X439220Y452289D01*
X440347Y453153D01*
X441211Y454280D01*
X441755Y455592D01*
X441825Y456124D01*
X442236Y456292D01*
X442652Y456372D01*
X443291Y455945D01*
X443512Y455901D01*
Y455099D01*
X443291Y455055D01*
X442569Y454572D01*
X442087Y453851D01*
X441918Y453000D01*
X442087Y452149D01*
X442569Y451428D01*
X443291Y450945D01*
X443512Y450901D01*
Y450099D01*
X443291Y450055D01*
X442569Y449573D01*
X442087Y448851D01*
X441918Y448000D01*
X442087Y447149D01*
X442569Y446427D01*
X443291Y445945D01*
X444142Y445776D01*
X449260D01*
X450111Y445945D01*
X450832Y446427D01*
X450932Y446576D01*
X450961Y446579D01*
X461500D01*
X461550Y446589D01*
X462689Y446439D01*
X463798Y445980D01*
X464750Y445250D01*
X465480Y444298D01*
X465939Y443189D01*
X465996Y442757D01*
X466070Y442000D01*
X466070D01*
X466215Y440898D01*
X466640Y439872D01*
X467317Y438990D01*
X468198Y438313D01*
X469225Y437888D01*
X469382Y437867D01*
Y434138D01*
Y430201D01*
X474925D01*
Y434138D01*
Y437287D01*
Y440437D01*
Y444996D01*
X473574D01*
Y453000D01*
X473583D01*
X473442Y454788D01*
X473023Y456532D01*
X472337Y458189D01*
X471400Y459718D01*
X470235Y461082D01*
X468871Y462246D01*
X467342Y463183D01*
X465685Y463870D01*
X463941Y464288D01*
X462153Y464429D01*
Y464421D01*
X450934D01*
X450832Y464572D01*
X450111Y465055D01*
X449890Y465099D01*
Y465901D01*
X450111Y465945D01*
X450832Y466428D01*
X451314Y467149D01*
X451484Y468000D01*
X451314Y468851D01*
X450832Y469572D01*
X450111Y470055D01*
X449890Y470099D01*
Y470901D01*
X450111Y470945D01*
X450785Y471396D01*
X451500Y471571D01*
Y471571D01*
X453288Y471712D01*
X455032Y472130D01*
X456689Y472817D01*
X458218Y473754D01*
X459582Y474919D01*
X460746Y476282D01*
X461683Y477811D01*
X462370Y479468D01*
X462788Y481212D01*
X462929Y483000D01*
X462921D01*
Y498500D01*
X462914Y498537D01*
X463048Y499554D01*
X463454Y500536D01*
X464101Y501379D01*
X464521Y501701D01*
X469925D01*
Y505638D01*
Y508787D01*
Y511937D01*
Y516496D01*
X464382D01*
Y515637D01*
X463500D01*
Y515646D01*
X461712Y515505D01*
X459968Y515086D01*
X458311Y514400D01*
X456782Y513463D01*
X455418Y512298D01*
X454254Y510934D01*
X453317Y509405D01*
X452630Y507748D01*
X452212Y506004D01*
X452071Y504217D01*
X451546Y503939D01*
X451350Y503874D01*
X451292Y503885D01*
X450832Y504572D01*
X450111Y505055D01*
X449890Y505099D01*
Y505901D01*
X450111Y505945D01*
X450832Y506427D01*
X451314Y507149D01*
X451484Y508000D01*
X451314Y508851D01*
X450832Y509573D01*
X450111Y510055D01*
X449890Y510099D01*
Y510901D01*
X450111Y510945D01*
X450832Y511427D01*
X451314Y512149D01*
X451484Y513000D01*
X451314Y513851D01*
X450832Y514572D01*
X450111Y515055D01*
X449260Y515224D01*
X444142D01*
X443291Y515055D01*
X443179Y514980D01*
X442190Y514923D01*
X436500D01*
Y514930D01*
X436451Y514951D01*
X436431Y515000D01*
X436428D01*
X436260Y516276D01*
X435768Y517464D01*
X434985Y518485D01*
X433964Y519268D01*
X432775Y519760D01*
X431500Y519928D01*
Y519923D01*
X403244D01*
Y519930D01*
D02*
G37*
G36*
X538500Y520016D02*
Y519994D01*
X531847D01*
X531072Y519892D01*
X530781Y519772D01*
X528909D01*
X528878Y519772D01*
Y519772D01*
X528122D01*
Y519772D01*
X523366D01*
Y515356D01*
X523364Y515350D01*
X523366Y515332D01*
Y515272D01*
X523359Y515233D01*
X523365Y515203D01*
X523352Y515164D01*
X523357Y515109D01*
X523347Y515056D01*
X523366Y514957D01*
Y514228D01*
X523733D01*
Y512153D01*
X523733Y512151D01*
X523708Y511964D01*
X523356Y511672D01*
X522908Y511524D01*
X522824Y511532D01*
X522668Y511605D01*
X522660Y511607D01*
X522654Y511612D01*
X522555Y511634D01*
X522032Y511851D01*
X521000Y511987D01*
X519968Y511851D01*
X519007Y511453D01*
X518350Y510949D01*
X517563Y511203D01*
Y514008D01*
X517571Y514107D01*
X517591Y514228D01*
X519134D01*
Y516824D01*
X519169Y517000D01*
X519134Y517176D01*
Y519772D01*
X514409D01*
X514378Y519772D01*
Y519772D01*
X513622D01*
Y519772D01*
X508866D01*
Y515356D01*
X508864Y515350D01*
X508866Y515332D01*
Y515272D01*
X508859Y515233D01*
X508865Y515203D01*
X508852Y515164D01*
X508857Y515109D01*
X508847Y515056D01*
X508866Y514957D01*
Y514228D01*
X509233D01*
Y512602D01*
X509217Y512535D01*
X509177Y512420D01*
X508972Y512000D01*
X508842Y511781D01*
X508208Y510880D01*
X508104Y510868D01*
X507421Y511148D01*
Y515063D01*
X507431Y515069D01*
X507869Y515726D01*
X508023Y516500D01*
X507869Y517274D01*
X507431Y517931D01*
X506774Y518369D01*
X506000Y518523D01*
X505226Y518369D01*
X504569Y517931D01*
X504131Y517274D01*
X503977Y516500D01*
X504131Y515726D01*
X504569Y515069D01*
X504579Y515063D01*
Y511122D01*
X503920Y510859D01*
X503792Y510840D01*
X502993Y511453D01*
X502032Y511851D01*
X501000Y511987D01*
X499968Y511851D01*
X499007Y511453D01*
X498181Y510819D01*
X497547Y509993D01*
X497149Y509032D01*
X497013Y508000D01*
X497149Y506968D01*
X497547Y506007D01*
X497821Y505650D01*
X497865Y505561D01*
X497865Y505561D01*
X497865Y505561D01*
X498152Y505187D01*
X498625Y504523D01*
X498969Y503971D01*
X499081Y503760D01*
X499164Y503580D01*
X499213Y503446D01*
X499230Y503382D01*
X499437Y494291D01*
X499435Y494261D01*
X499405Y494138D01*
X499335Y493955D01*
X499217Y493720D01*
X499049Y493441D01*
X498842Y493141D01*
X497858Y491963D01*
X497589Y491681D01*
X497479Y491596D01*
X496688Y490565D01*
X496190Y489364D01*
X496020Y488075D01*
X496190Y486786D01*
X496688Y485585D01*
X497479Y484554D01*
X497834Y484281D01*
X497567Y483494D01*
X494500D01*
X493725Y483392D01*
X493003Y483093D01*
X492383Y482617D01*
X491907Y481997D01*
X491608Y481275D01*
X491506Y480500D01*
X491608Y479725D01*
X491907Y479003D01*
X492383Y478383D01*
X493003Y477907D01*
X493725Y477608D01*
X494500Y477506D01*
X512748D01*
X513346Y477427D01*
Y477420D01*
X515013Y477551D01*
X516639Y477941D01*
X518184Y478581D01*
X519609Y479455D01*
X520881Y480541D01*
X521966Y481812D01*
X522840Y483238D01*
X522968Y483546D01*
X523490Y483763D01*
X524521Y484554D01*
X525313Y485585D01*
X525810Y486786D01*
X525980Y488075D01*
X525810Y489364D01*
X525313Y490565D01*
X524521Y491596D01*
X524422Y491672D01*
X524412Y491683D01*
X524348Y491777D01*
X524281Y491906D01*
X524214Y492072D01*
X524151Y492276D01*
X524096Y492518D01*
X524052Y492785D01*
X523995Y493475D01*
X523994Y493532D01*
Y494506D01*
X539000D01*
Y494489D01*
X540297Y494659D01*
X541506Y495160D01*
X542544Y495956D01*
X543340Y496994D01*
X543841Y498203D01*
X544011Y499500D01*
X543994D01*
Y504569D01*
X544012Y505326D01*
X544021Y505444D01*
X544453Y506007D01*
X544851Y506968D01*
X544987Y508000D01*
X544851Y509032D01*
X544453Y509993D01*
X544067Y510495D01*
X543994Y511885D01*
Y514500D01*
X544016D01*
X543828Y515928D01*
X543277Y517258D01*
X542400Y518400D01*
X541258Y519277D01*
X539928Y519828D01*
X538500Y520016D01*
D02*
G37*
G36*
X510500Y439987D02*
X509468Y439851D01*
X508507Y439453D01*
X507681Y438819D01*
X507047Y437993D01*
X506649Y437032D01*
X506513Y436000D01*
X506649Y434968D01*
X507047Y434007D01*
X507681Y433181D01*
X508507Y432547D01*
X509468Y432149D01*
X510500Y432013D01*
X511532Y432149D01*
X512493Y432547D01*
X513319Y433181D01*
X513953Y434007D01*
X514351Y434968D01*
X514487Y436000D01*
X514351Y437032D01*
X513953Y437993D01*
X513319Y438819D01*
X512493Y439453D01*
X511532Y439851D01*
X510500Y439987D01*
D02*
G37*
G36*
X520500D02*
X519468Y439851D01*
X518507Y439453D01*
X517681Y438819D01*
X517047Y437993D01*
X516649Y437032D01*
X516513Y436000D01*
X516649Y434968D01*
X517047Y434007D01*
X517681Y433181D01*
X518507Y432547D01*
X519468Y432149D01*
X520500Y432013D01*
X521532Y432149D01*
X522493Y432547D01*
X523319Y433181D01*
X523953Y434007D01*
X524351Y434968D01*
X524487Y436000D01*
X524351Y437032D01*
X523953Y437993D01*
X523319Y438819D01*
X522493Y439453D01*
X521532Y439851D01*
X520500Y439987D01*
D02*
G37*
G36*
X530500D02*
X529468Y439851D01*
X528507Y439453D01*
X527681Y438819D01*
X527047Y437993D01*
X526649Y437032D01*
X526513Y436000D01*
X526649Y434968D01*
X527047Y434007D01*
X527681Y433181D01*
X528507Y432547D01*
X529468Y432149D01*
X530500Y432013D01*
X531532Y432149D01*
X532493Y432547D01*
X533319Y433181D01*
X533953Y434007D01*
X534351Y434968D01*
X534487Y436000D01*
X534351Y437032D01*
X533953Y437993D01*
X533319Y438819D01*
X532493Y439453D01*
X531532Y439851D01*
X530500Y439987D01*
D02*
G37*
%LPD*%
G36*
X383488Y473891D02*
X383547Y473220D01*
X383646Y472627D01*
X383784Y472114D01*
X383961Y471680D01*
X384177Y471324D01*
X384433Y471048D01*
X384728Y470851D01*
X385063Y470732D01*
X385437Y470692D01*
X377563D01*
X377937Y470732D01*
X378272Y470851D01*
X378567Y471048D01*
X378823Y471324D01*
X379039Y471680D01*
X379217Y472114D01*
X379354Y472627D01*
X379453Y473220D01*
X379512Y473891D01*
X379532Y474642D01*
X383469D01*
X383488Y473891D01*
D02*
G37*
G36*
X488188Y455319D02*
X487737Y455768D01*
X486522Y456831D01*
X486164Y457091D01*
X485829Y457303D01*
X485517Y457469D01*
X485228Y457587D01*
X484963Y457658D01*
X484721Y457681D01*
Y458469D01*
X484963Y458492D01*
X485228Y458563D01*
X485517Y458681D01*
X485829Y458847D01*
X486164Y459059D01*
X486522Y459319D01*
X487309Y459980D01*
X487737Y460382D01*
X488188Y460831D01*
Y455319D01*
D02*
G37*
G36*
X504286Y455860D02*
X503994Y455192D01*
X503876Y454858D01*
X503693Y454194D01*
X503629Y453864D01*
X503584Y453534D01*
X503556Y453204D01*
X503547Y452876D01*
X502760D01*
X502740Y453101D01*
X502682Y453304D01*
X502586Y453485D01*
X502450Y453645D01*
X502276Y453782D01*
X502063Y453898D01*
X501812Y453992D01*
X501522Y454064D01*
X501193Y454114D01*
X500825Y454142D01*
X504459Y456196D01*
X504286Y455860D01*
D02*
G37*
G36*
X518188Y455319D02*
X518020Y455469D01*
X517823Y455603D01*
X517598Y455721D01*
X517344Y455823D01*
X517063Y455910D01*
X516752Y455980D01*
X516414Y456036D01*
X516054Y456074D01*
X515586Y456036D01*
X515248Y455980D01*
X514937Y455910D01*
X514656Y455823D01*
X514402Y455721D01*
X514177Y455603D01*
X513980Y455469D01*
X513812Y455319D01*
Y460831D01*
X513980Y460681D01*
X514177Y460547D01*
X514402Y460429D01*
X514656Y460327D01*
X514937Y460240D01*
X515248Y460170D01*
X515586Y460114D01*
X515946Y460076D01*
X516414Y460114D01*
X516752Y460170D01*
X517063Y460240D01*
X517344Y460327D01*
X517598Y460429D01*
X517823Y460547D01*
X518020Y460681D01*
X518188Y460831D01*
Y455319D01*
D02*
G37*
G36*
X499265Y463841D02*
X499426Y463716D01*
X499940Y463360D01*
X503023Y461453D01*
X497663Y460165D01*
X497958Y460660D01*
X498202Y461124D01*
X498395Y461556D01*
X498536Y461957D01*
X498627Y462326D01*
X498666Y462663D01*
X498654Y462968D01*
X498592Y463242D01*
X498478Y463484D01*
X498313Y463694D01*
X499168Y463932D01*
X499265Y463841D01*
D02*
G37*
G36*
X513606Y455095D02*
X513472Y454898D01*
X513354Y454673D01*
X513252Y454419D01*
X513165Y454138D01*
X513095Y453827D01*
X513039Y453489D01*
X513000Y453122D01*
X512968Y452303D01*
X509031D01*
X509024Y452727D01*
X508961Y453489D01*
X508906Y453827D01*
X508835Y454138D01*
X508748Y454419D01*
X508646Y454673D01*
X508528Y454898D01*
X508394Y455095D01*
X508244Y455263D01*
X513756D01*
X513606Y455095D01*
D02*
G37*
G36*
X480614Y439980D02*
X480637Y439923D01*
X480676Y439876D01*
X480730Y439839D01*
X480799Y439812D01*
X480884Y439796D01*
X480984Y439790D01*
X481100Y439794D01*
X481231Y439808D01*
X481378Y439833D01*
X481380Y439024D01*
X481231Y438992D01*
X481098Y438954D01*
X480981Y438912D01*
X480879Y438865D01*
X480792Y438813D01*
X480721Y438756D01*
X480666Y438694D01*
X480626Y438627D01*
X480603Y438555D01*
X480594Y438478D01*
X480606Y440047D01*
X480614Y439980D01*
D02*
G37*
G36*
X502378Y443713D02*
X502370Y443787D01*
X502347Y443854D01*
X502307Y443913D01*
X502252Y443965D01*
X502181Y444008D01*
X502095Y444043D01*
X501992Y444071D01*
X501874Y444091D01*
X501740Y444102D01*
X501591Y444106D01*
Y444894D01*
X501740Y444898D01*
X501874Y444909D01*
X501992Y444929D01*
X502095Y444957D01*
X502181Y444992D01*
X502252Y445035D01*
X502307Y445087D01*
X502347Y445146D01*
X502370Y445213D01*
X502378Y445287D01*
Y443713D01*
D02*
G37*
G36*
X501000D02*
X500992Y443787D01*
X500969Y443854D01*
X500929Y443913D01*
X500874Y443965D01*
X500803Y444008D01*
X500717Y444043D01*
X500614Y444071D01*
X500496Y444091D01*
X500362Y444102D01*
X500213Y444106D01*
Y444894D01*
X500362Y444898D01*
X500496Y444909D01*
X500614Y444929D01*
X500717Y444957D01*
X500803Y444992D01*
X500874Y445035D01*
X500929Y445087D01*
X500969Y445146D01*
X500992Y445213D01*
X501000Y445287D01*
Y443713D01*
D02*
G37*
G36*
X503551Y447092D02*
X503563Y446956D01*
X503583Y446836D01*
X503610Y446732D01*
X503646Y446644D01*
X503689Y446572D01*
X503740Y446516D01*
X503799Y446477D01*
X503866Y446453D01*
X503941Y446445D01*
X503648D01*
X503689Y446377D01*
X503740Y446321D01*
X503799Y446281D01*
X503866Y446256D01*
X503941Y446248D01*
X502378Y446260D01*
X502451Y446268D01*
X502516Y446291D01*
X502573Y446330D01*
X502622Y446386D01*
X502657Y446445D01*
X502366D01*
X502441Y446453D01*
X502508Y446477D01*
X502567Y446516D01*
X502618Y446572D01*
X502661Y446644D01*
X502697Y446732D01*
X502724Y446836D01*
X502744Y446956D01*
X502756Y447092D01*
X502760Y447244D01*
X503547D01*
X503551Y447092D01*
D02*
G37*
G36*
X479479Y448084D02*
X479429Y448019D01*
X479385Y447951D01*
X479347Y447878D01*
X479314Y447801D01*
X479287Y447720D01*
X479267Y447635D01*
X479252Y447545D01*
X479243Y447452D01*
X479240Y447354D01*
X478453D01*
X478450Y447452D01*
X478441Y447545D01*
X478426Y447635D01*
X478406Y447720D01*
X478379Y447801D01*
X478346Y447878D01*
X478308Y447951D01*
X478264Y448019D01*
X478214Y448084D01*
X478158Y448143D01*
X479535D01*
X479479Y448084D01*
D02*
G37*
G36*
X479244Y444620D02*
X479256Y444484D01*
X479276Y444364D01*
X479303Y444260D01*
X479339Y444172D01*
X479382Y444100D01*
X479433Y444044D01*
X479492Y444004D01*
X479559Y443980D01*
X479634Y443972D01*
X478059D01*
X478134Y443980D01*
X478201Y444004D01*
X478260Y444044D01*
X478311Y444100D01*
X478354Y444172D01*
X478390Y444260D01*
X478417Y444364D01*
X478437Y444484D01*
X478449Y444620D01*
X478453Y444771D01*
X479240D01*
X479244Y444620D01*
D02*
G37*
G36*
X475602Y511386D02*
X475626Y511319D01*
X475666Y511260D01*
X475722Y511209D01*
X475794Y511165D01*
X475882Y511130D01*
X475986Y511102D01*
X476106Y511083D01*
X476242Y511071D01*
X476394Y511067D01*
Y510280D01*
X476242Y510276D01*
X476106Y510264D01*
X475986Y510244D01*
X475882Y510217D01*
X475794Y510181D01*
X475722Y510138D01*
X475666Y510087D01*
X475626Y510028D01*
X475602Y509961D01*
X475594Y509886D01*
Y511461D01*
X475602Y511386D01*
D02*
G37*
G36*
X491713Y505051D02*
X491646Y505028D01*
X491587Y504988D01*
X491535Y504933D01*
X491492Y504862D01*
X491457Y504776D01*
X491429Y504673D01*
X491409Y504555D01*
X491398Y504422D01*
X491394Y504272D01*
X490606D01*
X490602Y504422D01*
X490590Y504555D01*
X490571Y504673D01*
X490543Y504776D01*
X490508Y504862D01*
X490465Y504933D01*
X490413Y504988D01*
X490354Y505028D01*
X490287Y505051D01*
X490213Y505059D01*
X491787D01*
X491713Y505051D01*
D02*
G37*
G36*
X475602Y508213D02*
X475626Y508146D01*
X475666Y508087D01*
X475671Y508082D01*
X475673Y508083D01*
X475737Y508133D01*
X475797Y508189D01*
Y507991D01*
X475882Y507957D01*
X475986Y507929D01*
X476106Y507909D01*
X476242Y507898D01*
X476394Y507894D01*
Y507106D01*
X476242Y507102D01*
X476106Y507091D01*
X475986Y507071D01*
X475882Y507043D01*
X475797Y507009D01*
Y506811D01*
X475737Y506867D01*
X475673Y506917D01*
X475671Y506918D01*
X475666Y506913D01*
X475626Y506854D01*
X475602Y506787D01*
X475594Y506713D01*
Y506967D01*
X475532Y507000D01*
X475455Y507032D01*
X475374Y507059D01*
X475289Y507080D01*
X475199Y507094D01*
X475105Y507103D01*
X475007Y507106D01*
Y507894D01*
X475105Y507897D01*
X475199Y507905D01*
X475289Y507920D01*
X475374Y507941D01*
X475455Y507968D01*
X475532Y508000D01*
X475594Y508033D01*
Y508287D01*
X475602Y508213D01*
D02*
G37*
G36*
Y514713D02*
X475626Y514646D01*
X475666Y514587D01*
X475722Y514535D01*
X475794Y514492D01*
X475882Y514457D01*
X475986Y514429D01*
X476106Y514409D01*
X476242Y514398D01*
X476394Y514394D01*
Y513606D01*
X476242Y513602D01*
X476106Y513590D01*
X475986Y513571D01*
X475882Y513543D01*
X475794Y513508D01*
X475722Y513465D01*
X475666Y513413D01*
X475626Y513354D01*
X475602Y513287D01*
X475594Y513213D01*
Y514787D01*
X475602Y514713D01*
D02*
G37*
G36*
X474559Y502705D02*
X474492Y502681D01*
X474433Y502642D01*
X474382Y502587D01*
X474339Y502516D01*
X474303Y502429D01*
X474276Y502327D01*
X474256Y502209D01*
X474244Y502075D01*
X474240Y501925D01*
X473453D01*
X473449Y502075D01*
X473437Y502209D01*
X473417Y502327D01*
X473390Y502429D01*
X473354Y502516D01*
X473311Y502587D01*
X473260Y502642D01*
X473201Y502681D01*
X473134Y502705D01*
X473059Y502713D01*
X474634D01*
X474559Y502705D01*
D02*
G37*
G36*
X475602Y504713D02*
X475626Y504646D01*
X475666Y504587D01*
X475722Y504535D01*
X475794Y504492D01*
X475882Y504457D01*
X475904Y504451D01*
X475955Y504467D01*
X476032Y504500D01*
X476104Y504538D01*
X476173Y504583D01*
X476237Y504633D01*
X476297Y504689D01*
Y504396D01*
X476394Y504394D01*
Y503606D01*
X476297Y503604D01*
Y503311D01*
X476237Y503367D01*
X476173Y503417D01*
X476104Y503462D01*
X476032Y503500D01*
X475955Y503533D01*
X475904Y503549D01*
X475882Y503543D01*
X475794Y503508D01*
X475722Y503465D01*
X475666Y503413D01*
X475626Y503354D01*
X475602Y503287D01*
X475594Y503213D01*
Y503604D01*
X475507Y503606D01*
Y504394D01*
X475594Y504396D01*
Y504787D01*
X475602Y504713D01*
D02*
G37*
G36*
X482897Y499395D02*
X482905Y499301D01*
X482920Y499211D01*
X482941Y499126D01*
X482968Y499045D01*
X483000Y498968D01*
X483038Y498896D01*
X483083Y498827D01*
X483133Y498763D01*
X483189Y498703D01*
X481811D01*
X481867Y498763D01*
X481917Y498827D01*
X481962Y498896D01*
X482000Y498968D01*
X482032Y499045D01*
X482059Y499126D01*
X482080Y499211D01*
X482094Y499301D01*
X482103Y499395D01*
X482106Y499493D01*
X482894D01*
X482897Y499395D01*
D02*
G37*
G36*
X480397Y496395D02*
X480406Y496301D01*
X480420Y496211D01*
X480441Y496126D01*
X480468Y496045D01*
X480500Y495968D01*
X480538Y495895D01*
X480583Y495827D01*
X480633Y495763D01*
X480689Y495703D01*
X479311D01*
X479367Y495763D01*
X479417Y495827D01*
X479462Y495895D01*
X479500Y495968D01*
X479532Y496045D01*
X479559Y496126D01*
X479580Y496211D01*
X479595Y496301D01*
X479603Y496395D01*
X479606Y496493D01*
X480394D01*
X480397Y496395D01*
D02*
G37*
G36*
X552911Y437769D02*
X553485Y437268D01*
X553758Y437064D01*
X554020Y436892D01*
X554272Y436751D01*
X554515Y436641D01*
X554747Y436563D01*
X554969Y436516D01*
X555182Y436500D01*
Y435500D01*
X554969Y435484D01*
X554747Y435437D01*
X554515Y435359D01*
X554272Y435249D01*
X554020Y435108D01*
X553758Y434936D01*
X553485Y434732D01*
X552911Y434231D01*
X552609Y433933D01*
Y438067D01*
X552911Y437769D01*
D02*
G37*
G36*
X553411Y509769D02*
X553985Y509268D01*
X554258Y509064D01*
X554520Y508892D01*
X554772Y508751D01*
X555015Y508641D01*
X555247Y508563D01*
X555469Y508516D01*
X555682Y508500D01*
Y507500D01*
X555469Y507484D01*
X555247Y507437D01*
X555015Y507359D01*
X554772Y507249D01*
X554520Y507108D01*
X554258Y506936D01*
X553985Y506732D01*
X553411Y506231D01*
X553109Y505933D01*
Y510067D01*
X553411Y509769D01*
D02*
G37*
G36*
X386898Y455742D02*
X386910Y455606D01*
X386929Y455486D01*
X386957Y455382D01*
X386992Y455294D01*
X387035Y455222D01*
X387087Y455166D01*
X387146Y455126D01*
X387213Y455102D01*
X387287Y455094D01*
X385713D01*
X385787Y455102D01*
X385854Y455126D01*
X385913Y455166D01*
X385965Y455222D01*
X386008Y455294D01*
X386043Y455382D01*
X386071Y455486D01*
X386090Y455606D01*
X386102Y455742D01*
X386106Y455894D01*
X386894D01*
X386898Y455742D01*
D02*
G37*
G36*
X383306Y456954D02*
X383256Y456889D01*
X383212Y456821D01*
X383173Y456748D01*
X383141Y456671D01*
X383114Y456590D01*
X383094Y456505D01*
X383079Y456416D01*
X383070Y456322D01*
X383067Y456224D01*
X382279D01*
X382277Y456322D01*
X382268Y456416D01*
X382253Y456505D01*
X382232Y456590D01*
X382206Y456671D01*
X382173Y456748D01*
X382135Y456821D01*
X382090Y456889D01*
X382040Y456954D01*
X381984Y457014D01*
X383362D01*
X383306Y456954D01*
D02*
G37*
G36*
X380156D02*
X380106Y456889D01*
X380062Y456821D01*
X380024Y456748D01*
X379991Y456671D01*
X379965Y456590D01*
X379944Y456505D01*
X379929Y456416D01*
X379920Y456322D01*
X379917Y456224D01*
X379130D01*
X379127Y456322D01*
X379118Y456416D01*
X379103Y456505D01*
X379083Y456590D01*
X379056Y456671D01*
X379024Y456748D01*
X378985Y456821D01*
X378941Y456889D01*
X378891Y456954D01*
X378835Y457014D01*
X380213D01*
X380156Y456954D01*
D02*
G37*
G36*
X376661Y455742D02*
X376673Y455606D01*
X376693Y455486D01*
X376720Y455382D01*
X376756Y455294D01*
X376799Y455222D01*
X376850Y455166D01*
X376909Y455126D01*
X376976Y455102D01*
X377051Y455094D01*
X375476D01*
X375551Y455102D01*
X375618Y455126D01*
X375677Y455166D01*
X375728Y455222D01*
X375772Y455294D01*
X375807Y455382D01*
X375835Y455486D01*
X375854Y455606D01*
X375866Y455742D01*
X375870Y455894D01*
X376658D01*
X376661Y455742D01*
D02*
G37*
G36*
X383071D02*
X383083Y455606D01*
X383102Y455486D01*
X383130Y455382D01*
X383165Y455294D01*
X383209Y455222D01*
X383260Y455166D01*
X383319Y455126D01*
X383386Y455102D01*
X383461Y455094D01*
X381886D01*
X381961Y455102D01*
X382028Y455126D01*
X382087Y455166D01*
X382138Y455222D01*
X382181Y455294D01*
X382217Y455382D01*
X382244Y455486D01*
X382264Y455606D01*
X382276Y455742D01*
X382279Y455894D01*
X383067D01*
X383071Y455742D01*
D02*
G37*
G36*
X379921D02*
X379933Y455606D01*
X379953Y455486D01*
X379980Y455382D01*
X380016Y455294D01*
X380059Y455222D01*
X380110Y455166D01*
X380169Y455126D01*
X380236Y455102D01*
X380311Y455094D01*
X378736D01*
X378811Y455102D01*
X378878Y455126D01*
X378937Y455166D01*
X378988Y455222D01*
X379031Y455294D01*
X379067Y455382D01*
X379095Y455486D01*
X379114Y455606D01*
X379126Y455742D01*
X379130Y455894D01*
X379917D01*
X379921Y455742D01*
D02*
G37*
G36*
X371218Y458403D02*
X371171Y458459D01*
X371119Y458513D01*
X371061Y458565D01*
X370997Y458615D01*
X370928Y458663D01*
X370852Y458709D01*
X370685Y458795D01*
X370592Y458835D01*
X370493Y458873D01*
X370590Y459681D01*
X370678Y459648D01*
X370764Y459624D01*
X370849Y459609D01*
X370932Y459604D01*
X371012Y459608D01*
X371091Y459622D01*
X371168Y459645D01*
X371243Y459677D01*
X371316Y459719D01*
X371387Y459770D01*
X371218Y458403D01*
D02*
G37*
G36*
X387133Y457237D02*
X387083Y457173D01*
X387038Y457104D01*
X387000Y457032D01*
X386967Y456955D01*
X386941Y456874D01*
X386920Y456789D01*
X386906Y456699D01*
X386897Y456605D01*
X386894Y456507D01*
X386106D01*
X386103Y456605D01*
X386094Y456699D01*
X386080Y456789D01*
X386059Y456874D01*
X386033Y456955D01*
X386000Y457032D01*
X385962Y457104D01*
X385917Y457173D01*
X385867Y457237D01*
X385811Y457297D01*
X387189D01*
X387133Y457237D01*
D02*
G37*
G36*
X376897D02*
X376847Y457173D01*
X376802Y457104D01*
X376764Y457032D01*
X376731Y456955D01*
X376705Y456874D01*
X376684Y456789D01*
X376669Y456699D01*
X376660Y456605D01*
X376658Y456507D01*
X375870D01*
X375867Y456605D01*
X375858Y456699D01*
X375844Y456789D01*
X375823Y456874D01*
X375796Y456955D01*
X375764Y457032D01*
X375725Y457104D01*
X375681Y457173D01*
X375631Y457237D01*
X375575Y457297D01*
X376953D01*
X376897Y457237D01*
D02*
G37*
G36*
X390633Y457737D02*
X390583Y457673D01*
X390538Y457605D01*
X390500Y457532D01*
X390468Y457455D01*
X390441Y457374D01*
X390420Y457289D01*
X390406Y457199D01*
X390397Y457105D01*
X390394Y457007D01*
X389606D01*
X389603Y457105D01*
X389595Y457199D01*
X389580Y457289D01*
X389559Y457374D01*
X389532Y457455D01*
X389500Y457532D01*
X389462Y457605D01*
X389417Y457673D01*
X389367Y457737D01*
X389311Y457797D01*
X390689D01*
X390633Y457737D01*
D02*
G37*
G36*
X444098Y437757D02*
X444110Y437621D01*
X444130Y437502D01*
X444158Y437398D01*
X444193Y437310D01*
X444236Y437238D01*
X444287Y437182D01*
X444347Y437142D01*
X444413Y437118D01*
X444488Y437110D01*
X442913D01*
X442988Y437118D01*
X443055Y437142D01*
X443114Y437182D01*
X443165Y437238D01*
X443209Y437310D01*
X443244Y437398D01*
X443272Y437502D01*
X443291Y437621D01*
X443303Y437757D01*
X443307Y437909D01*
X444095D01*
X444098Y437757D01*
D02*
G37*
G36*
X406259Y437735D02*
X406308Y437604D01*
X406361Y437488D01*
X406418Y437388D01*
X406479Y437303D01*
X406542Y437233D01*
X406610Y437179D01*
X406681Y437141D01*
X406756Y437118D01*
X406835Y437110D01*
X405198D01*
X405273Y437117D01*
X405335Y437141D01*
X405385Y437179D01*
X405423Y437232D01*
X405448Y437301D01*
X405461Y437386D01*
X405461Y437485D01*
X405448Y437600D01*
X405423Y437731D01*
X405386Y437876D01*
X406213Y437881D01*
X406259Y437735D01*
D02*
G37*
G36*
X350225Y438264D02*
X350252Y437884D01*
X352500Y437032D01*
X352158Y436519D01*
X351150Y435210D01*
X350989Y435068D01*
X350863Y435001D01*
X350773Y435007D01*
X350719Y435089D01*
X350701Y435244D01*
X345803D01*
X345761Y435280D01*
X345773Y435387D01*
X345838Y435565D01*
X345956Y435815D01*
X346164Y436188D01*
X346240Y437071D01*
X346279Y438264D01*
X346284Y438972D01*
X350220D01*
X350225Y438264D01*
D02*
G37*
G36*
X454708Y434472D02*
X454732Y434406D01*
X454772Y434346D01*
X454828Y434295D01*
X454900Y434252D01*
X454988Y434216D01*
X455092Y434189D01*
X455212Y434169D01*
X455348Y434158D01*
X455500Y434154D01*
Y433366D01*
X455348Y433362D01*
X455212Y433350D01*
X455092Y433331D01*
X454988Y433303D01*
X454900Y433268D01*
X454828Y433224D01*
X454772Y433173D01*
X454732Y433114D01*
X454708Y433047D01*
X454700Y432972D01*
Y434547D01*
X454708Y434472D01*
D02*
G37*
G36*
X357193Y433213D02*
X357217Y433146D01*
X357257Y433087D01*
X357313Y433035D01*
X357384Y432992D01*
X357472Y432957D01*
X357576Y432929D01*
X357696Y432909D01*
X357832Y432898D01*
X357984Y432894D01*
Y432106D01*
X357832Y432102D01*
X357696Y432091D01*
X357576Y432071D01*
X357472Y432043D01*
X357384Y432008D01*
X357313Y431965D01*
X357257Y431913D01*
X357217Y431854D01*
X357193Y431787D01*
X357185Y431713D01*
Y433287D01*
X357193Y433213D01*
D02*
G37*
G36*
X379921Y436782D02*
X379979Y436753D01*
X380036Y436731D01*
X380091Y436716D01*
X380146Y436707D01*
X380199Y436705D01*
X380252Y436710D01*
X380303Y436721D01*
X380353Y436739D01*
X380402Y436764D01*
X380738Y434959D01*
X380681Y434934D01*
X380578Y434881D01*
X380532Y434853D01*
X380490Y434824D01*
X380451Y434794D01*
X380416Y434763D01*
X380385Y434731D01*
X380358Y434698D01*
X380335Y434664D01*
X379862Y436818D01*
X379921Y436782D01*
D02*
G37*
G36*
X458268Y432972D02*
X458260Y433047D01*
X458236Y433114D01*
X458196Y433173D01*
X458140Y433224D01*
X458071Y433266D01*
Y432972D01*
X458063Y433047D01*
X458039Y433114D01*
X457999Y433173D01*
X457943Y433224D01*
X457871Y433268D01*
X457784Y433303D01*
X457680Y433331D01*
X457560Y433350D01*
X457424Y433362D01*
X457272Y433366D01*
Y434154D01*
X457424Y434158D01*
X457560Y434169D01*
X457680Y434189D01*
X457784Y434216D01*
X457871Y434252D01*
X457943Y434295D01*
X457999Y434346D01*
X458039Y434406D01*
X458063Y434472D01*
X458071Y434547D01*
Y434254D01*
X458140Y434295D01*
X458196Y434346D01*
X458236Y434406D01*
X458260Y434472D01*
X458268Y434547D01*
Y432972D01*
D02*
G37*
G36*
X412729Y448707D02*
X412759Y448641D01*
X412811Y448583D01*
X412883Y448533D01*
X412976Y448490D01*
X413089Y448455D01*
X413223Y448428D01*
X413377Y448409D01*
X413552Y448398D01*
X413748Y448394D01*
Y447606D01*
X413552Y447602D01*
X413223Y447572D01*
X413089Y447544D01*
X412976Y447510D01*
X412883Y447467D01*
X412811Y447417D01*
X412759Y447359D01*
X412729Y447293D01*
X412718Y447220D01*
Y448780D01*
X412729Y448707D01*
D02*
G37*
G36*
X405880Y452220D02*
X405870Y452293D01*
X405839Y452359D01*
X405788Y452417D01*
X405716Y452467D01*
X405623Y452510D01*
X405510Y452544D01*
X405376Y452571D01*
X405221Y452591D01*
X405046Y452602D01*
X404850Y452606D01*
Y453394D01*
X405046Y453398D01*
X405376Y453429D01*
X405510Y453455D01*
X405623Y453490D01*
X405716Y453533D01*
X405788Y453583D01*
X405839Y453641D01*
X405870Y453707D01*
X405880Y453780D01*
Y452220D01*
D02*
G37*
G36*
X387479Y447669D02*
X387500Y447609D01*
X387535Y447565D01*
X387584Y447535D01*
X387648Y447520D01*
X387725Y447520D01*
X387816Y447535D01*
X387921Y447565D01*
X388040Y447610D01*
X388174Y447669D01*
X388208Y446765D01*
X388068Y446694D01*
X387943Y446622D01*
X387832Y446549D01*
X387737Y446474D01*
X387656Y446398D01*
X387590Y446321D01*
X387538Y446243D01*
X387502Y446164D01*
X387479Y446083D01*
X387472Y446001D01*
Y447743D01*
X387479Y447669D01*
D02*
G37*
G36*
X376693Y444898D02*
X376626Y444874D01*
X376567Y444834D01*
X376516Y444778D01*
X376472Y444706D01*
X376437Y444618D01*
X376410Y444514D01*
X376390Y444394D01*
X376378Y444258D01*
X376374Y444106D01*
X375587D01*
X375583Y444258D01*
X375571Y444394D01*
X375551Y444514D01*
X375524Y444618D01*
X375488Y444706D01*
X375445Y444778D01*
X375394Y444834D01*
X375335Y444874D01*
X375268Y444898D01*
X375193Y444906D01*
X376768D01*
X376693Y444898D01*
D02*
G37*
G36*
X397936Y445749D02*
X397959Y445687D01*
X397996Y445639D01*
X398048Y445604D01*
X398116Y445583D01*
X398198Y445575D01*
X398296Y445580D01*
X398408Y445599D01*
X398535Y445631D01*
X398677Y445677D01*
X398688Y444875D01*
X398713Y444869D01*
X398710Y444059D01*
X398562Y444085D01*
X398429Y444101D01*
X398312Y444105D01*
X398210Y444098D01*
X398124Y444080D01*
X398054Y444051D01*
X397999Y444010D01*
X397960Y443958D01*
X397937Y443895D01*
X397929Y443820D01*
Y444117D01*
X397928Y444117D01*
X397857Y444086D01*
X397802Y444044D01*
X397763Y443992D01*
X397740Y443928D01*
X397732Y443854D01*
Y444114D01*
Y445763D01*
X397740Y445689D01*
X397762Y445627D01*
X397800Y445578D01*
X397853Y445542D01*
X397921Y445519D01*
X397929Y445518D01*
Y445824D01*
X397936Y445749D01*
D02*
G37*
G36*
X380213Y444898D02*
X380146Y444874D01*
X380087Y444834D01*
X380035Y444778D01*
X379992Y444706D01*
X379957Y444618D01*
X379929Y444514D01*
X379909Y444394D01*
X379898Y444258D01*
X379894Y444106D01*
X379106D01*
X379102Y444258D01*
X379090Y444394D01*
X379071Y444514D01*
X379043Y444618D01*
X379008Y444706D01*
X378965Y444778D01*
X378913Y444834D01*
X378854Y444874D01*
X378787Y444898D01*
X378713Y444906D01*
X380287D01*
X380213Y444898D01*
D02*
G37*
G36*
X356362Y484777D02*
X356359Y484761D01*
X356296Y484713D01*
X356174Y484633D01*
X354188Y483482D01*
X353648Y483178D01*
X352749Y488354D01*
X353436Y488746D01*
X355784Y490299D01*
X356037Y490528D01*
X356218Y490730D01*
X356326Y490904D01*
X356362Y491052D01*
Y484777D01*
D02*
G37*
G36*
X372261Y511062D02*
X372312Y510817D01*
X372854Y508766D01*
X373938Y505003D01*
X370413Y502670D01*
X370104Y503651D01*
X369480Y505202D01*
X369164Y505772D01*
X368847Y506205D01*
X368527Y506501D01*
X368205Y506660D01*
X367881Y506682D01*
X367555Y506567D01*
X367228Y506315D01*
X372244Y511201D01*
X372261Y511062D01*
D02*
G37*
G36*
X368633Y492237D02*
X368583Y492173D01*
X368538Y492104D01*
X368500Y492032D01*
X368467Y491955D01*
X368441Y491874D01*
X368420Y491789D01*
X368406Y491699D01*
X368397Y491605D01*
X368394Y491507D01*
X367606D01*
X367603Y491605D01*
X367595Y491699D01*
X367580Y491789D01*
X367559Y491874D01*
X367532Y491955D01*
X367500Y492032D01*
X367462Y492104D01*
X367417Y492173D01*
X367367Y492237D01*
X367311Y492297D01*
X368689D01*
X368633Y492237D01*
D02*
G37*
G36*
X359297Y513811D02*
X359237Y513867D01*
X359173Y513917D01*
X359104Y513962D01*
X359032Y514000D01*
X358955Y514033D01*
X358874Y514059D01*
X358789Y514080D01*
X358699Y514094D01*
X358605Y514103D01*
X358507Y514106D01*
Y514894D01*
X358605Y514897D01*
X358699Y514906D01*
X358789Y514920D01*
X358874Y514941D01*
X358955Y514967D01*
X359032Y515000D01*
X359104Y515038D01*
X359173Y515083D01*
X359237Y515133D01*
X359297Y515189D01*
Y513811D01*
D02*
G37*
G36*
X356704Y515213D02*
X356728Y515146D01*
X356768Y515087D01*
X356823Y515035D01*
X356893Y514992D01*
X356980Y514957D01*
X357083Y514929D01*
X357201Y514910D01*
X357334Y514898D01*
X357484Y514894D01*
Y514106D01*
X357334Y514102D01*
X357201Y514090D01*
X357083Y514071D01*
X356980Y514043D01*
X356893Y514008D01*
X356823Y513965D01*
X356768Y513913D01*
X356728Y513854D01*
X356704Y513787D01*
X356697Y513713D01*
Y515287D01*
X356704Y515213D01*
D02*
G37*
G36*
X450130Y463707D02*
X450161Y463641D01*
X450212Y463583D01*
X450284Y463533D01*
X450377Y463490D01*
X450491Y463455D01*
X450624Y463428D01*
X450779Y463409D01*
X450954Y463398D01*
X451150Y463394D01*
Y462606D01*
X450954Y462602D01*
X450624Y462571D01*
X450491Y462544D01*
X450377Y462510D01*
X450284Y462467D01*
X450212Y462417D01*
X450161Y462359D01*
X450130Y462293D01*
X450120Y462220D01*
Y463780D01*
X450130Y463707D01*
D02*
G37*
G36*
X412729D02*
X412759Y463641D01*
X412811Y463583D01*
X412883Y463533D01*
X412976Y463490D01*
X413089Y463455D01*
X413223Y463428D01*
X413377Y463409D01*
X413552Y463398D01*
X413748Y463394D01*
Y462606D01*
X413552Y462602D01*
X413223Y462571D01*
X413089Y462544D01*
X412976Y462510D01*
X412883Y462467D01*
X412811Y462417D01*
X412759Y462359D01*
X412729Y462293D01*
X412718Y462220D01*
Y463780D01*
X412729Y463707D01*
D02*
G37*
G36*
X441133Y460237D02*
X441083Y460173D01*
X441038Y460105D01*
X441000Y460032D01*
X440968Y459955D01*
X440941Y459874D01*
X440920Y459789D01*
X440906Y459699D01*
X440897Y459605D01*
X440894Y459507D01*
X440106D01*
X440103Y459605D01*
X440095Y459699D01*
X440080Y459789D01*
X440059Y459874D01*
X440032Y459955D01*
X440000Y460032D01*
X439962Y460105D01*
X439917Y460173D01*
X439867Y460237D01*
X439811Y460297D01*
X441189D01*
X441133Y460237D01*
D02*
G37*
G36*
X435284Y457325D02*
X435229Y457379D01*
X435169Y457428D01*
X435104Y457474D01*
X435034Y457516D01*
X434958Y457554D01*
X434878Y457588D01*
X434793Y457618D01*
X434702Y457644D01*
X434606Y457666D01*
X434506Y457684D01*
X434518Y458480D01*
X434613Y458467D01*
X434703Y458462D01*
X434791Y458465D01*
X434875Y458475D01*
X434956Y458493D01*
X435034Y458520D01*
X435108Y458554D01*
X435179Y458595D01*
X435247Y458645D01*
X435311Y458703D01*
X435284Y457325D01*
D02*
G37*
G36*
X450130Y448707D02*
X450161Y448641D01*
X450212Y448583D01*
X450284Y448533D01*
X450377Y448490D01*
X450491Y448455D01*
X450624Y448428D01*
X450779Y448409D01*
X450954Y448398D01*
X451150Y448394D01*
Y447606D01*
X450954Y447602D01*
X450624Y447572D01*
X450491Y447544D01*
X450377Y447510D01*
X450284Y447467D01*
X450212Y447417D01*
X450161Y447359D01*
X450130Y447293D01*
X450120Y447220D01*
Y448780D01*
X450130Y448707D01*
D02*
G37*
G36*
X472551Y444620D02*
X472563Y444484D01*
X472583Y444364D01*
X472610Y444260D01*
X472646Y444172D01*
X472689Y444100D01*
X472740Y444044D01*
X472799Y444004D01*
X472866Y443980D01*
X472941Y443972D01*
X471366D01*
X471441Y443980D01*
X471508Y444004D01*
X471567Y444044D01*
X471618Y444100D01*
X471661Y444172D01*
X471697Y444260D01*
X471724Y444364D01*
X471744Y444484D01*
X471756Y444620D01*
X471760Y444771D01*
X472547D01*
X472551Y444620D01*
D02*
G37*
G36*
X465406Y509816D02*
X465398Y509890D01*
X465374Y509954D01*
X465335Y510007D01*
X465280Y510051D01*
X465208Y510083D01*
X465122Y510106D01*
X465019Y510118D01*
X464901Y510120D01*
X464766Y510112D01*
X464616Y510093D01*
X464615Y510894D01*
X464765Y510921D01*
X464900Y510953D01*
X465018Y510991D01*
X465121Y511034D01*
X465208Y511083D01*
X465279Y511137D01*
X465335Y511196D01*
X465374Y511262D01*
X465398Y511332D01*
X465406Y511408D01*
Y509816D01*
D02*
G37*
G36*
X400905Y507868D02*
X400820Y507838D01*
X400745Y507788D01*
X400680Y507718D01*
X400625Y507628D01*
X400580Y507518D01*
X400545Y507388D01*
X400520Y507238D01*
X400505Y507068D01*
X400500Y506878D01*
X399500D01*
X399495Y507068D01*
X399480Y507238D01*
X399455Y507388D01*
X399420Y507518D01*
X399375Y507628D01*
X399320Y507718D01*
X399255Y507788D01*
X399180Y507838D01*
X399095Y507868D01*
X399000Y507878D01*
X401000D01*
X400905Y507868D01*
D02*
G37*
G36*
X391213Y506307D02*
X391146Y506283D01*
X391087Y506243D01*
X391035Y506187D01*
X390992Y506115D01*
X390957Y506028D01*
X390929Y505924D01*
X390910Y505804D01*
X390898Y505668D01*
X390894Y505516D01*
X390106D01*
X390102Y505668D01*
X390090Y505804D01*
X390071Y505924D01*
X390043Y506028D01*
X390008Y506115D01*
X389965Y506187D01*
X389913Y506243D01*
X389854Y506283D01*
X389787Y506307D01*
X389713Y506315D01*
X391287D01*
X391213Y506307D01*
D02*
G37*
G36*
X400506Y505795D02*
X400524Y505654D01*
X400554Y505516D01*
X400596Y505381D01*
X400651Y505248D01*
X400717Y505118D01*
X400795Y504991D01*
X400885Y504866D01*
X400988Y504744D01*
X401102Y504625D01*
X398898D01*
X399012Y504744D01*
X399114Y504866D01*
X399205Y504991D01*
X399283Y505118D01*
X399349Y505248D01*
X399404Y505381D01*
X399446Y505516D01*
X399476Y505654D01*
X399494Y505795D01*
X399500Y505938D01*
X400500D01*
X400506Y505795D01*
D02*
G37*
G36*
X465394Y506650D02*
X465386Y506701D01*
X465364Y506743D01*
X465325Y506776D01*
X465272Y506798D01*
X465204Y506812D01*
X465120Y506816D01*
X465021Y506810D01*
X464907Y506795D01*
X464778Y506770D01*
X464634Y506736D01*
X464629Y507558D01*
X464776Y507600D01*
X464908Y507645D01*
X465024Y507695D01*
X465125Y507749D01*
X465210Y507806D01*
X465280Y507868D01*
X465335Y507934D01*
X465374Y508004D01*
X465398Y508077D01*
X465406Y508155D01*
X465394Y506650D01*
D02*
G37*
G36*
X443552Y511979D02*
X443501Y512005D01*
X443418Y512028D01*
X443303Y512048D01*
X443156Y512065D01*
X442523Y512102D01*
X441604Y512114D01*
Y513886D01*
X441942Y513887D01*
X443418Y513973D01*
X443501Y513996D01*
X443552Y514021D01*
Y511979D01*
D02*
G37*
G36*
X402772Y517066D02*
X402579Y516844D01*
X401851Y516107D01*
X401800Y516083D01*
X401770Y516088D01*
X401760Y516122D01*
X398240D01*
X398395Y516137D01*
X398560Y516182D01*
X398736Y516257D01*
X398923Y516361D01*
X399120Y516496D01*
X399329Y516661D01*
X399547Y516856D01*
X400017Y517335D01*
X400268Y517619D01*
X402772Y517066D01*
D02*
G37*
G36*
X465406Y513429D02*
X465398Y513504D01*
X465374Y513571D01*
X465334Y513630D01*
X465278Y513681D01*
X465206Y513724D01*
X465118Y513760D01*
X465014Y513787D01*
X464894Y513807D01*
X464758Y513819D01*
X464607Y513823D01*
Y514610D01*
X464758Y514614D01*
X464894Y514626D01*
X465014Y514646D01*
X465118Y514673D01*
X465206Y514709D01*
X465278Y514752D01*
X465334Y514803D01*
X465374Y514862D01*
X465398Y514929D01*
X465406Y515004D01*
Y513429D01*
D02*
G37*
G36*
X413035Y513713D02*
X413059Y513646D01*
X413098Y513587D01*
X413153Y513535D01*
X413224Y513492D01*
X413311Y513457D01*
X413413Y513429D01*
X413531Y513410D01*
X413665Y513398D01*
X413815Y513394D01*
Y512606D01*
X413665Y512602D01*
X413531Y512591D01*
X413413Y512571D01*
X413311Y512543D01*
X413224Y512508D01*
X413153Y512465D01*
X413098Y512413D01*
X413059Y512354D01*
X413035Y512287D01*
X413027Y512213D01*
Y513787D01*
X413035Y513713D01*
D02*
G37*
G36*
X398252Y513771D02*
X398242Y513790D01*
X398213Y513807D01*
X398163Y513822D01*
X398093Y513835D01*
X398003Y513845D01*
X397764Y513861D01*
X397256Y513870D01*
Y515642D01*
X397445Y515643D01*
X398163Y515690D01*
X398213Y515705D01*
X398242Y515722D01*
X398252Y515740D01*
Y513771D01*
D02*
G37*
G36*
X450130Y483707D02*
X450161Y483641D01*
X450212Y483583D01*
X450284Y483533D01*
X450377Y483490D01*
X450491Y483456D01*
X450624Y483428D01*
X450779Y483409D01*
X450954Y483398D01*
X451150Y483394D01*
Y482606D01*
X450954Y482602D01*
X450624Y482572D01*
X450491Y482545D01*
X450377Y482510D01*
X450284Y482467D01*
X450212Y482417D01*
X450161Y482359D01*
X450130Y482293D01*
X450120Y482220D01*
Y483780D01*
X450130Y483707D01*
D02*
G37*
G36*
X399633Y477674D02*
X399583Y477610D01*
X399538Y477541D01*
X399500Y477469D01*
X399467Y477392D01*
X399441Y477311D01*
X399420Y477226D01*
X399406Y477136D01*
X399397Y477042D01*
X399394Y476944D01*
X398606D01*
X398603Y477042D01*
X398594Y477136D01*
X398580Y477226D01*
X398559Y477311D01*
X398533Y477392D01*
X398500Y477469D01*
X398462Y477541D01*
X398417Y477610D01*
X398367Y477674D01*
X398311Y477734D01*
X399689D01*
X399633Y477674D01*
D02*
G37*
G36*
X412729Y488707D02*
X412759Y488641D01*
X412811Y488583D01*
X412883Y488533D01*
X412976Y488490D01*
X413089Y488455D01*
X413223Y488428D01*
X413377Y488409D01*
X413552Y488398D01*
X413748Y488394D01*
Y487606D01*
X413552Y487602D01*
X413223Y487571D01*
X413089Y487544D01*
X412976Y487510D01*
X412883Y487467D01*
X412811Y487417D01*
X412759Y487359D01*
X412729Y487293D01*
X412718Y487220D01*
Y488780D01*
X412729Y488707D01*
D02*
G37*
G36*
X450141Y488690D02*
X450170Y488627D01*
X450219Y488574D01*
X450289Y488532D01*
X450380Y488501D01*
X450490Y488480D01*
X450622Y488470D01*
X450773Y488470D01*
X450946Y488480D01*
X451139Y488501D01*
X451148Y487703D01*
X450950Y487673D01*
X450614Y487600D01*
X450478Y487555D01*
X450362Y487506D01*
X450267Y487452D01*
X450192Y487393D01*
X450139Y487329D01*
X450106Y487260D01*
X450094Y487186D01*
X450133Y488763D01*
X450141Y488690D01*
D02*
G37*
G36*
X417133Y469737D02*
X417083Y469673D01*
X417038Y469604D01*
X417000Y469532D01*
X416967Y469455D01*
X416941Y469374D01*
X416920Y469289D01*
X416905Y469199D01*
X416897Y469105D01*
X416894Y469007D01*
X416106D01*
X416103Y469105D01*
X416094Y469199D01*
X416080Y469289D01*
X416059Y469374D01*
X416033Y469455D01*
X416000Y469532D01*
X415962Y469604D01*
X415917Y469673D01*
X415867Y469737D01*
X415811Y469797D01*
X417189D01*
X417133Y469737D01*
D02*
G37*
G36*
X405880Y467220D02*
X405870Y467293D01*
X405839Y467359D01*
X405788Y467417D01*
X405716Y467467D01*
X405623Y467510D01*
X405510Y467545D01*
X405376Y467571D01*
X405221Y467591D01*
X405046Y467602D01*
X404850Y467606D01*
Y468394D01*
X405046Y468398D01*
X405376Y468429D01*
X405510Y468456D01*
X405623Y468490D01*
X405716Y468533D01*
X405788Y468583D01*
X405839Y468641D01*
X405870Y468707D01*
X405880Y468780D01*
Y467220D01*
D02*
G37*
G36*
X432897Y465395D02*
X432905Y465301D01*
X432920Y465211D01*
X432941Y465126D01*
X432968Y465045D01*
X433000Y464968D01*
X433038Y464895D01*
X433083Y464827D01*
X433133Y464763D01*
X433189Y464703D01*
X431811D01*
X431867Y464763D01*
X431917Y464827D01*
X431962Y464895D01*
X432000Y464968D01*
X432032Y465045D01*
X432059Y465126D01*
X432080Y465211D01*
X432094Y465301D01*
X432103Y465395D01*
X432106Y465493D01*
X432894D01*
X432897Y465395D01*
D02*
G37*
G36*
X450130Y473707D02*
X450161Y473641D01*
X450212Y473583D01*
X450284Y473533D01*
X450377Y473490D01*
X450491Y473455D01*
X450624Y473428D01*
X450779Y473409D01*
X450954Y473398D01*
X451150Y473394D01*
Y472606D01*
X450954Y472602D01*
X450624Y472572D01*
X450491Y472544D01*
X450377Y472510D01*
X450284Y472467D01*
X450212Y472417D01*
X450161Y472359D01*
X450130Y472293D01*
X450120Y472220D01*
Y473780D01*
X450130Y473707D01*
D02*
G37*
G36*
X405880Y472220D02*
X405870Y472293D01*
X405839Y472359D01*
X405788Y472417D01*
X405716Y472467D01*
X405623Y472510D01*
X405510Y472544D01*
X405376Y472572D01*
X405221Y472591D01*
X405046Y472602D01*
X404850Y472606D01*
Y473394D01*
X405046Y473398D01*
X405376Y473428D01*
X405510Y473455D01*
X405623Y473490D01*
X405716Y473533D01*
X405788Y473583D01*
X405839Y473641D01*
X405870Y473707D01*
X405880Y473780D01*
Y472220D01*
D02*
G37*
G36*
X465406Y502903D02*
X465399Y502978D01*
X465376Y503040D01*
X465340Y503087D01*
X465288Y503120D01*
X465221Y503140D01*
X465140Y503146D01*
X465044Y503138D01*
X464933Y503116D01*
X464808Y503080D01*
X464668Y503030D01*
X464652Y503893D01*
X464795Y503952D01*
X464924Y504013D01*
X465037Y504077D01*
X465135Y504143D01*
X465217Y504211D01*
X465285Y504282D01*
X465338Y504355D01*
X465376Y504430D01*
X465398Y504508D01*
X465406Y504588D01*
Y502903D01*
D02*
G37*
G36*
X450099Y493747D02*
X450128Y493688D01*
X450177Y493644D01*
X450246Y493614D01*
X450333Y493600D01*
X450441Y493601D01*
X450567Y493616D01*
X450713Y493646D01*
X450879Y493691D01*
X451064Y493750D01*
X451152Y492929D01*
X451025Y492881D01*
X450904Y492827D01*
X450786Y492767D01*
X450674Y492700D01*
X450566Y492627D01*
X450462Y492548D01*
X450363Y492462D01*
X450269Y492370D01*
X450179Y492271D01*
X450094Y492166D01*
X450089Y493820D01*
X450099Y493747D01*
D02*
G37*
G36*
X412729Y493707D02*
X412759Y493641D01*
X412811Y493583D01*
X412883Y493533D01*
X412976Y493490D01*
X413089Y493456D01*
X413223Y493429D01*
X413377Y493409D01*
X413552Y493398D01*
X413748Y493394D01*
Y492606D01*
X413552Y492602D01*
X413223Y492571D01*
X413089Y492545D01*
X412976Y492510D01*
X412883Y492467D01*
X412811Y492417D01*
X412759Y492359D01*
X412729Y492293D01*
X412718Y492220D01*
Y493780D01*
X412729Y493707D01*
D02*
G37*
G36*
X522569Y510526D02*
X523775Y509872D01*
X523844Y509810D01*
X523876Y509761D01*
X523870Y509725D01*
X524191Y508914D01*
X524322Y509027D01*
X524413Y509068D01*
X524465Y509038D01*
X524476Y508936D01*
X524448Y508762D01*
X524379Y508517D01*
X524271Y508200D01*
X523706Y506818D01*
X522236Y510681D01*
X522569Y510526D01*
D02*
G37*
G36*
X543067Y510109D02*
X538933D01*
X538952Y510145D01*
X538969Y510214D01*
X538983Y510317D01*
X539007Y510623D01*
X539031Y511636D01*
X539032Y511973D01*
X542969D01*
X543067Y510109D01*
D02*
G37*
G36*
X511065Y512515D02*
X511118Y512299D01*
X511205Y512077D01*
X511329Y511848D01*
X511487Y511613D01*
X511680Y511371D01*
X511909Y511122D01*
X512172Y510867D01*
X512805Y510337D01*
X508700Y509852D01*
X508996Y510228D01*
X509698Y511226D01*
X509870Y511515D01*
X510119Y512027D01*
X510197Y512250D01*
X510244Y512451D01*
X510260Y512630D01*
X511047Y512724D01*
X511065Y512515D01*
D02*
G37*
G36*
X511366Y515244D02*
X511299Y515219D01*
X511240Y515179D01*
X511189Y515123D01*
X511148Y515056D01*
X511441D01*
X511366Y515048D01*
X511299Y515024D01*
X511240Y514984D01*
X511189Y514928D01*
X511146Y514856D01*
X511110Y514768D01*
X511083Y514664D01*
X511063Y514544D01*
X511051Y514408D01*
X511047Y514256D01*
X510260D01*
X510256Y514408D01*
X510244Y514544D01*
X510224Y514664D01*
X510197Y514768D01*
X510161Y514856D01*
X510118Y514928D01*
X510067Y514984D01*
X510008Y515024D01*
X509941Y515048D01*
X509866Y515056D01*
X510157D01*
X510122Y515114D01*
X510073Y515169D01*
X510016Y515209D01*
X509951Y515233D01*
X509878Y515240D01*
X511441Y515252D01*
X511366Y515244D01*
D02*
G37*
G36*
X531072Y514108D02*
X531847Y514006D01*
X538006D01*
Y511431D01*
X537988Y510674D01*
X537979Y510556D01*
X537547Y509993D01*
X537149Y509032D01*
X537013Y508000D01*
X537149Y506968D01*
X537547Y506007D01*
X537932Y505505D01*
X538006Y504115D01*
Y500494D01*
X523500D01*
Y500516D01*
X522072Y500328D01*
X520742Y499777D01*
X520022Y499224D01*
X519739Y499341D01*
X518828Y500040D01*
X518129Y500951D01*
X517690Y502012D01*
X517549Y503082D01*
X517563Y503150D01*
Y504797D01*
X518350Y505051D01*
X519007Y504547D01*
X519968Y504149D01*
X521000Y504013D01*
X522032Y504149D01*
X522993Y504547D01*
X523819Y505181D01*
X524453Y506007D01*
X524588Y506332D01*
X524636Y506400D01*
X524640Y506417D01*
X524649Y506432D01*
X525214Y507814D01*
X525220Y507843D01*
X525236Y507870D01*
X525344Y508187D01*
X525348Y508216D01*
X525361Y508243D01*
X525430Y508488D01*
X525434Y508544D01*
X525454Y508597D01*
X525482Y508771D01*
X525479Y508878D01*
X525845Y509356D01*
X526404Y510705D01*
X526595Y512153D01*
X526575D01*
Y514228D01*
X528122D01*
Y514228D01*
X528878D01*
Y514228D01*
X528909Y514228D01*
X530781D01*
X531072Y514108D01*
D02*
G37*
G36*
X506633Y515737D02*
X506583Y515673D01*
X506538Y515604D01*
X506500Y515532D01*
X506467Y515455D01*
X506441Y515374D01*
X506420Y515289D01*
X506405Y515199D01*
X506397Y515105D01*
X506394Y515007D01*
X505606D01*
X505603Y515105D01*
X505594Y515199D01*
X505580Y515289D01*
X505559Y515374D01*
X505533Y515455D01*
X505500Y515532D01*
X505462Y515604D01*
X505417Y515673D01*
X505367Y515737D01*
X505311Y515797D01*
X506689D01*
X506633Y515737D01*
D02*
G37*
G36*
X525866Y515244D02*
X525799Y515219D01*
X525740Y515179D01*
X525689Y515123D01*
X525648Y515056D01*
X525941D01*
X525866Y515048D01*
X525799Y515024D01*
X525740Y514984D01*
X525689Y514928D01*
X525646Y514856D01*
X525610Y514768D01*
X525583Y514664D01*
X525563Y514544D01*
X525551Y514408D01*
X525547Y514256D01*
X524760D01*
X524756Y514408D01*
X524744Y514544D01*
X524724Y514664D01*
X524697Y514768D01*
X524661Y514856D01*
X524618Y514928D01*
X524567Y514984D01*
X524508Y515024D01*
X524441Y515048D01*
X524366Y515056D01*
X524657D01*
X524622Y515114D01*
X524573Y515169D01*
X524516Y515209D01*
X524451Y515233D01*
X524378Y515240D01*
X525941Y515252D01*
X525866Y515244D01*
D02*
G37*
G36*
X517165Y515236D02*
X517031Y515187D01*
X516913Y515107D01*
X516811Y514996D01*
X516724Y514853D01*
X516653Y514679D01*
X516598Y514473D01*
X516559Y514235D01*
X516535Y513966D01*
X516528Y513665D01*
X514953D01*
X515390Y515240D01*
X517315Y515252D01*
X517165Y515236D01*
D02*
G37*
G36*
X507429Y492937D02*
X507614Y492744D01*
X507853Y492574D01*
X508144Y492427D01*
X508489Y492302D01*
X508887Y492199D01*
X509339Y492119D01*
X509843Y492061D01*
X511012Y492012D01*
X507064Y488165D01*
X507075Y488843D01*
X506971Y491443D01*
X506919Y491806D01*
X506856Y492117D01*
X506782Y492375D01*
X506698Y492580D01*
X507296Y493152D01*
X507429Y492937D01*
D02*
G37*
G36*
X501280Y494120D02*
X501357Y493857D01*
X501481Y493571D01*
X501653Y493263D01*
X501874Y492932D01*
X502142Y492580D01*
X502821Y491809D01*
X503232Y491390D01*
X503691Y490949D01*
X498181Y490823D01*
X498619Y491285D01*
X499654Y492523D01*
X499906Y492888D01*
X500111Y493227D01*
X500269Y493543D01*
X500380Y493834D01*
X500445Y494101D01*
X500463Y494344D01*
X501250Y494362D01*
X501280Y494120D01*
D02*
G37*
G36*
X543048Y505855D02*
X543032Y505786D01*
X543017Y505683D01*
X542993Y505377D01*
X542970Y504364D01*
X542969Y504028D01*
X539032D01*
X538933Y505891D01*
X543067D01*
X543048Y505855D01*
D02*
G37*
G36*
X502772Y505638D02*
X502440Y505378D01*
X501882Y504874D01*
X501657Y504630D01*
X501466Y504391D01*
X501312Y504158D01*
X501192Y503930D01*
X501109Y503707D01*
X501060Y503489D01*
X501047Y503276D01*
X500257Y503382D01*
X500238Y503553D01*
X500188Y503749D01*
X500107Y503969D01*
X499995Y504213D01*
X499852Y504481D01*
X499474Y505089D01*
X498972Y505793D01*
X498674Y506181D01*
X502772Y505638D01*
D02*
G37*
G36*
X522976Y493423D02*
X523039Y492661D01*
X523095Y492323D01*
X523165Y492013D01*
X523252Y491731D01*
X523354Y491477D01*
X523472Y491252D01*
X523606Y491055D01*
X523756Y490887D01*
X518244D01*
X518394Y491055D01*
X518528Y491252D01*
X518646Y491477D01*
X518748Y491731D01*
X518835Y492013D01*
X518905Y492323D01*
X518961Y492661D01*
X519000Y493028D01*
X519031Y493847D01*
X522968D01*
X522976Y493423D01*
D02*
G37*
D10*
X357414Y487914D02*
G03*
X351500Y482000I0J-5914D01*
G01*
X359000Y439000D02*
G03*
X362000Y442000I0J3000D01*
G01*
X352500Y439000D02*
G03*
X348252Y434752I0J-4248D01*
G01*
X362000Y449061D02*
G03*
X357490Y453571I-4510J0D01*
G01*
X351900Y460903D02*
G03*
X354429Y456632I9600J2800D01*
G01*
X351500Y463703D02*
G03*
X351900Y460903I10000J0D01*
G01*
X372445Y501665D02*
G03*
X369516Y508736I-10000J0D01*
G01*
X513346Y480421D02*
G03*
X521000Y488075I0J7654D01*
G01*
X420000Y451500D02*
G03*
X413500Y458000I-6500J0D01*
G01*
X521938Y496952D02*
G03*
X521000Y495000I1562J-1952D01*
G01*
X523500Y497500D02*
G03*
X521938Y496952I0J-2500D01*
G01*
X539000Y497500D02*
G03*
X541000Y499500I0J2000D01*
G01*
Y514500D02*
G03*
X538500Y517000I-2500J0D01*
G01*
X390500Y523422D02*
G03*
X390000Y523922I-500J0D01*
G01*
X370500D02*
G03*
X369500Y522922I0J-1000D01*
G01*
X339681Y448634D02*
G03*
X339547Y448500I0J-134D01*
G01*
Y501000D02*
G03*
X340181Y500366I634J0D01*
G01*
X339547Y488500D02*
G03*
X339768Y488279I221J0D01*
G01*
X509846Y444500D02*
G03*
X511000Y447285I-2785J2785D01*
G01*
X395000Y473356D02*
G03*
X393484Y477016I-5176J0D01*
G01*
X390555Y484087D02*
G03*
X393484Y477016I10000J0D01*
G01*
X381500Y505131D02*
G03*
X380000Y508752I-5121J0D01*
G01*
X372445Y489516D02*
Y501665D01*
X357414Y487914D02*
X359500D01*
X352500Y439000D02*
X359000D01*
X348252Y432500D02*
Y434752D01*
Y438972D01*
X362000Y442000D02*
Y449061D01*
X354429Y456632D02*
X357490Y453571D01*
X351500Y463703D02*
Y482000D01*
X494500Y480500D02*
X513268D01*
X513346Y480421D01*
X436500Y468000D02*
Y488500D01*
X381500Y489516D02*
Y505131D01*
Y483500D02*
Y489516D01*
Y466484D02*
Y483500D01*
X521000Y488075D02*
Y495000D01*
X395000Y458000D02*
X409299D01*
X413500D01*
X405000D02*
X409299D01*
X454240Y441240D02*
X461000D01*
X523500Y497500D02*
X539000D01*
X541000Y508000D02*
Y514500D01*
Y499500D02*
Y508000D01*
X531847Y517000D02*
X538500D01*
X390500Y515248D02*
Y523422D01*
X380000Y515248D02*
Y523922D01*
X369500Y515248D02*
Y522922D01*
X340181Y500366D02*
X358173D01*
X339768Y488279D02*
X347504D01*
X339547Y514500D02*
X347752D01*
X511000Y458075D02*
X521000D01*
X511000Y447285D02*
Y458075D01*
X395000Y458000D02*
Y473356D01*
Y452240D02*
Y458000D01*
X390555Y484087D02*
Y489516D01*
X369500Y508752D02*
X369516Y508736D01*
D11*
X379000Y435500D02*
G03*
X382673Y439173I0J3673D01*
G01*
X403244Y518000D02*
G03*
X400000Y514756I0J-3244D01*
G01*
X434500Y515000D02*
G03*
X431500Y518000I-3000J0D01*
G01*
X434500Y515000D02*
G03*
X436500Y513000I2000J0D01*
G01*
X397256Y514756D02*
G03*
X396000Y513500I0J-1256D01*
G01*
X394500Y502500D02*
G03*
X396000Y504000I0J1500D01*
G01*
X382673Y439173D02*
Y446654D01*
X397256Y514756D02*
X400000D01*
X403244Y518000D02*
X431500D01*
X436500Y513000D02*
X446701D01*
X396000Y504000D02*
Y513500D01*
D12*
X399000Y471000D02*
G03*
X402000Y468000I3000J0D01*
G01*
X506000Y497217D02*
G03*
X508929Y490146I10000J0D01*
G01*
X480000Y508500D02*
G03*
X477827Y510673I-2173J0D01*
G01*
X429500Y483000D02*
G03*
X419500Y493000I-10000J0D01*
G01*
X429500Y464000D02*
G03*
X435500Y458000I6000J0D01*
G01*
X432500Y503000D02*
G03*
X422500Y513000I-10000J0D01*
G01*
X436500Y453000D02*
G03*
X440500Y457000I0J4000D01*
G01*
X427000Y462500D02*
G03*
X436500Y453000I9500J0D01*
G01*
X427000Y478000D02*
G03*
X417000Y488000I-10000J0D01*
G01*
X521000Y508000D02*
G03*
X525153Y512153I0J4154D01*
G01*
X510653Y508347D02*
G03*
X511000Y508000I347J0D01*
G01*
X473846Y514217D02*
G03*
X474063Y514000I216J0D01*
G01*
X482500Y511500D02*
G03*
X480000Y514000I-2500J0D01*
G01*
X488500Y496000D02*
G03*
X491000Y498500I0J2500D01*
G01*
X488500Y496000D02*
G03*
X483000Y490500I0J-5500D01*
G01*
Y476075D02*
G03*
X492575Y466500I9575J0D01*
G01*
X503154Y452876D02*
G03*
X501000Y458075I-7353J0D01*
G01*
D02*
G03*
X492575Y466500I-8425J0D01*
G01*
X368000Y463000D02*
G03*
X372000Y459000I4000J0D01*
G01*
X415000Y463000D02*
G03*
X416500Y464500I0J1500D01*
G01*
X386216Y446654D02*
G03*
X390000Y450437I0J3783D01*
G01*
X492035Y444500D02*
G03*
X486000Y442000I0J-8535D01*
G01*
X479176Y439173D02*
G03*
X486000Y442000I0J9651D01*
G01*
X386216Y453346D02*
G03*
X386500Y453630I0J283D01*
G01*
X467500Y442000D02*
G03*
X461500Y448000I-6000J0D01*
G01*
X467500Y442000D02*
G03*
X470327Y439173I2827J0D01*
G01*
X472154Y453000D02*
G03*
X462153Y463000I-10000J0D01*
G01*
X444461Y433760D02*
G03*
X443701Y433000I0J-760D01*
G01*
Y438000D02*
G03*
X433701Y448000I-10000J0D01*
G01*
X396299Y444760D02*
G03*
X402500Y451000I-39J6240D01*
G01*
X396260Y444760D02*
G03*
X396299Y444760I0J6240D01*
G01*
X406299Y434760D02*
G03*
X396299Y444760I-10000J0D01*
G01*
X404500Y453000D02*
G03*
X402500Y451000I0J-2000D01*
G01*
X390500Y504500D02*
G03*
X397000Y498000I6500J0D01*
G01*
X401500Y493500D02*
G03*
X397000Y498000I-4500J0D01*
G01*
X401500Y475500D02*
G03*
X404000Y473000I2500J0D01*
G01*
X365980Y432500D02*
G03*
X375980Y442500I0J10000D01*
G01*
X473846Y468075D02*
G03*
X483847Y458075I10000J0D01*
G01*
X466980Y503980D02*
G03*
X461500Y498500I0J-5480D01*
G01*
X451500Y473000D02*
G03*
X461500Y483000I0J10000D01*
G01*
X467154Y507524D02*
G03*
X458500Y498870I0J-8653D01*
G01*
X451500Y483000D02*
G03*
X458500Y490000I0J7000D01*
G01*
X466500Y510673D02*
G03*
X456500Y500673I0J-10000D01*
G01*
X450000Y488000D02*
G03*
X456500Y494500I0J6500D01*
G01*
X463500Y514217D02*
G03*
X453500Y504216I0J-10000D01*
G01*
X449500Y493000D02*
G03*
X453500Y497000I0J4000D01*
G01*
X399000Y471000D02*
Y478437D01*
X368000Y463000D02*
Y493000D01*
X506000Y497217D02*
Y516500D01*
X508929Y490146D02*
X511000Y488075D01*
X473846Y510673D02*
X477827D01*
X480000Y495000D02*
Y508500D01*
X409299Y493000D02*
X419500D01*
X429500Y464000D02*
Y483000D01*
X435500Y458000D02*
X436000D01*
X432500Y464000D02*
Y503000D01*
X409299Y513000D02*
X422500D01*
X500546Y507990D02*
X501000Y488075D01*
X427000Y462500D02*
Y478000D01*
X409299Y488000D02*
X417000D01*
X440500Y457000D02*
Y461000D01*
X525153Y512153D02*
Y517000D01*
X510653Y508347D02*
Y517000D01*
X473846Y468075D02*
Y503980D01*
Y504000D02*
X477000D01*
X473846Y503980D02*
Y504000D01*
Y507500D02*
X476622D01*
X473846D02*
Y507524D01*
X474063Y514000D02*
X480000D01*
X482500Y498000D02*
Y511500D01*
X483000Y476075D02*
Y490500D01*
X491000Y498500D02*
Y508000D01*
X402000Y468000D02*
X409299D01*
Y463000D02*
X415000D01*
X416500Y464500D02*
Y470500D01*
X390000Y450437D02*
Y458500D01*
X354248Y514500D02*
X360000D01*
X376264Y453630D02*
Y458000D01*
X379524Y453346D02*
Y457717D01*
X382673Y453346D02*
Y457717D01*
X492035Y444500D02*
X503154D01*
Y452876D01*
X478847Y439173D02*
X479176D01*
X386500Y453630D02*
Y458000D01*
X500500Y510000D02*
X500546Y507990D01*
X478847Y442717D02*
Y448846D01*
X446701Y448000D02*
X461500D01*
X470327Y439173D02*
X472154D01*
X446701Y463000D02*
X462153D01*
X472154Y442717D02*
Y453000D01*
X443701Y433000D02*
Y438000D01*
X444461Y433760D02*
X461000D01*
X409299Y448000D02*
X433701D01*
X396260Y444760D02*
X396299D01*
X406299Y433000D02*
Y434760D01*
X404500Y453000D02*
X409299D01*
X390500Y504500D02*
Y508752D01*
X401500Y475500D02*
Y493500D01*
X404000Y473000D02*
X409299D01*
X379500Y442500D02*
Y446654D01*
X375980Y442500D02*
X379500D01*
Y446654D02*
X379524D01*
X354748Y432500D02*
X365980D01*
X375980Y442500D02*
Y446654D01*
X483847Y458075D02*
X491000D01*
X466980Y503980D02*
X467154D01*
X461500Y483000D02*
Y498500D01*
X446701Y473000D02*
X451500D01*
X458500Y490000D02*
Y498870D01*
X446701Y483000D02*
X451500D01*
X466500Y510673D02*
X467154D01*
X456500Y494500D02*
Y500673D01*
X446701Y488000D02*
X450000D01*
X463500Y514217D02*
X467154D01*
X453500Y497000D02*
Y504216D01*
X446701Y493000D02*
X449500D01*
D13*
X491000Y479000D02*
G03*
X495500Y474500I4500J0D01*
G01*
X565000Y436000D02*
G03*
X575000Y446000I0J10000D01*
G01*
Y498000D02*
G03*
X565000Y508000I-10000J0D01*
G01*
X491000Y479000D02*
Y488075D01*
X550500Y436000D02*
X565000D01*
X575000Y446000D02*
Y498000D01*
X551000Y508000D02*
X565000D01*
X400000Y503500D02*
Y509244D01*
D14*
X542975Y441975D02*
G03*
X540500Y436000I5975J-5975D01*
G01*
X608392Y480167D02*
G03*
X563607Y523922I-44270J-515D01*
G01*
X565623Y424540D02*
G03*
X608392Y469154I-922J43691D01*
G01*
X483693Y424540D02*
G03*
X483500Y424347I0J-193D01*
G01*
X548071Y447071D02*
G03*
X551000Y454142I-7071J7071D01*
G01*
Y474500D02*
G03*
X561000Y484500I0J10000D01*
G01*
X541000Y475000D02*
G03*
X541500Y474500I500J0D01*
G01*
X495500D02*
X531000D01*
X339547Y523922D02*
X563607D01*
X542975Y441975D02*
X548071Y447071D01*
X500500Y424540D02*
X565623D01*
X540500D02*
Y436000D01*
X339547Y448500D02*
Y488500D01*
Y424347D02*
Y448500D01*
Y501000D02*
Y514500D01*
Y488500D02*
Y501000D01*
Y514500D02*
Y523922D01*
X608392Y469154D02*
Y480167D01*
X500500Y424540D02*
Y436000D01*
X483693Y424540D02*
X500500D01*
X339547Y424347D02*
X483500D01*
X551000Y458075D02*
Y474500D01*
Y454142D02*
Y458075D01*
X541500Y474500D02*
X551000D01*
Y488075D01*
X531000Y474500D02*
X541500D01*
X531000D02*
Y488075D01*
X541000Y475000D02*
Y488075D01*
X561000Y484500D02*
Y488075D01*
D15*
X517346Y517000D02*
G03*
X515740Y515394I0J-1606D01*
G01*
Y503150D02*
G03*
X521938Y496952I6198J0D01*
G01*
X515740Y503150D02*
Y515394D01*
D16*
X395000Y445252D02*
D03*
Y451748D02*
D03*
X461000Y434252D02*
D03*
Y440748D02*
D03*
X380000Y508752D02*
D03*
Y515248D02*
D03*
X390500Y508752D02*
D03*
Y515248D02*
D03*
X369500Y508752D02*
D03*
Y515248D02*
D03*
D17*
X509256Y444500D02*
D03*
X503744D02*
D03*
X525744Y517000D02*
D03*
X531256D02*
D03*
X511244D02*
D03*
X516756D02*
D03*
D18*
X390555Y489516D02*
D03*
X381500D02*
D03*
X372445D02*
D03*
D19*
X381500Y466484D02*
D03*
D20*
X347752Y514500D02*
D03*
X354248D02*
D03*
X354748Y432500D02*
D03*
X348252D02*
D03*
D21*
X386216Y453346D02*
D03*
X375980D02*
D03*
X386216Y446654D02*
D03*
X375980D02*
D03*
D22*
X382673Y453346D02*
D03*
X379524D02*
D03*
X382673Y446654D02*
D03*
X379524D02*
D03*
D23*
X446701Y448000D02*
D03*
Y453000D02*
D03*
Y458000D02*
D03*
Y463000D02*
D03*
Y468000D02*
D03*
Y473000D02*
D03*
Y478000D02*
D03*
Y483000D02*
D03*
Y488000D02*
D03*
Y493000D02*
D03*
Y498000D02*
D03*
Y503000D02*
D03*
Y508000D02*
D03*
Y513000D02*
D03*
X409299Y448000D02*
D03*
Y453000D02*
D03*
Y458000D02*
D03*
Y463000D02*
D03*
Y468000D02*
D03*
Y473000D02*
D03*
Y478000D02*
D03*
Y483000D02*
D03*
Y488000D02*
D03*
Y493000D02*
D03*
Y498000D02*
D03*
Y503000D02*
D03*
Y508000D02*
D03*
D24*
Y513000D02*
D03*
D25*
X443701Y433000D02*
D03*
X406299D02*
D03*
D26*
X400000Y514756D02*
D03*
Y509244D02*
D03*
D27*
X467154Y514217D02*
D03*
Y503980D02*
D03*
X473846Y514217D02*
D03*
Y503980D02*
D03*
X472154Y442717D02*
D03*
Y432480D02*
D03*
X478847Y442717D02*
D03*
Y432480D02*
D03*
D28*
X467154Y510673D02*
D03*
Y507524D02*
D03*
X473846Y510673D02*
D03*
Y507524D02*
D03*
X472154Y439173D02*
D03*
Y436024D02*
D03*
X478847Y439173D02*
D03*
Y436024D02*
D03*
D29*
X491000Y458075D02*
D03*
Y488075D02*
D03*
X501000Y458075D02*
D03*
Y488075D02*
D03*
X511000Y458075D02*
D03*
Y488075D02*
D03*
X521000Y458075D02*
D03*
Y488075D02*
D03*
X531000Y458075D02*
D03*
Y488075D02*
D03*
X541000Y458075D02*
D03*
Y488075D02*
D03*
X551000Y458075D02*
D03*
Y488075D02*
D03*
X561000D02*
D03*
Y458075D02*
D03*
D30*
X359500Y470198D02*
D03*
Y460355D02*
D03*
Y478072D02*
D03*
D31*
Y487914D02*
D03*
D32*
X348831Y448269D02*
D03*
Y500001D02*
D03*
D33*
X550500Y436000D02*
D03*
X540500D02*
D03*
X530500D02*
D03*
X520500D02*
D03*
X500500D02*
D03*
X510500D02*
D03*
X551000Y508000D02*
D03*
X541000D02*
D03*
X531000D02*
D03*
X521000D02*
D03*
X501000D02*
D03*
X511000D02*
D03*
D34*
X490500Y436000D02*
D03*
X491000Y508000D02*
D03*
D35*
X348252Y438972D02*
D03*
X379000Y435500D02*
D03*
X494500Y480500D02*
D03*
X436500Y488500D02*
D03*
Y468000D02*
D03*
X381500Y483500D02*
D03*
X574500Y425500D02*
D03*
X582000Y428000D02*
D03*
X588500Y431500D02*
D03*
X594000Y436000D02*
D03*
X599000Y441500D02*
D03*
X603500Y448000D02*
D03*
X606500Y455000D02*
D03*
X608000Y462500D02*
D03*
X608392Y469154D02*
D03*
Y475000D02*
D03*
Y480167D02*
D03*
X608000Y486500D02*
D03*
X606500Y493500D02*
D03*
X603000Y500500D02*
D03*
X598500Y507500D02*
D03*
X593500Y513000D02*
D03*
X587000Y517500D02*
D03*
X580500Y520500D02*
D03*
X573000Y523000D02*
D03*
X346000Y424347D02*
D03*
X352453D02*
D03*
X358906D02*
D03*
X371811D02*
D03*
X365358D02*
D03*
X391169D02*
D03*
X397622D02*
D03*
X384717D02*
D03*
X378264D02*
D03*
X429886D02*
D03*
X436339D02*
D03*
X449244D02*
D03*
X442791D02*
D03*
X416980D02*
D03*
X423433D02*
D03*
X410528D02*
D03*
X404075D02*
D03*
X481508D02*
D03*
X487960D02*
D03*
X500866D02*
D03*
X494413D02*
D03*
X468602D02*
D03*
X475055D02*
D03*
X462149D02*
D03*
X455697D02*
D03*
X533130D02*
D03*
X539582D02*
D03*
X552488D02*
D03*
X546035D02*
D03*
X520224D02*
D03*
X526677D02*
D03*
X513771D02*
D03*
X507319D02*
D03*
X565393D02*
D03*
X558941D02*
D03*
X339547D02*
D03*
Y430800D02*
D03*
Y437253D02*
D03*
Y450158D02*
D03*
Y443706D02*
D03*
Y469517D02*
D03*
Y475969D02*
D03*
Y463064D02*
D03*
Y456611D02*
D03*
Y508233D02*
D03*
Y514686D02*
D03*
Y495328D02*
D03*
Y501780D02*
D03*
Y488875D02*
D03*
Y482422D02*
D03*
X552488Y523922D02*
D03*
X558941D02*
D03*
X565393D02*
D03*
X500866D02*
D03*
X507319D02*
D03*
X520224D02*
D03*
X513771D02*
D03*
X539582D02*
D03*
X546035D02*
D03*
X533130D02*
D03*
X526677D02*
D03*
X449244D02*
D03*
X455697D02*
D03*
X468602D02*
D03*
X462149D02*
D03*
X487960D02*
D03*
X494413D02*
D03*
X481508D02*
D03*
X475055D02*
D03*
X397622D02*
D03*
X404075D02*
D03*
X416980D02*
D03*
X410528D02*
D03*
X436339D02*
D03*
X442791D02*
D03*
X429886D02*
D03*
X423433D02*
D03*
X371811D02*
D03*
X378264D02*
D03*
X391169D02*
D03*
X384717D02*
D03*
X358906D02*
D03*
X365358D02*
D03*
X352453D02*
D03*
X346000D02*
D03*
X339547D02*
D03*
X420000Y451500D02*
D03*
X454240Y441240D02*
D03*
X372500Y502500D02*
D03*
X394500D02*
D03*
X400000Y503500D02*
D03*
D36*
X368000Y493000D02*
D03*
X476500Y507500D02*
D03*
X480000Y495000D02*
D03*
X432500Y464000D02*
D03*
X440500Y461000D02*
D03*
X436000Y458000D02*
D03*
X506000Y516500D02*
D03*
X477000Y504000D02*
D03*
X482500Y498000D02*
D03*
X372000Y459000D02*
D03*
X399000Y478437D02*
D03*
X416500Y470500D02*
D03*
X390000Y458500D02*
D03*
X360000Y514500D02*
D03*
X376264Y458000D02*
D03*
X379524Y457717D02*
D03*
X382673D02*
D03*
X386500Y458000D02*
D03*
X478847Y448846D02*
D03*
M02*
