G04 Layer_Color=65535*
%FSLAX25Y25*%
%MOIN*%
G70*
G01*
G75*
%ADD12C,0.00787*%
%ADD37C,0.00984*%
%ADD38C,0.02362*%
%ADD39C,0.00598*%
D12*
X470496Y498272D02*
G03*
X463072Y490848I0J-7424D01*
G01*
X463152Y455520D02*
G03*
X470572Y447848I7420J-248D01*
G01*
X595072D02*
G03*
X602496Y455272I0J7424D01*
G01*
X578093Y490827D02*
G03*
X570669Y498251I-7424J0D01*
G01*
X602420Y482974D02*
G03*
X594996Y490398I-7424J0D01*
G01*
X601425Y494560D02*
G03*
X594996Y498272I-6429J-3712D01*
G01*
X582496Y494536D02*
G03*
X582496Y490599I0J-1969D01*
G01*
X486004Y467878D02*
X566004D01*
X486004Y453378D02*
X566004D01*
X485996Y492772D02*
X565996D01*
X485996Y478272D02*
X565996D01*
X486004Y453378D02*
Y467878D01*
X496004Y453378D02*
Y467878D01*
X506004Y453378D02*
Y467878D01*
X516004Y453378D02*
Y467878D01*
X526004Y453378D02*
Y467878D01*
X536004Y453378D02*
Y467878D01*
X546004Y453378D02*
Y467878D01*
X556004Y453378D02*
Y467878D01*
X566004Y453378D02*
Y467878D01*
X565996Y478272D02*
Y492772D01*
X555996Y478272D02*
Y492772D01*
X545996Y478272D02*
Y492772D01*
X535996Y478272D02*
Y492772D01*
X525996Y478272D02*
Y492772D01*
X515996Y478272D02*
Y492772D01*
X505996Y478272D02*
Y492772D01*
X495996Y478272D02*
Y492772D01*
X485996Y478272D02*
Y492772D01*
X463127Y455521D02*
Y490848D01*
X470572Y447848D02*
X595072D01*
X602441Y455272D02*
Y490599D01*
X470496Y498251D02*
X594996D01*
X582496Y490599D02*
X602000D01*
X578031Y490398D02*
X594996D01*
X578031D02*
Y490827D01*
X582496Y494536D02*
X601000D01*
X565500Y428000D02*
X568000Y430500D01*
X468500Y429000D02*
X490500D01*
X510500Y428000D02*
X565500D01*
X510500D02*
Y431000D01*
X500500Y428000D02*
Y430000D01*
Y428000D02*
X510500D01*
X490500Y429000D02*
X500500D01*
Y431000D01*
X490500Y429000D02*
Y431000D01*
X392500Y455043D02*
X397500D01*
X458500Y444043D02*
X463500D01*
X357886Y500001D02*
X365681D01*
X357886Y448269D02*
X365681D01*
X343004Y455198D02*
Y493072D01*
X365681Y448269D02*
Y500001D01*
X368311Y484102D02*
X394689D01*
X368311Y471898D02*
X394689D01*
Y484102D01*
X368311Y471898D02*
Y484102D01*
X377500Y505457D02*
X382500D01*
X344457Y512000D02*
Y517000D01*
X358043Y430000D02*
Y435000D01*
X414614Y444870D02*
X441386D01*
X414614Y516130D02*
X441386D01*
Y444870D02*
Y516130D01*
X414614Y444870D02*
Y516130D01*
X485500Y441000D02*
X555500D01*
X485500Y431000D02*
Y441000D01*
Y431000D02*
X555500D01*
Y441000D01*
X388000Y505457D02*
X393000D01*
X402264Y442547D02*
X447736D01*
X402264Y423453D02*
X447736D01*
X402264Y438905D02*
Y442547D01*
Y423453D02*
Y427095D01*
X447736Y423453D02*
Y427095D01*
Y438905D02*
Y442547D01*
X367000Y505457D02*
X372000D01*
X486000Y513000D02*
X556000D01*
X486000Y503000D02*
Y513000D01*
Y503000D02*
X556000D01*
Y513000D01*
D37*
X368732Y487914D02*
G03*
X368732Y487914I-492J0D01*
G01*
X395181Y489516D02*
G03*
X395181Y489516I-492J0D01*
G01*
X409791Y516347D02*
G03*
X409791Y516347I-492J0D01*
G01*
D38*
X419732Y512193D02*
G03*
X419732Y512193I-1181J0D01*
G01*
D39*
X566833Y434633D02*
X566300Y434100D01*
Y433033D01*
X566833Y432500D01*
X568967D01*
X569500Y433033D01*
Y434100D01*
X568967Y434633D01*
X566300Y435700D02*
X569500D01*
Y437300D01*
X568967Y437833D01*
X566833D01*
X566300Y437300D01*
Y435700D01*
X566833Y441033D02*
X566300Y440499D01*
Y439433D01*
X566833Y438900D01*
X568967D01*
X569500Y439433D01*
Y440499D01*
X568967Y441033D01*
X457500Y428000D02*
Y431200D01*
X459100D01*
X459633Y430666D01*
Y429600D01*
X459100Y429067D01*
X457500D01*
X460700Y428000D02*
Y431200D01*
X462300D01*
X462833Y430666D01*
Y429600D01*
X462300Y429067D01*
X460700D01*
X461766D02*
X462833Y428000D01*
X466033Y430666D02*
X465499Y431200D01*
X464433D01*
X463900Y430666D01*
Y428533D01*
X464433Y428000D01*
X465499D01*
X466033Y428533D01*
Y429600D01*
X464966D01*
X352500Y506300D02*
Y509500D01*
X350900D01*
X350367Y508967D01*
Y506834D01*
X350900Y506300D01*
X352500D01*
X349300Y509500D02*
X348234D01*
X348767D01*
Y506300D01*
X349300Y506834D01*
X349000Y440200D02*
Y437000D01*
X350600D01*
X351133Y437533D01*
Y439667D01*
X350600Y440200D01*
X349000D01*
X354333Y437000D02*
X352200D01*
X354333Y439133D01*
Y439667D01*
X353800Y440200D01*
X352733D01*
X352200Y439667D01*
X378000Y457500D02*
Y460700D01*
X379600D01*
X380133Y460167D01*
Y459100D01*
X379600Y458567D01*
X378000D01*
X379067D02*
X380133Y457500D01*
X381200D02*
Y460700D01*
X382800D01*
X383333Y460167D01*
Y459100D01*
X382800Y458567D01*
X381200D01*
X384400Y457500D02*
X385466D01*
X384933D01*
Y460700D01*
X384400Y460167D01*
X426500Y513700D02*
Y511033D01*
X427033Y510500D01*
X428100D01*
X428633Y511033D01*
Y513700D01*
X429700Y510500D02*
X430766D01*
X430233D01*
Y513700D01*
X429700Y513167D01*
X558000Y437500D02*
X561200D01*
Y435900D01*
X560667Y435367D01*
X559600D01*
X559067Y435900D01*
Y437500D01*
X558000Y434300D02*
Y433234D01*
Y433767D01*
X561200D01*
X560667Y434300D01*
X502000Y515500D02*
Y518700D01*
X503600D01*
X504133Y518166D01*
Y517100D01*
X503600Y516567D01*
X502000D01*
X503067D02*
X504133Y515500D01*
X505200D02*
X506266D01*
X505733D01*
Y518700D01*
X505200Y518166D01*
X460000Y471500D02*
X456800D01*
Y473100D01*
X457334Y473633D01*
X458400D01*
X458933Y473100D01*
Y471500D01*
X460000Y476833D02*
Y474700D01*
X457867Y476833D01*
X457334D01*
X456800Y476300D01*
Y475233D01*
X457334Y474700D01*
X498000Y446000D02*
Y442800D01*
X496400D01*
X495867Y443333D01*
Y444400D01*
X496400Y444933D01*
X498000D01*
X496933D02*
X495867Y446000D01*
X492667D02*
X494800D01*
X492667Y443867D01*
Y443333D01*
X493200Y442800D01*
X494267D01*
X494800Y443333D01*
X389334Y501133D02*
X388800Y500600D01*
Y499533D01*
X389334Y499000D01*
X391467D01*
X392000Y499533D01*
Y500600D01*
X391467Y501133D01*
X392000Y502200D02*
Y503266D01*
Y502733D01*
X388800D01*
X389334Y502200D01*
X536000Y515500D02*
Y518700D01*
X537600D01*
X538133Y518166D01*
Y517100D01*
X537600Y516567D01*
X536000D01*
X537067D02*
X538133Y515500D01*
X539200Y518166D02*
X539733Y518700D01*
X540800D01*
X541333Y518166D01*
Y517633D01*
X540800Y517100D01*
X540266D01*
X540800D01*
X541333Y516567D01*
Y516033D01*
X540800Y515500D01*
X539733D01*
X539200Y516033D01*
X386000Y434200D02*
Y433667D01*
X387067Y432600D01*
X388133Y433667D01*
Y434200D01*
X387067Y432600D02*
Y431000D01*
X389200D02*
X390266D01*
X389733D01*
Y434200D01*
X389200Y433667D01*
X401500Y501500D02*
X398300D01*
Y503100D01*
X398833Y503633D01*
X399900D01*
X400433Y503100D01*
Y501500D01*
Y502567D02*
X401500Y503633D01*
Y506300D02*
X398300D01*
X399900Y504700D01*
Y506833D01*
X459833Y449633D02*
X459300Y449100D01*
Y448033D01*
X459833Y447500D01*
X461967D01*
X462500Y448033D01*
Y449100D01*
X461967Y449633D01*
X459833Y450700D02*
X459300Y451233D01*
Y452300D01*
X459833Y452833D01*
X460367D01*
X460900Y452300D01*
Y451766D01*
Y452300D01*
X461433Y452833D01*
X461967D01*
X462500Y452300D01*
Y451233D01*
X461967Y450700D01*
X396166Y461367D02*
X396700Y461900D01*
Y462967D01*
X396166Y463500D01*
X394033D01*
X393500Y462967D01*
Y461900D01*
X394033Y461367D01*
X393500Y458167D02*
Y460300D01*
X395633Y458167D01*
X396166D01*
X396700Y458700D01*
Y459767D01*
X396166Y460300D01*
X463500Y504500D02*
X460300D01*
Y506100D01*
X460834Y506633D01*
X461900D01*
X462433Y506100D01*
Y504500D01*
Y505567D02*
X463500Y506633D01*
Y507700D02*
X460300D01*
Y509300D01*
X460834Y509833D01*
X461900D01*
X462433Y509300D01*
Y507700D01*
X463500Y513033D02*
Y510899D01*
X461367Y513033D01*
X460834D01*
X460300Y512499D01*
Y511433D01*
X460834Y510899D01*
X400200Y480500D02*
X397533D01*
X397000Y479967D01*
Y478900D01*
X397533Y478367D01*
X400200D01*
X397000Y475167D02*
Y477300D01*
X399133Y475167D01*
X399667D01*
X400200Y475700D01*
Y476767D01*
X399667Y477300D01*
X379333Y500133D02*
X378800Y499600D01*
Y498533D01*
X379333Y498000D01*
X381467D01*
X382000Y498533D01*
Y499600D01*
X381467Y500133D01*
X378800Y503333D02*
Y501200D01*
X380400D01*
X379867Y502266D01*
Y502800D01*
X380400Y503333D01*
X381467D01*
X382000Y502800D01*
Y501733D01*
X381467Y501200D01*
X368833Y500633D02*
X368300Y500100D01*
Y499033D01*
X368833Y498500D01*
X370967D01*
X371500Y499033D01*
Y500100D01*
X370967Y500633D01*
X371500Y503300D02*
X368300D01*
X369900Y501700D01*
Y503833D01*
X559000Y511000D02*
X562200D01*
Y509400D01*
X561666Y508867D01*
X560600D01*
X560067Y509400D01*
Y511000D01*
X561666Y507800D02*
X562200Y507267D01*
Y506200D01*
X561666Y505667D01*
X561133D01*
X560600Y506200D01*
Y506734D01*
Y506200D01*
X560067Y505667D01*
X559533D01*
X559000Y506200D01*
Y507267D01*
X559533Y507800D01*
X469000Y433000D02*
X465800D01*
Y434600D01*
X466333Y435133D01*
X467400D01*
X467933Y434600D01*
Y433000D01*
Y434067D02*
X469000Y435133D01*
Y436200D02*
X465800D01*
Y437800D01*
X466333Y438333D01*
X467400D01*
X467933Y437800D01*
Y436200D01*
X466333Y439399D02*
X465800Y439933D01*
Y440999D01*
X466333Y441533D01*
X466867D01*
X467400Y440999D01*
Y440466D01*
Y440999D01*
X467933Y441533D01*
X468467D01*
X469000Y440999D01*
Y439933D01*
X468467Y439399D01*
M02*
